<svg width="200" height="200" viewBox="0 0 200 200" fill="none" xmlns="http://www.w3.org/2000/svg">
<path d="M136.384 18.9108C156.559 25.3599 189.231 44.4093 196.415 57.109C203.599 69.8086 203.796 86.8738 160.003 113.166C143.273 124.576 130.48 144.419 119.162 159.302C105.959 176.664 87.6706 196.012 64.0519 199.484C40.4332 202.957 31.743 187.53 27.2461 179.508C18.5862 164.06 12.3511 150.372 7.95743 132.017C1.56084 105.295 -1.88339 75.464 1.0687 54.6286C4.97049 27.0905 15.042 13.222 30.4925 5.97925C45.8447 -1.16431 68.0856 -1.06509 82.2569 1.91139C96.5265 4.88787 117.686 11.4696 136.384 18.9108Z" fill="#CDD4DF"/>
</svg>
