<svg width="300" height="315" viewBox="0 0 300 315" fill="none" xmlns="http://www.w3.org/2000/svg">
<path fill-rule="evenodd" clip-rule="evenodd" d="M181.562 45.5937C176.847 45.4587 172.275 43.965 168.414 41.2979C151.585 29.217 159.588 -3.37843 182.375 0.285463C202.325 3.50374 214.188 29.8771 194.942 42.0571C190.931 44.4989 186.278 45.7286 181.562 45.5937ZM35.2701 61.1197C25.8607 69.8503 18.4281 80.434 13.457 92.1802C6.3929 108.305 3.3894 125.881 1.443 143.211C-5.00027 199.456 12.6684 264.333 74.1143 281.646C115.341 293.199 160.041 281.366 197.761 264.168C253.133 238.884 331.291 160.193 266.003 101.753C245.015 82.9945 216.293 79.6742 187.718 76.3708C168.525 74.152 149.397 71.9408 132.725 65.0641C127.212 62.7886 121.79 59.9684 116.345 57.1361L116.345 57.136C102.596 49.985 88.6994 42.7566 72.8223 44.0215C58.3585 45.1603 45.5727 51.7124 35.2701 61.1197ZM238.048 264.646C233.837 268.442 229.222 273.426 230.548 278.906C231.488 282.817 235.464 285.507 239.525 286.102C243.633 286.456 247.763 285.727 251.489 283.989C264.627 278.691 293.437 255.932 287.296 238.686C280.972 220.946 253.933 248.542 242.353 260.362L242.352 260.362L242.35 260.364C240.443 262.311 238.955 263.829 238.048 264.646ZM250.146 46.6612C247.378 40.8848 237.411 40.5877 234.642 46.6612C233.998 48.108 233.761 49.6985 233.956 51.2664C234.151 52.8342 234.77 54.3218 235.75 55.5734C237.044 57.2383 238.924 58.3673 241.021 58.7387C243.118 59.1101 245.281 58.6971 247.084 57.5808C248.887 56.4644 250.201 54.7254 250.768 52.7051C251.334 50.6847 251.113 48.529 250.146 46.6612ZM150.102 304.103C149.551 306.358 149.921 308.736 151.131 310.726C157.222 320.81 172.861 311.155 166.401 301.318C165.109 299.378 163.095 298.014 160.791 297.517C158.488 297.021 156.078 297.433 154.08 298.664C152.082 299.895 150.654 301.848 150.102 304.103ZM4.76533 81.6834C7.39715 81.6834 9.53066 79.5849 9.53066 76.9962C9.53066 74.4076 7.39715 72.3091 4.76533 72.3091C2.13351 72.3091 0 74.4076 0 76.9962C0 79.5849 2.13351 81.6834 4.76533 81.6834ZM288.554 81.4021C287.937 81.4514 287.326 81.5508 286.725 81.6992C281.171 83.135 276.255 88.8784 277.379 94.5228C278.085 97.4208 279.901 99.9385 282.45 101.55C284.998 103.162 288.081 103.742 291.054 103.171C293.977 102.389 296.496 100.559 298.117 98.0429C299.737 95.5264 300.343 92.5047 299.813 89.5716C299.185 87.1403 297.72 84.9981 295.667 83.5088C293.615 82.0196 291.102 81.2752 288.554 81.4021Z" fill="#C1C2CD"/>
</svg>
