<svg width="300" height="297" viewBox="0 0 300 297" fill="none" xmlns="http://www.w3.org/2000/svg">
<path fill-rule="evenodd" clip-rule="evenodd" d="M229.046 43.1164C193.075 47.2064 167.353 32.5838 143.946 19.2768C126.933 9.60563 111.144 0.629334 93.5302 0.0362732C52.4179 -1.30407 28.6927 34.5932 43.2704 92.4686C53.0233 131.158 46.2667 158.659 39.6363 185.648C34.9935 204.546 30.4126 223.192 31.6048 245.251C32.8211 267.779 55.2273 299.81 82.9952 296.803C106.707 294.19 121.246 275.494 137.368 254.761L137.368 254.761C146.054 243.591 155.2 231.83 166.487 221.675C184.652 205.341 207.471 194.192 229.444 183.458C242.469 177.094 255.197 170.876 266.481 163.809C296.202 145.199 300 113.804 300 99.1476C300 70.6965 287.968 36.4168 229.046 43.1164ZM12.0106 39.6152C5.38763 39.6152 0 44.1238 0 49.6993C0 55.2747 5.37047 59.7661 12.0106 59.7661C18.6508 59.7661 24.0213 55.2575 24.0213 49.6993C24.0213 44.141 18.6165 39.6152 12.0106 39.6152ZM35.4212 19.7136C35.6355 20.3588 35.7206 21.0401 35.6716 21.7184C35.723 22.3981 35.6396 23.0812 35.4264 23.7285C35.2132 24.3757 34.8742 24.9741 34.4292 25.4892C33.9841 26.0044 33.4417 26.4261 32.8334 26.7299C32.225 27.0337 31.5626 27.2137 30.8845 27.2595C30.2005 27.2225 29.5306 27.0489 28.9143 26.7489C28.298 26.4489 27.7476 26.0286 27.2954 25.5125C26.8432 24.9965 26.4982 24.3951 26.2807 23.7435C26.0632 23.092 25.9775 22.4036 26.0288 21.7184C25.9799 21.0347 26.0674 20.348 26.2859 19.6985C26.5045 19.049 26.8499 18.4497 27.3019 17.9355C27.7539 17.4213 28.3035 17.0025 28.9186 16.7036C29.5337 16.4047 30.202 16.2317 30.8845 16.1946C31.5611 16.2404 32.2219 16.4198 32.8291 16.7226C33.4363 17.0253 33.9779 17.4454 34.4227 17.9587C34.8675 18.472 35.2069 19.0684 35.4212 19.7136ZM199.033 219.768C191.879 219.768 186.062 224.431 186.062 230.179C186.062 235.926 191.879 240.504 199.033 240.504C206.188 240.504 212.005 235.84 212.005 230.179C212.005 224.517 206.257 219.768 199.033 219.768ZM221.648 218.064C221.648 214.967 224.702 212.454 228.511 212.454C232.32 212.454 235.374 214.967 235.374 218.064C235.374 221.162 232.303 223.674 228.511 223.674C224.719 223.674 221.648 221.162 221.648 218.064Z" fill="#C1C2CD"/>
</svg>
