<svg width="300" height="281" viewBox="0 0 300 281" fill="none" xmlns="http://www.w3.org/2000/svg">
<path fill-rule="evenodd" clip-rule="evenodd" d="M100.996 9.36723C100.584 9.51993 100.149 9.59834 99.7096 9.59881H99.6839C98.8211 9.59924 97.9855 9.29643 97.3233 8.74333C96.6611 8.19022 96.2143 7.42199 96.0611 6.57289C95.9078 5.72379 96.0578 4.84784 96.4848 4.09811C96.9119 3.34839 97.5888 2.77258 98.3973 2.47132C100.578 1.66079 102.804 0.88886 105.004 0.181256C105.934 -0.121572 106.946 -0.0426312 107.817 0.400712C108.689 0.844055 109.349 1.61548 109.651 2.54529C109.954 3.4751 109.875 4.48713 109.432 5.35874C108.989 6.23034 108.217 6.89013 107.287 7.19296C105.19 7.86197 103.074 8.5953 100.996 9.36723ZM273.497 83.2346C239.982 15.4912 157.9 -12.2597 90.157 21.2356C22.4136 54.731 -5.34373 136.839 28.1709 204.569C61.6856 272.3 143.761 300.064 211.505 266.555C279.248 233.047 307.005 150.978 273.497 83.2346ZM232.604 243.41C225.004 249.638 216.719 254.98 207.909 259.331C207.038 259.731 206.047 259.776 205.144 259.457C204.241 259.137 203.498 258.478 203.074 257.619C202.649 256.761 202.576 255.771 202.87 254.859C203.164 253.948 203.801 253.187 204.647 252.738C212.955 248.634 220.767 243.597 227.934 237.724C228.306 237.41 228.737 237.173 229.202 237.027C229.667 236.881 230.156 236.829 230.641 236.874C231.126 236.918 231.597 237.059 232.028 237.287C232.458 237.515 232.839 237.826 233.148 238.203C233.457 238.579 233.688 239.013 233.828 239.479C233.969 239.946 234.015 240.436 233.964 240.92C233.913 241.404 233.767 241.874 233.534 242.301C233.3 242.729 232.984 243.106 232.604 243.41ZM247.586 228.911C246.344 230.326 245.051 231.735 243.726 233.086C243.395 233.448 242.995 233.741 242.549 233.947C242.103 234.153 241.621 234.267 241.13 234.283C240.639 234.3 240.15 234.217 239.691 234.042C239.233 233.866 238.814 233.6 238.46 233.26C238.105 232.92 237.823 232.513 237.629 232.062C237.434 231.61 237.332 231.125 237.328 230.634C237.325 230.143 237.419 229.656 237.607 229.202C237.794 228.748 238.07 228.336 238.419 227.991C239.641 226.704 240.857 225.418 242.028 224.06C242.343 223.685 242.73 223.376 243.165 223.153C243.601 222.929 244.077 222.794 244.566 222.757C245.054 222.719 245.545 222.78 246.01 222.935C246.475 223.09 246.904 223.336 247.273 223.659C247.641 223.982 247.941 224.375 248.156 224.816C248.37 225.256 248.494 225.735 248.521 226.224C248.548 226.713 248.476 227.203 248.311 227.664C248.146 228.126 247.891 228.55 247.56 228.911H247.586ZM253.62 218.882C252.946 218.885 252.284 218.702 251.706 218.354C251.129 218.005 250.659 217.504 250.348 216.906C250.036 216.309 249.895 215.636 249.94 214.964C249.985 214.291 250.214 213.644 250.603 213.093C262.945 195.256 270.29 174.442 271.877 152.809C273.464 131.176 269.235 109.513 259.628 90.0661C259.289 89.2048 259.287 88.2472 259.622 87.3844C259.958 86.5217 260.607 85.8171 261.439 85.4112C262.271 85.0054 263.225 84.9281 264.112 85.1947C264.998 85.4613 265.751 86.0523 266.222 86.8498C276.406 107.464 280.891 130.428 279.211 153.36C277.532 176.292 269.748 198.357 256.669 217.268C256.328 217.76 255.872 218.161 255.341 218.437C254.809 218.713 254.219 218.855 253.62 218.85V218.882ZM33.6838 226.788C33.4055 226.393 33.052 226.056 32.6435 225.797C32.2351 225.539 31.7796 225.363 31.3033 225.28C30.8269 225.198 30.3389 225.209 29.8671 225.315C29.3953 225.421 28.949 225.619 28.5537 225.897C28.1583 226.176 27.8217 226.529 27.563 226.938C27.3042 227.346 27.1285 227.801 27.0457 228.278C26.963 228.754 26.9749 229.242 27.0808 229.714C27.1866 230.186 27.3844 230.632 27.6628 231.027C34.0733 240.113 41.4759 248.456 49.7335 255.903C50.0921 256.228 50.5112 256.479 50.9668 256.642C51.4224 256.804 51.9056 256.876 52.3889 256.852C52.8721 256.828 53.3459 256.709 53.7833 256.502C54.2206 256.295 54.6128 256.004 54.9376 255.646C55.2625 255.287 55.5135 254.868 55.6763 254.412C55.8392 253.957 55.9107 253.473 55.8868 252.99C55.8629 252.507 55.7441 252.033 55.5371 251.596C55.3301 251.159 55.0389 250.766 54.6803 250.441C46.8256 243.361 39.7834 235.427 33.6838 226.788ZM278.552 214.242C279.031 214.306 279.493 214.465 279.91 214.707C280.33 214.948 280.698 215.268 280.994 215.651C281.289 216.034 281.506 216.471 281.632 216.938C281.758 217.404 281.791 217.891 281.729 218.371C281.666 218.85 281.509 219.313 281.268 219.731C278.952 223.7 276.456 227.605 273.806 231.343C273.24 232.137 272.383 232.674 271.422 232.837C270.46 232.999 269.474 232.774 268.679 232.21C267.884 231.645 267.345 230.789 267.181 229.828C267.017 228.867 267.241 227.88 267.804 227.084C270.3 223.527 272.686 219.815 274.88 216.039C275.123 215.621 275.446 215.255 275.83 214.962C276.214 214.669 276.652 214.455 277.119 214.331C277.587 214.208 278.074 214.177 278.552 214.242ZM296.88 162.447C295.917 162.301 294.936 162.543 294.151 163.119C293.366 163.696 292.841 164.56 292.692 165.522C290.59 179.252 286.512 192.605 280.586 205.167C280.171 206.05 280.123 207.062 280.454 207.98C280.784 208.898 281.466 209.647 282.348 210.063C282.836 210.297 283.371 210.418 283.912 210.416C284.61 210.417 285.294 210.219 285.884 209.846C286.474 209.472 286.946 208.938 287.244 208.306C293.468 195.094 297.751 181.052 299.961 166.616C300.102 165.655 299.857 164.678 299.279 163.897C298.702 163.116 297.84 162.595 296.88 162.447ZM72.9944 22.6959C73.6775 22.6948 74.3465 22.5008 74.9242 22.1362C78.8804 19.6789 83.0166 17.3824 87.2108 15.3047C87.6579 15.0992 88.0592 14.8061 88.391 14.4428C88.7228 14.0795 88.9784 13.6533 89.1426 13.1895C89.3068 12.7257 89.3763 12.2337 89.3471 11.7425C89.3178 11.2514 89.1903 10.7711 88.9722 10.33C88.754 9.88901 88.4496 9.49621 88.077 9.17489C87.7044 8.85356 87.2712 8.61023 86.8029 8.45929C86.3346 8.30834 85.8407 8.25285 85.3506 8.2961C84.8605 8.33935 84.384 8.48046 83.9494 8.71108C79.543 10.8918 75.2008 13.3041 71.0453 15.89C70.3664 16.3114 69.8431 16.9423 69.5545 17.6875C69.2659 18.4326 69.2277 19.2514 69.4457 20.0201C69.6637 20.7889 70.126 21.4658 70.7627 21.9485C71.3995 22.4313 72.1761 22.6936 72.9751 22.6959H72.9944ZM57.5171 33.4341C57.4526 34.4082 57.0037 35.3168 56.2692 35.96C32.4888 56.8126 16.2603 84.9347 10.1045 115.958C3.94867 146.981 8.21018 179.169 22.2271 207.522C22.4451 207.955 22.5752 208.427 22.6101 208.911C22.645 209.395 22.5838 209.881 22.4302 210.341C22.2765 210.801 22.0335 211.226 21.7149 211.592C21.3964 211.958 21.0086 212.257 20.574 212.472C20.1394 212.688 19.6665 212.815 19.1825 212.847C18.6985 212.879 18.2129 212.815 17.7538 212.658C17.2946 212.502 16.8709 212.256 16.507 211.936C16.1432 211.615 15.8463 211.225 15.6335 210.79C-14.6712 149.53 0.0469184 75.3607 51.4189 30.4214C52.1534 29.7782 53.1133 29.4532 54.0874 29.5177C55.0616 29.5822 55.9702 30.0311 56.6134 30.7656C57.2566 31.5 57.5816 32.4599 57.5171 33.4341Z" fill="#C1C2CD"/>
</svg>
