<svg width="300" height="233" viewBox="0 0 300 233" fill="none" xmlns="http://www.w3.org/2000/svg">
<path d="M300 36.3939C300 35.4235 299.53 35.7164 299.386 36.5403C298.97 36.0826 299.747 35.515 299.187 35.515C299.44 34.9841 300.054 34.8193 299.584 33.9771C299.331 33.9771 299.241 34.3799 299.584 34.8376C299.476 35.0024 299.349 34.6545 299.223 34.4714C298.898 34.8742 299.024 35.277 298.825 35.6798C298.283 35.6798 297.759 35.3136 297.235 35.9727C296.548 34.1419 295.934 35.7347 295.283 35.2404C295.283 33.8672 296.259 34.7644 296.295 33.5377C295.319 34.0686 294.705 32.8419 293.657 34.1602C293.386 33.4095 293.187 32.7504 292.771 33.794C292.644 33.4967 292.597 33.1705 292.635 32.8489C292.674 32.5272 292.795 32.2216 292.988 31.9631C292.843 31.4871 292.699 32.0546 292.554 31.78C292.735 32.3659 292.193 32.9152 292.554 33.501C291.922 32.6039 291.325 33.8672 290.747 33.6109C291.542 32.9152 292.03 32.1828 292.211 32.1279C291.922 30.8646 290.928 32.6039 290.404 32.9152C290.404 32.018 289.735 32.2377 289.41 32.3476C289.41 32.5673 289.536 32.8053 289.41 33.025C289.283 33.2447 289.229 33.025 289.157 33.1898C289.157 32.8969 289.157 32.6222 289.048 32.3293C288.307 32.3293 287.584 32.9518 286.861 33.0799C286.861 32.9152 286.861 32.7504 286.771 32.5673C287.548 32.2377 287.783 31.6518 288.578 31.2674C287.946 30.4801 287.331 31.1209 286.771 30.6815C286.572 31.2857 287.042 30.8829 287.133 31.3772C287.223 31.8716 286.843 31.7068 286.699 31.8716C286.283 31.3589 286.554 30.4984 286.157 30.4801C285.994 30.7547 286.157 31.0476 285.904 31.3223C285.651 31.5969 286.084 31.3223 286.157 31.1575C286.374 31.5603 286.355 32.9884 286.518 31.8716C287.06 32.8236 286.518 33.2081 286.102 33.0433C286.536 32.5307 285.596 32.4208 285.904 31.6702C285.669 31.3406 285.452 32.549 285.217 32.311C285.178 32.1945 285.162 32.0711 285.171 31.9484C285.18 31.8257 285.214 31.706 285.269 31.5967C285.325 31.4873 285.402 31.3904 285.495 31.3118C285.589 31.2332 285.697 31.1745 285.813 31.1392C286.012 30.6998 285.578 30.2237 285.813 29.766C285.47 29.3266 285.163 30.0956 284.837 29.5463C284.837 28.7957 285.181 29.0337 285.343 28.2098C285 27.2028 284.711 28.521 284.368 27.6422C284.223 28.2647 284.765 27.9534 284.91 28.7041C284.657 28.7041 284.386 28.7041 284.115 28.4844C284.53 29.1984 284.313 29.6012 284.241 30.3153C284.241 30.4068 284.06 30.3153 283.97 30.4618C283.572 30.1139 284.187 29.8026 283.789 29.4365C283.428 30.535 281.349 29.6196 281.494 28.283C281.259 28.9055 280.952 28.5576 280.97 29.3083C280.5 28.759 280.807 28.2647 280.518 27.7337C280.952 27.9351 281.386 27.2394 281.837 27.6239C281.671 27.3062 281.391 27.0659 281.054 26.9533C280.717 26.8407 280.35 26.8645 280.03 27.0197C279.867 26.6718 280.157 26.3423 279.849 25.9761C279.488 26.4887 279.108 27.0746 278.548 26.0859C278.548 26.9648 278.133 26.8366 278.386 27.807C278.114 27.038 277.807 28.1548 277.337 27.4042C277.608 28.6675 276.614 27.8985 276.651 28.7407C276 28.2098 276.994 27.7337 276.542 27.2028C276.289 27.8802 276.018 27.9168 275.765 27.6788C275.729 27.283 275.729 26.8846 275.765 26.4887C276.651 26.0676 277.572 26.7634 278.205 25.9028C277.988 25.2437 277.807 26.269 277.59 25.3719C276.47 27.2028 275.313 24.1818 274.193 25.7198C273.072 23.8889 271.048 25.7198 270.578 23.779C270.22 23.6625 269.87 23.5218 269.53 23.3579C269.349 24.6578 268.753 23.6692 268.319 23.9621C268.319 23.6692 268.428 23.3945 268.319 23.1016C268.319 23.9987 267.669 23.9804 267.705 23.2297C266.747 24.2001 265.789 22.6439 264.831 23.2297C265.102 23.7241 264.614 23.9987 264.47 24.2367C264.325 23.8156 264.831 23.4494 264.741 23.0467C263.928 22.1495 263.114 23.1931 262.301 23.2297C262.301 21.9298 261.343 21.8016 261.163 22.6255C261 22.003 260.819 22.4058 260.657 21.9115C260.205 23.7424 258.434 20.9777 257.422 22.5523C256.663 20.5933 255.235 23.6508 254.639 21.6735C254.91 21.8749 255.163 21.6735 255.434 21.5636C255.235 20.6116 254.367 21.8749 253.627 21.3988C253.337 21.2158 252.361 20.0806 252.325 21.1242C252.145 21.5087 251.982 20.5566 251.801 20.3919C251.187 21.0144 250.59 20.3919 249.994 21.0876C249.271 20.3735 247.735 20.4468 246.615 20.282C217.446 13.8556 188.404 13.6908 159.127 12.1162C158.91 11.6585 159.127 11.3106 159.325 10.9261C161.404 12.3726 163.771 10.5417 165.867 11.8233C166.066 11.1275 166.175 11.2374 166.536 11.0543C166.536 11.4022 166.374 11.1825 166.229 11.5303C166.536 11.9881 166.988 10.7614 167.259 11.7134C167.548 11.2923 167.259 10.7797 167.548 10.3586C168.343 12.1895 169.861 11.75 171.163 10.9811C172.121 11.3473 172.97 11.9698 174.09 11.1275C174.129 11.2106 174.149 11.3012 174.149 11.393C174.149 11.4848 174.129 11.5755 174.09 11.6585C175.681 10.8163 177.705 12.3176 178.825 11.0726C179.024 11.567 178.825 11.6951 179.114 11.805C179.223 11.6036 179.114 11.3473 178.988 11.0909C180.795 12.4275 182.602 10.4501 184.41 12.0064C184.663 10.8895 185.584 12.0064 186.054 12.0064C186.867 12.0064 187.482 10.9811 187.861 12.0064C188.602 11.3289 189.289 11.3473 189.922 12.3176C190.319 12.0247 189.741 11.6036 190.157 11.3106C190.265 10.9261 190.663 11.9148 190.446 12.043C190.97 11.2008 191.367 12.043 191.874 11.567C191.94 11.6669 191.976 11.7849 191.976 11.9057C191.976 12.0264 191.94 12.1444 191.874 12.2444C192.542 11.4022 193.102 12.0979 193.681 11.6585C193.681 12.9584 193.681 11.805 194.151 12.4275C194.151 11.9881 194.422 11.6036 194.639 11.6402C194.628 11.9515 194.697 12.2603 194.837 12.5373C195.325 11.274 196.066 13.1232 196.952 11.805C197.01 11.9441 197.039 12.0935 197.039 12.2444C197.039 12.3953 197.01 12.5447 196.952 12.6838C197.982 12.3726 200.331 12.9767 200.566 12.1895C201.09 12.0613 201.542 13.2514 202.139 12.0613C202.572 12.9218 203.404 13.4528 203.657 12.5923C206.874 13.4894 209.874 12.757 213.217 13.6542C213.398 13.4528 213.307 13.2148 213.416 12.9951C213.669 13.526 213.759 13.3429 214.157 13.9471C215.964 12.9951 218.422 15.2654 220.572 13.7091C220.717 14.0204 220.572 14.295 220.789 14.6062C221.602 14.4781 222.434 14.0753 223.229 14.6062C223.229 14.1119 223.048 12.6289 223.825 12.2627C224.042 12.9767 223.825 13.3612 224.295 13.6908C224.404 14.2401 223.807 14.8809 223.681 14.1485C223.337 14.9541 224.205 15.3935 224.169 14.5513C225.217 15.9428 226.392 14.1302 227.422 15.5766C227.711 14.4232 228.434 14.8626 228.886 15.9245C229.084 15.7048 228.994 15.4668 228.886 15.2287C229.843 15.8879 230.837 15.5217 231.795 16.2357C231.795 15.9611 231.795 15.6682 231.904 15.3935C233.295 16.0893 235.265 15.0273 236.277 16.7301C236.368 16.5653 236.277 16.3822 236.277 16.1991C237.831 16.6568 239.404 16.1991 240.94 17.316C242.06 16.6202 243.868 17.4807 245.259 17.7004C245.602 17.316 245.259 16.8949 245.548 16.5104C245.657 16.5104 245.783 16.3822 245.892 16.5104C245.53 18.3413 246.958 17.4624 247.428 18.03C247.59 17.0963 247.03 17.8103 246.922 17.2793C246.813 16.7484 247.319 16.785 247.446 16.6385C248.006 18.9088 249.253 17.6272 250.03 18.5976C250.355 18.2314 250.03 17.792 250.301 17.4075C250.572 17.023 250.518 17.6638 250.645 17.4075C250.735 17.7004 250.5 17.9751 250.374 18.2497C250.627 18.7257 250.88 18.7257 251.151 18.1399C251.422 17.554 250.88 17.4258 251.151 17.1146C250.988 16.7484 250.807 17.3343 250.645 16.7301C250.934 16.0526 251.205 17.023 251.512 16.1076C251.783 17.1512 252.09 16.6751 252.361 16.8765C252.361 17.7371 251.801 16.6385 251.584 17.316C252.127 18.506 251.331 17.7371 251.133 18.1399C251.964 19.4398 251.892 18.03 252.687 18.9638C252.831 18.6342 252.452 18.268 252.524 17.9202C252.596 17.5723 252.705 17.9202 252.795 18.1216C252.922 17.6821 252.795 17.4807 252.614 17.4075C253.066 16.4921 253.5 16.8949 253.934 15.9794C254.205 16.3639 254.349 16.4005 254.277 17.0413C254.657 17.0413 255.036 15.6682 255.416 16.2724C255.795 16.8765 255.127 16.9498 255.054 17.2793C255.343 17.7737 255.578 16.9132 255.488 16.4554C255.759 15.9428 256.012 17.1878 256.265 16.6751C256.374 17.023 256.066 17.3526 256.428 17.7188C256.843 16.4371 258.235 16.1991 258.235 17.499C258.614 17.4075 258.994 18.0483 259.374 17.0596C259.843 18.4694 260.548 16.8765 260.747 18.1765C261.217 16.1442 262.355 19.3666 263.096 17.8286C263.819 18.3229 264.542 17.8286 265.265 18.4877C265.5 18.9821 264.831 18.4877 265.265 19.1652C266.422 17.6455 267.578 19.9341 268.735 19.0736C268.59 18.7257 268.446 18.8905 268.301 18.5243C268.157 18.1582 268.41 18.0666 268.301 17.8286C268.825 18.03 269.349 18.8905 269.874 18.9821C269.874 18.5427 269.729 18.6342 269.602 18.4511C269.458 17.8103 270 18.5976 270.127 17.792C270.127 18.2497 270.253 18.4328 270.47 18.506C270.904 16.6751 271.861 19.2567 272.548 17.9568C272.702 18.1516 272.786 18.3938 272.786 18.6434C272.786 18.8929 272.702 19.1351 272.548 19.3299C272.783 19.9708 273.018 19.3299 273.235 19.7144C273.235 19.4398 273.09 19.1469 272.982 18.8356C273.199 18.1216 273.434 18.323 273.669 18.1948C273.727 18.366 273.743 18.5492 273.715 18.7281C273.686 18.907 273.615 19.076 273.506 19.2201C274.102 18.5793 274.717 19.2201 275.313 19.2201C275.313 19.568 275.114 19.8975 275.494 20.2637C275.819 18.4328 277.681 19.806 278.259 19.0187C278.458 19.8792 279.163 19.6778 278.621 20.4102C279 20.6116 279.018 20.1355 279.054 19.568C279.416 19.4764 279.524 21.2341 280.012 20.4834C279.831 19.8792 279.669 20.4834 279.488 20.1172C279.526 20.0374 279.546 19.9497 279.546 19.8609C279.546 19.7721 279.526 19.6844 279.488 19.6046C280.374 19.6961 281.295 20.7214 282.108 19.3849C282.065 19.9817 282.19 20.5787 282.47 21.1059C282.741 20.6116 282.361 20.0806 282.199 19.5496C282.633 18.1765 283.139 20.4285 283.572 19.275C284.114 19.9341 283.374 20.52 283.699 21.1059C284.006 20.5017 283.825 19.8609 283.934 19.275C284.042 18.6891 284.277 19.9524 284.458 19.6412C284.548 19.9341 284.313 20.2088 284.205 20.4834C284.512 20.7397 284.982 20.2637 284.801 19.6595C285.434 20.8496 285.398 19.806 285.867 21.0876C286.428 20.4285 286.482 20.7031 287.096 21.0876C287.096 20.6299 286.825 20.1538 287.241 19.7327L286.789 18.8356C286.464 18.8356 286.663 19.7327 286.265 18.8356C286.084 19.0553 286.175 19.2933 286.265 19.513C285.723 19.513 284.042 19.751 284.331 18.0666C284.151 17.6455 283.988 18.5793 283.807 18.7257C283.674 18.4788 283.625 18.1944 283.668 17.9165C283.71 17.6386 283.842 17.3825 284.042 17.1878C283.861 16.9681 282.976 17.023 283.355 17.8469C282.994 18.0849 282.614 17.316 282.235 18.3046C282.072 17.9018 282.596 17.5174 282.488 17.1146C282.181 16.4005 281.313 17.7004 281.512 16.1991C281.295 15.7963 281.223 16.7301 281.349 16.8949C281.152 16.91 280.954 16.8638 280.783 16.7624C280.612 16.661 280.475 16.5092 280.392 16.3273C280.392 16.6019 280.392 16.8949 280.392 17.1878C280.392 17.4807 279.976 17.0413 279.777 17.316C279.762 17.0321 279.793 16.7477 279.868 16.4737C279.563 16.7472 279.181 16.9172 278.776 16.9599C278.371 17.0026 277.962 16.9158 277.608 16.7118C277.41 16.2174 277.88 16.7118 277.952 16.0343C277.681 15.54 277.428 16.2907 277.157 15.4851C276.614 16.4188 276.578 13.9837 276.036 14.9175C276.217 15.0823 276.38 15.1006 276.56 15.2837C276.325 16.1808 276.09 15.0457 275.874 15.9245C275.639 15.6315 275.874 15.3569 275.874 15.0823C275.874 14.8076 275.584 15.2837 275.44 14.8809C275.313 16.0526 273.813 15.302 273.108 14.8809C273.108 14.7344 273.108 14.6795 273.108 14.6245C272.078 14.7822 271.025 14.6161 270.09 14.1485C270 13.8556 270.235 13.5992 270.343 13.3063C269.982 12.4275 269.711 13.5992 269.747 14.1302C269.223 14.295 269.747 13.1232 269.223 12.7204C268.753 13.0866 269.566 13.5443 269.313 13.9288C268.59 13.9288 267.868 14.8259 267.145 13.6176C266.892 14.8076 266.566 14.2218 266.114 14.5696C265.789 14.2034 266.006 13.8739 265.771 13.5077C265.229 14.2218 264.669 13.9837 264.127 13.9105C264 13.2697 264.578 13.5077 264.741 13.4528C264.361 12.7204 263.711 13.1781 263.259 13.8556C262.934 13.4345 263.259 13.0683 263.006 12.6472C263.241 12.0796 263.621 12.5556 263.621 11.8233C263.096 11.7804 262.57 11.8662 262.085 12.0733C261.601 12.2805 261.173 12.603 260.837 13.0134C260.368 12.4641 261.145 11.9881 260.837 11.4571C260.344 11.5724 259.829 11.5517 259.346 11.3971C258.863 11.2426 258.429 10.9599 258.09 10.5783C257.621 11.6768 257.313 10.7247 257.06 10.5783C256.88 10.9078 257.169 11.274 256.861 11.6036C256.211 10.4135 254.639 12.1895 254.548 10.5783C253.482 10.6881 251.982 9.51636 251.187 10.4501C250.663 9.42482 250.102 10.4501 249.578 9.09526C249.181 10.0473 248.819 9.09526 248.44 10.1938C248.133 9.82761 248.349 9.49805 248.114 9.13187C246.046 9.25029 243.981 8.8345 242.114 7.92349C242.114 8.3629 241.825 8.74739 242.114 8.784C240.615 7.87697 238.827 7.59473 237.127 7.99672C236.729 8.39952 236.349 7.08128 235.952 7.19113C235.952 7.41084 236.06 7.64885 235.952 7.86856C235.446 7.46576 234.813 6.97142 234.145 7.66716L233.657 6.58693C231.885 7.03107 230.013 6.76198 228.434 5.83627C228.434 6.00105 228.434 6.18414 228.325 6.34892C225.343 5.287 222.289 5.76303 219.289 5.01237C218.783 6.03767 216.741 4.81097 215.422 4.68281C214.717 4.68281 214.139 5.19546 213.614 4.28001L213.235 4.92082C212.946 3.62089 212.114 5.25038 211.554 4.00538C210.072 5.06729 208.066 3.36456 206.313 4.18847L206.006 3.45611C203.747 4.42648 201.651 2.76037 199.374 3.76736C198.488 2.57728 197.404 4.15185 196.5 2.99839C195.886 3.91383 195.38 2.63221 194.693 3.41949C193.2 2.68853 191.488 2.55769 189.904 3.05331C186.398 2.32096 182.783 3.2364 179.295 2.4125L178.898 3.035C178.735 3.18147 178.753 2.72375 178.898 2.50405C176.982 2.85191 175.645 2.59559 173.693 2.99839L173.422 2.26603C173.06 2.26603 173.187 3.49273 172.681 2.83361C172.681 2.48574 172.825 2.70544 172.97 2.35757C172.753 2.11956 172.374 2.24772 172.337 2.77868C158.458 1.40551 144.741 3.08993 130.771 2.46743L130.464 2.92515C128.657 2.13787 126.56 3.56596 124.789 2.32096C124.446 2.46743 124.03 3.56596 124.084 2.50405C123.999 2.63626 123.882 2.74483 123.745 2.81998C123.608 2.89512 123.454 2.93447 123.298 2.93447C123.142 2.93447 122.989 2.89512 122.851 2.81998C122.714 2.74483 122.598 2.63626 122.512 2.50405L122.078 3.10824C121.446 2.94346 120.813 2.59559 120.072 3.10824C117.036 1.80831 113.548 3.65751 110.621 1.42382L109.988 1.91816C110 1.67537 109.916 1.4377 109.755 1.25744C109.594 1.07717 109.369 0.969081 109.13 0.956941C108.89 0.944802 108.655 1.02961 108.477 1.1927C108.299 1.3558 108.193 1.58382 108.181 1.82661C108.054 1.49705 108.181 1.24073 108.036 0.911169C107.657 2.15618 107.458 1.31397 107.259 0.911169C106.301 1.84492 105.343 1.40551 104.241 1.20411C104.131 0.928011 104.131 0.619693 104.241 0.343593C104.006 0.123886 103.789 1.49705 103.41 0.654844C103.41 0.801316 103.41 1.00271 103.41 1.1858C103.102 1.44213 102.94 0.764698 102.578 1.49705C102.512 1.39707 102.476 1.27909 102.476 1.15834C102.476 1.03759 102.512 0.919614 102.578 0.819624C102.399 1.04453 102.169 1.22318 101.909 1.34093C101.648 1.45867 101.363 1.51218 101.078 1.49705C100.97 0.599917 101.44 1.09426 101.747 0.618226C100.74 1.11888 99.7013 1.5531 98.6386 1.91816L98.3494 0.966096C98.5301 0.21543 98.0422 1.33227 98.3494 1.68014C97.7711 2.44912 97.3554 2.17448 96.5422 2.65052C96.5422 1.89985 95.8735 2.08294 96.3615 1.55198C96.1085 1.24073 95.9277 2.50404 95.5121 1.35058C95.0241 1.97309 95.6567 1.91816 95.747 2.10125C95.0241 2.88853 94.5543 1.95478 93.7952 2.85191C93.7952 2.59559 93.9398 2.4125 94.0663 2.2111C93.9217 1.97309 93.6687 2.50404 93.6145 1.73507C93.6145 2.70544 93.253 2.04632 92.8374 2.76037C91.5542 1.1858 89.3856 4.40817 88.3555 2.24772C87.8494 3.71243 86.982 3.25471 86.4036 3.47442C86.5844 2.39419 87.1808 3.32795 87.5783 2.72375C87.5783 2.37588 87.3253 2.50404 87.235 2.11956C87.7952 1.75338 88.4277 0.856242 89.0422 0.636535C88.735 2.46743 90.3073 0.911169 90.5964 0.636535C89.7289 -0.407073 88.0482 -0.132439 86.982 1.20411C86.982 0.89286 87.2169 0.691462 87.3615 0.435137C86.8193 0.544991 85.7169 0.435137 85.4639 1.84492C85.1024 2.11956 85.3555 1.14918 85.1928 0.89286C84.0542 1.79 83.3856 1.66183 82.1567 2.72375C81.4298 2.484 80.6516 2.45288 79.9083 2.63386C79.165 2.81484 78.4858 3.20084 77.9458 3.74905C77.4199 3.62504 76.8687 3.67348 76.3718 3.88737C75.8748 4.10126 75.4577 4.46956 75.1808 4.93913C73.6265 3.89552 70.0844 7.59392 68.3133 4.68281C68.494 6.95311 66.8314 5.63487 66.6506 7.57562C66.2169 7.31929 65.4036 9.1868 65.1687 7.85025C64.7805 8.19913 64.3226 8.45922 63.8263 8.61285C63.33 8.76647 62.8069 8.81002 62.2925 8.74053C61.7781 8.67105 61.2845 8.49016 60.8453 8.21016C60.406 7.93017 60.0315 7.55763 59.747 7.11789C59.3703 7.56637 59.1426 8.12373 59.0964 8.71077C58.7711 8.83893 58.5362 8.50937 58.3735 7.79532C57.9759 8.50937 57.7771 8.08827 57.5241 8.06996C57.253 8.96709 57.0181 8.784 56.6928 9.60791C56.7832 10.0839 57.0904 9.40651 57.1988 9.75438C56.8298 9.9844 56.4147 10.128 55.9839 10.1748C55.5531 10.2215 55.1175 10.1702 54.7087 10.0246C54.3 9.87894 53.9285 9.64268 53.6214 9.33302C53.3144 9.02336 53.0794 8.64814 52.9338 8.23474C52.5542 9.44312 52.0121 9.60791 51.488 9.20511C50.3849 10.9866 48.7337 12.3506 46.7892 13.0866L46.482 11.9148C46.482 13.0317 45.5603 12.5556 45.0723 13.0683C45.0543 12.8488 45.0916 12.6283 45.1808 12.4275C43.77 12.3943 42.402 12.9198 41.3675 13.8922C40.508 13.8324 39.6462 13.9656 38.8433 14.282C38.0405 14.5985 37.3165 15.0906 36.7229 15.7231C36.3073 15.54 35.6205 15.8146 34.9157 16.2174C34.8231 16.1788 34.7191 16.1788 34.6265 16.2174C34.6265 16.309 34.5 16.4371 34.4277 16.547C33.8675 16.9132 33.3253 17.316 32.982 17.554C31.4924 18.4393 30.1506 19.5577 29.0061 20.8679C29.3314 20.9777 29.2229 21.5453 29.3133 22.0397C29.4036 22.534 29.0241 22.2777 28.8976 22.2594L29.0603 22.058C28.5407 21.4536 28.2522 20.6806 28.247 19.8792C25.5362 19.8792 24.4338 25.6282 21.6687 25.3719C22.0302 27.6422 20.8735 28.6309 21.4518 30.7181C21.3534 30.6946 21.25 30.7054 21.1582 30.7485C21.0665 30.7917 20.9917 30.8648 20.9458 30.9561C21.2234 32.4972 21.1115 34.0844 20.6205 35.57C20.6205 35.9727 20.9639 35.6981 20.982 36.046C20.5663 36.046 20.6205 37.0164 20.4579 37.5107C20.2952 38.005 20.9277 37.5107 20.9458 37.9867C21.0542 39.4148 21.1808 40.6598 21.3253 41.8133C21.3253 41.8133 21.1988 41.7034 21.1627 41.6119C20.1326 42.802 17.8735 40.7697 17.0783 43.6625C16.5 43.0949 15.9579 44.5047 15.5422 43.8639C15.6506 43.278 15.9579 43.5526 16.0482 42.7837C15.1062 43.1697 14.2616 43.7648 13.5766 44.5253C12.8917 45.2858 12.3838 46.1922 12.0904 47.1778C12.3073 47.8003 12.7952 48.4777 12.4699 49.2833C13.0663 50.2537 14.2771 50.3269 14.0964 52.5057C14.6567 51.6818 15.235 52.2311 15.5241 51.1875C15.4338 50.9861 15.253 51.279 15.0904 51.4072C15.0904 50.7114 15.235 50.9861 15.5422 50.6565C15.6326 51.3706 15.8314 51.6086 16.1024 51.5536C16.1773 51.7547 16.1843 51.9752 16.1221 52.1806C16.06 52.3861 15.9323 52.5648 15.7591 52.6888C15.9579 52.8719 16.2109 52.7803 16.3012 52.3409C16.6085 53.6958 18.1085 52.9634 19.0844 52.5423C19.753 54.3732 21.235 52.5423 22.5 51.5353L22.5904 51.9381C21.8314 53.6042 20.7832 53.4211 20.0783 54.4831C20.0783 55.014 20.4217 54.6662 20.4579 55.3253C22.0663 54.0986 22.8976 54.5563 24.0723 54.2084L24.253 54.6478C23.6454 54.927 23.1307 55.3785 22.7711 55.9478C22.9157 56.5337 23.2771 55.9478 23.4217 56.5154C23.4217 55.783 23.7109 55.6731 23.9639 56.1675C23.9708 55.7087 24.0628 55.2553 24.235 54.8309L24.3615 54.9225C24.5622 55.4759 24.8358 55.9994 25.1747 56.4787C24.8494 57.4491 25.7169 58.5476 25.3555 59.6462C25.6446 59.6462 25.8253 59.6462 25.8434 60.1222C25.5723 60.1222 25.3916 60.1222 25.3374 60.6166C25.9518 60.4152 25.5542 61.7334 25.5723 61.8249C25.8795 63.6558 26.8735 65.2304 27.0723 67.4092C25.735 68.3063 24.5241 65.1389 23.4579 66.4388C23.0241 65.7614 22.3193 65.6149 22.2651 64.2417C22.6627 64.2417 23.0061 64.0769 23.0241 63.2713C22.3014 62.2947 21.2667 61.6023 20.0964 61.3123C19.9699 59.1518 18.2892 59.7927 17.4217 59.1152C17.4217 58.6392 17.7651 58.804 17.6928 58.1448C16.1869 58.388 14.6464 58.0339 13.3916 57.1562C12.9579 54.3183 10.1747 54.8859 10.1747 52.0297C9.59642 51.7367 8.96389 51.5353 8.72895 50.565C9.1094 49.3825 9.30454 48.1469 9.30726 46.9032C9.0181 45.5849 7.98798 45.6582 7.50003 44.7061C7.50003 45.6216 6.68678 46.3722 6.25304 45.6582C6.25304 45.1821 6.63256 45.1089 6.75907 44.7061C6.32533 43.2414 6.46991 42.033 6.12654 40.5683C5.72895 40.5683 5.09642 40.9528 5.0422 39.8176C5.25907 39.6712 5.53015 40.5317 5.65666 39.8176C5.25907 39.8176 5.31328 38.9022 4.95184 38.8289C4.95184 40.4584 4.46389 38.8289 4.21087 38.8289C3.84943 39.3782 4.21087 40.0373 3.92172 40.7697C2.3675 40.9345 1.40967 36.2474 0.307259 38.536C0.451838 38.8839 0.831356 38.7923 1.15666 38.7923C1.85311 40.665 2.80842 42.428 3.99401 44.0287C3.88792 44.3405 3.83892 44.6694 3.84943 44.999C4.28316 44.8709 4.5181 44.3582 4.96991 44.285C5.13256 44.761 5.29521 45.2371 5.81931 45.0174C5.27714 46.1342 6.16268 46.0793 6.12654 46.9764C5.72895 47.3243 5.78316 47.4341 5.85545 48.4228C5.60244 48.4228 5.67473 49.0819 5.34943 48.8988C4.21639 48.1198 2.92596 47.6069 1.57232 47.3975C2.06027 49.027 3.25304 49.3383 4.08437 50.3453C3.87147 51.8614 4.17762 53.4057 4.95184 54.7211C5.34943 55.0323 5.07834 53.9521 5.45786 54.245C5.76509 56.6984 6.88557 58.6026 6.52413 61.5686C4.98798 61.3672 4.93377 64.2417 3.36148 63.9671C3.36148 65.0473 2.83738 65.2487 2.6928 66.1275C2.74526 66.4759 2.86173 66.8113 3.03618 67.1162C2.9618 67.5824 2.73222 68.0088 2.38557 68.3246C1.91569 71.4921 3.61449 70.8329 3.50605 73.3229C2.40365 73.9271 0.831356 73.5427 3.05176e-05 74.7327C0.46991 74.9341 0.632561 76.5636 0.180753 77.1678C0.849428 77.9368 0.885573 79.8958 1.59039 80.5916C2.85545 79.3832 2.85545 76.6185 4.31931 75.52C5.02413 79.4198 8.6928 78.9255 9.74099 79.6944C9.59642 79.5846 9.48798 79.3832 9.50606 78.9621C10.1205 78.7607 10.3916 79.2001 10.735 79.4564C10.735 78.4861 11.3675 79.0536 11.5121 78.4861C11.3776 78.367 11.2743 78.2161 11.2112 78.0468C11.1481 77.8775 11.1273 77.6951 11.1506 77.5157C13.1024 77.6622 14.2048 76.1791 16.1567 75.8496C16.1567 75.5566 16.1567 75.1538 16.3012 75.1172C18.9398 75.3735 20.7109 74.1835 23.1506 73.6891C23.1506 73.4145 23.1506 73.0117 23.2952 72.9751C23.7274 73.2763 24.2349 73.4477 24.7591 73.4694C24.6687 73.4694 24.6326 73.268 24.6506 72.9751C26.5663 73.3779 29.1145 72.0596 29.4398 75.6482C29.2771 75.3735 29.1506 75.3919 29.0603 75.8862C29.363 76.1516 29.5813 76.502 29.6874 76.8931C29.7936 77.2842 29.7829 77.6983 29.6567 78.0833C30.2892 77.772 30.6868 79.2184 30.3615 80.024C30.4619 80.3367 30.4988 80.6668 30.4699 80.9944C30.8675 81.1958 30.7229 81.1958 30.9759 80.7381C30.9649 80.987 31.0017 81.2357 31.0844 81.4704C30.8856 81.4704 30.6506 81.4704 30.7048 81.9648C31.5542 81.745 30.8675 83.045 31.1747 83.6675C31.6627 83.5393 31.5 82.1478 32.1868 82.4408C31.8976 82.9717 32.1868 83.3928 32.1868 84.1435C32.1868 84.1435 31.7169 83.5393 31.6808 84.1435C32.0061 84.1435 31.8795 85.0406 32.0422 85.3519C32.1401 85.3645 32.2395 85.3489 32.3291 85.3068C32.4186 85.2647 32.4946 85.1978 32.5482 85.1139C32.0783 85.9927 33.1808 85.1139 32.8916 86.3223C32.0783 85.6815 31.3735 86.1026 30.5241 86.5786C30.235 84.9308 28.7169 85.535 28.4639 83.9055C28.626 83.7797 28.7561 83.6165 28.8434 83.4295C28.5723 83.2281 28.5362 82.5689 28.3555 82.2028C27 82.5323 26.8916 78.541 25.4458 78.3213C25.4458 79.6395 24.7591 79.6761 24.1808 79.2916C24.1808 80.5 23.7651 80.2071 23.2952 80.0057C23.5302 82.2943 22.1747 82.5323 22.5904 84.3815C22.4458 84.0703 22.1386 84.052 22.1024 84.6195C22.0663 85.1871 22.6988 84.6195 22.5723 85.3519C22.5723 85.7181 22.2832 85.5716 22.0844 85.5899C22.0844 88.1349 23.5482 88.0067 24 89.7277C22.0121 91.1009 21.1627 87.5673 19.5362 88.2447V87.2743C18.0723 86.304 18.0723 90.3319 16.8073 89.801C16.2907 91.1209 15.3479 92.2245 14.1326 92.9318C14.241 93.243 13.3374 93.6642 13.2289 94.3782C11.1506 94.3782 13.1024 98.9737 12.7229 100.457C13.2397 101.365 13.6003 102.356 13.7892 103.386C13.3193 103.386 13.4097 103.826 13.6446 104.1H13.1386C13.1386 105.62 12.6868 105.675 13.1386 106.535C14.3856 105.821 15.488 106.883 15.9759 108.97C15.7771 108.97 15.8675 109.593 15.5964 109.465C15.4518 110.563 16.2109 110.032 16.1928 110.929C15.3253 110.563 15.2711 108.732 14.494 108.238C14.494 108.934 14.2952 108.879 14.3314 109.446C14.5663 109.446 14.6205 109.19 14.8374 109.208C14.5844 109.684 15.0723 109.959 15.0542 110.673C15.6145 110.673 15.5241 111.076 16.0482 111.405C16.0482 111.003 16.8073 110.6 16.9338 111.167C16.1567 111.076 17.1326 111.845 16.5362 112.138C17.6024 112.541 17.9097 113.2 18.5241 113.127C18.2538 113.366 18.0426 113.666 17.9077 114.003C17.7727 114.34 17.7177 114.705 17.747 115.067C18.0723 114.902 17.9639 115.562 18.1085 115.8C19.6988 116.294 20.2952 118.747 22.1928 119.223C21.6687 120.542 20.5302 119.736 19.2832 120.175C18.9227 120.985 18.7556 121.87 18.7952 122.757C20.1506 122.556 21.8314 124.588 23.3314 123.013C24.1446 124.533 26.1687 122.226 27.6145 122.775C27.8606 122.849 28.1194 122.868 28.3736 122.833C28.6278 122.797 28.8716 122.707 29.0887 122.568C29.3059 122.43 29.4914 122.246 29.6329 122.029C29.7745 121.812 29.8688 121.567 29.9097 121.311C31.7169 121.439 33.5241 120.67 35.8374 120.578C35.982 121.201 35.4398 121.622 35.9458 121.549C36.6145 120.285 38.0783 121.054 38.7289 120.322C36.6145 120.139 34.7169 119.608 32.5844 119.608C32.5844 119.26 32.3856 119.205 32.3314 118.876C33.6868 119.388 35.5482 115.781 35.2591 117.649C35.3856 117.338 35.9097 118.308 36.3795 118.143C36.7229 115.964 37.6808 118.143 38.5121 117.887C38.5121 117.264 39 117.704 38.9097 116.916C38.8193 116.129 38.4398 116.239 38.4217 115.47C39.2169 113.786 40.0301 114.921 41.2048 114.738C41.2048 115.086 41.3494 115.141 41.2048 115.452C41.5121 115.287 42.4157 114.756 42.3253 115.946C41.7109 116.422 42.1085 115.946 41.7109 115.708C41.5833 115.994 41.5496 116.313 41.6147 116.62C41.6797 116.926 41.8401 117.204 42.0723 117.411C41.6747 117.887 41.6928 119.132 41.1687 119.352C41.2925 119.36 41.4095 119.412 41.4988 119.499C41.5881 119.586 41.6441 119.703 41.6567 119.828C41.5663 120.377 41.1687 120.359 41.1326 121.054C41.6024 120.761 42.1988 120.944 42.7771 121.53C42.7771 120.249 43.5723 120.688 43.7892 120.798C43.6265 121.475 43.2651 121.604 42.9036 121.292C43.1205 122.391 42.3976 121.622 42.5061 122.501C43.0121 122.867 44.4217 119.846 45.0362 122.006C43.9157 121.622 43.6808 122.977 42.994 123.471C42.8133 124.917 42.994 125.503 43.3555 125.833V125.174C43.6265 125.064 43.6988 125.339 43.8615 125.412C44.0241 125.485 43.6988 125.851 43.8615 125.906C43.8615 126.492 43.6627 125.668 43.3916 125.906C43.8253 126.272 44.4398 126.291 44.8555 126.913C45.9398 126.565 47.5482 127.938 48.4699 127.115C48.0904 126.822 47.2229 127.261 47.0964 125.906C47.3856 124.698 47.8374 126.51 47.982 125.412C47.4398 125.101 47.1868 125.668 46.988 124.698C47.1506 124.698 47.0964 124.277 47.241 124.203C47.5502 124.361 47.8083 124.605 47.9845 124.907C48.1607 125.209 48.2477 125.556 48.235 125.906C48.235 125.137 48.5964 126.51 48.6145 125.65C48.4338 125.448 48.4338 124.881 48.3795 124.441C47.747 124.441 47.3494 124.148 47.2591 123.233C48.1808 121.951 48.9217 123.233 49.6627 121.75C49.7711 122.299 50.5482 122.739 50.7832 122.226C50.5663 122.226 50.494 121.988 50.5482 121.512C51.9598 122.207 53.498 122.6 55.0663 122.665C54.6145 123.398 54.3434 123.032 53.8012 123.416C54.0542 123.801 54.4518 123.929 54.5422 124.625C54.3097 124.842 54.1227 125.105 53.9923 125.398C53.8619 125.69 53.7908 126.006 53.7832 126.327C53.0783 126.529 52.6265 127.407 51.8856 126.84C52.1386 127.884 52.735 127.316 53.1506 127.06C53.1506 127.298 53.1506 127.353 53.2591 127.554C52.7905 128.966 52.734 130.486 53.0964 131.93C50.494 133.211 48.3795 130.319 45.7771 131.747C44.8555 131.527 43.9699 130.19 42.5061 130.557C42.5061 129.971 42.2892 130.026 42.3976 129.348C41.2771 129.934 40.247 129.183 39.5061 128.378C39.3615 130.044 38.4398 127.847 37.988 128.616C37.988 128.268 37.8434 128.213 37.988 127.884C37.0121 129.421 36.4157 126.327 35.2229 127.169C35.7651 127.353 34.735 128.488 35.7109 128.378C35.8916 127.829 35.4036 127.462 35.7109 127.407C35.7109 128.891 36.7049 128.579 37.0663 129.843C37.7892 128.488 38.4759 129.843 39.4699 129.843C39.5603 130.3 39.7591 131.783 40.0844 131.051C39.5603 131.161 40.1928 130.19 40.2289 129.824C40.9518 129.824 41.6024 130.575 42.235 130.795C41.982 131.93 42.0181 131.545 41.4759 131.289C41.5494 131.774 41.5494 132.268 41.4759 132.754C42.0542 133.047 42.0904 132.296 42.3615 132.021C42.1627 133.633 43.8073 132.644 44.1687 133.468C44.1687 132.937 44.2771 132.699 44.5663 132.735C44.5663 133.083 44.4217 133.156 44.5663 133.449C43.8824 133.798 43.2346 134.215 42.6326 134.694C42.4254 134.656 42.2296 134.57 42.0604 134.443C41.8912 134.316 41.753 134.152 41.6567 133.962C41.6567 133.614 41.8735 133.559 41.9097 133.23C41.0964 133.23 40.8615 134.072 40.1024 134.694C40.6446 134.53 41.2771 134.878 40.735 135.427L40.9157 135.537C40.4129 135.758 39.9292 136.021 39.4699 136.324C38.4759 136.837 37.6627 136.928 36.8856 137.368C36.4518 137.368 36.0542 137.368 35.7832 136.397C36.1265 135.775 36.4518 136.544 36.9217 136.397C36.9217 135.738 37.1747 135.903 37.1928 135.427C36.7771 135.628 34.988 135.83 35.5663 134.218C35.0964 134.438 34.8976 133.779 34.6808 134.218C34.4639 135.244 35.3314 134.218 35.2952 134.951C34.4097 135.573 34.2832 136.672 33.6145 137.368C34.482 137.825 34.8615 136.287 35.2771 136.653C33.4699 139.803 29.7651 136.452 27.5422 137.148C27.7771 137.148 27 137.807 26.6567 137.386C27.0181 138.869 28.4639 139.217 29.0061 141.048C29.5482 141.048 29.9097 141.542 30.1265 142.256C30.2246 142.271 30.3249 142.256 30.4149 142.214C30.5048 142.172 30.5805 142.104 30.6326 142.018C30.6754 142.358 30.8117 142.679 31.0257 142.944C31.2398 143.21 31.5231 143.409 31.8434 143.519V143.519C31.6808 143.757 31.3374 143.629 31.2651 143.721C30.631 144.627 30.0574 145.575 29.5482 146.559C29.1993 146.533 28.849 146.533 28.5 146.559C28.7807 146.723 29.0859 146.841 29.4036 146.906C27.5964 150.477 26.1687 154.578 23.7832 156.702C23.5547 158.481 23.235 160.247 22.8253 161.993C22.5904 162.799 22.0482 163.33 21.8856 164.153C21.253 167.174 21.8856 171.019 20.6747 173.308C20.6664 173.805 20.7397 174.3 20.8916 174.773C20.8916 180.815 21.4338 185.904 21.1627 190.573C22.0302 193.338 21.8675 196.542 22.5362 199.142C22.9518 200.771 23.747 202.291 24.3434 203.847C24.9398 205.403 25.5723 206.978 26.1506 208.772C26.1506 210.603 26.9097 210.933 27.0723 212.434C27.994 213.551 28.6988 215.107 29.6205 216.096C29.7922 216.656 29.9073 217.233 29.9639 217.817C31.9338 220.911 33.9217 224.719 36.5964 225.891C36.9245 226.055 37.2801 226.154 37.6446 226.184C39.6145 226.184 42.6687 226.697 43.7169 229.132C44.0783 229.315 44.0603 228.729 44.4217 228.912C44.6567 230.084 45.7048 232.263 46.6265 232.171C46.9338 232.171 47.4759 230.597 48.1446 230.34C49.1747 229.919 50.1506 232.006 51.0723 231.695C51.488 231.53 51.9217 230.121 52.3555 229.864C53.0654 229.564 53.832 229.426 54.6006 229.461C55.3691 229.496 56.1206 229.702 56.8012 230.066C57.5603 230.432 57.8675 231.585 58.4277 231.347C58.988 231.109 59.3314 229.864 59.2771 227.978C60.7229 223.859 64.5904 226.99 66.8856 225.177C68.5844 226.624 70.1747 224.17 71.8012 224.426C72.1265 224.426 72.5061 224.976 72.8494 224.957C73.1928 224.939 74.1326 224.133 74.8374 223.841C76.0482 223.31 77.1145 223.419 78.1085 222.76C79.6808 225.177 80.8012 222.376 82.0844 222.467C82.5723 222.467 83.0603 223.273 83.6024 223.255C84.1446 223.236 84.5061 222.541 85.0121 222.596C85.5181 222.65 86.0422 223.419 86.5302 223.401C87.0181 223.383 87.1808 222.907 87.4699 222.943C87.7591 222.98 88.1024 223.584 88.5181 223.493C88.9338 223.401 89.3675 222.431 89.8012 222.321C91.3916 221.918 93.1265 222.907 94.6085 221.094C97.3374 222.577 99.6868 220.124 102.904 221.717C103.699 221.204 104.295 220.856 105.127 221.332C105.307 221.149 105.307 220.563 105.596 220.618C107.277 221.314 109.012 219.263 110.747 220.124C110.781 219.873 110.86 219.631 110.982 219.41C112.099 220.015 113.351 220.318 114.618 220.289C115.884 220.261 117.122 219.901 118.211 219.245C119.675 220.453 121.337 219.044 123.127 218.989C123.958 218.989 124.789 219.611 125.584 219.337C127.121 218.806 129.199 219.337 130.608 219.08C131.042 219.08 131.476 218.275 131.892 218.165C132.687 217.945 133.518 218.641 134.349 218.275C137.548 216.865 141.253 217.78 144.054 217.744C144.922 217.744 145.663 216.938 146.639 216.645C148.247 216.169 149.928 217.451 151.536 217.121C151.952 217.121 152.349 216.554 152.711 216.444C153.687 216.169 154.518 216.627 155.639 216.572C158.133 216.444 160.645 215.071 163.012 216.187C165.994 214.558 170.386 215.016 173.855 214.723C174.633 213.404 175.374 214.521 176.187 214.357C178.681 213.807 181.861 212.269 184.5 213.276C195.488 210.805 206.964 211.72 217.843 208.955C218.693 209.962 220.012 209.303 220.753 208.608C220.916 209.23 221.422 209.193 221.801 209.377C223.157 207.747 224.892 209.047 226.608 208.626C227.024 207.051 228.072 208.223 228.723 207.015C228.994 207.893 228.343 207.765 228.831 208.241C229.916 205.367 233.693 206.667 235.392 205.861C235.265 205.861 235.247 205.44 235.392 205.385C235.807 206.081 235.988 204.671 236.44 204.708C239.512 204.342 241.681 201.504 244.301 200.442C244.627 200.845 245.512 202.053 245.819 200.991C245.331 200.826 244.735 200.991 244.771 199.728C245.225 199.866 245.713 199.83 246.143 199.628C246.573 199.425 246.914 199.07 247.102 198.629C248.078 198.501 248.584 199.124 249.452 198.245C249.669 198.245 249.235 197.018 249.687 197.036C251.06 197.659 251.729 196.597 252.958 197.183C253.301 196.066 254.765 195.718 255.181 196.322C255.578 195.828 254.747 195.388 255.072 195.096C256.175 194.729 257.205 194.253 258.235 195.096C258.488 194.565 258.651 193.851 259.066 193.667C259.482 193.484 259.066 194.766 259.41 194.418C259.789 193.777 259.084 193.301 259.175 192.459C259.735 192.056 259.627 191.47 259.898 190.793C260.675 191.452 261.181 190.079 261.886 189.676C262.59 189.273 263.404 189.676 264.108 189.292C264.813 188.907 264.958 188.12 265.627 188.138C266.295 188.156 266.657 189.017 267.271 188.944C267.596 188.742 267.036 188.047 267.506 187.973C269.636 187.905 271.687 187.148 273.361 185.813C270.94 187.735 269.151 185.813 267.036 187.479C266.711 186.381 266.096 188.156 265.753 186.692C265.608 187.314 266.114 187.754 265.627 187.662C265.482 187.662 265.41 187.296 265.175 187.388C265.464 186.088 265.012 186.088 264.831 185.19C263.024 185.19 261.596 185.904 260.024 185.941C259.735 186.252 260.241 186.673 259.916 186.911C259.59 187.149 258.849 186.911 258.108 187.314C257.892 186.344 257.422 185.886 257.657 184.623C259.771 184.623 262.645 182.792 265.157 182.536C265.916 182.536 266.711 183.433 267.145 181.895C266.024 182.371 265.102 180.686 264.108 180.54C263.114 180.393 261.488 181.895 260.241 181.584C259.898 181.584 259.753 181.053 259.428 181.053C259.102 181.053 258.777 181.785 258.488 181.748C258.199 181.712 258.163 181.181 257.91 181.236C257.657 181.291 256.988 182.151 256.392 182.133C255.398 182.133 254.422 181.199 253.355 181.51C253.259 181.233 253.221 180.939 253.242 180.646C253.264 180.352 253.346 180.067 253.482 179.808C254.417 179.853 255.354 179.816 256.283 179.698C256.139 179.588 256.048 179.368 256.048 178.965C256.464 178.965 256.608 179.332 256.88 178.746C255.904 178.746 255.976 176.915 256.301 176.054C258.723 176.366 261.723 175.468 263.675 176.054C263.874 175.542 264.018 174.846 264.38 174.626C266.602 174.004 269.114 174.626 271.5 173.985C268.753 172.557 265.916 173.454 262.735 173.985C262.608 173.766 262.735 173.088 262.392 173.253C261.113 173.69 259.781 173.948 258.434 174.022C257.964 172.997 257.512 171.953 257.078 170.891C257.195 170.391 257.195 169.871 257.078 169.372H257.91C258 171.202 258.94 171.44 260.024 171.349C259.983 170.891 260.098 170.432 260.349 170.049C260.349 169.921 261.994 171.88 261.163 171.349C262.5 172.1 264.687 171.642 264.94 170.397C265.193 172.228 266.096 170.946 266.892 171.715C267.012 171.261 267.175 170.819 267.38 170.397C267.38 170.781 267.38 171.331 267.542 171.385C267.542 169.738 268.048 171.495 268.355 171.385C268.898 170.745 268.355 169.738 268.861 169.426C269.187 169.738 268.988 171.111 269.512 171.056C269.675 170.452 269.024 169.957 269.512 169.756H269.837C269.905 170.305 269.85 170.862 269.675 171.385C270.615 170.804 271.683 170.471 272.783 170.415C273.036 169.262 272.223 170.214 272.295 169.445C274.825 170.269 277.374 170.122 278.837 168.163L280.807 169.134C280.952 166.039 283.771 168.31 284.422 166.204C283.861 165.637 283.193 166.772 282.614 165.875C283.229 165.49 283.482 165.344 283.265 163.915C283.861 165.124 283.825 161.7 284.584 163.256C284.584 162.689 284.349 162.414 284.584 162.268C284.819 162.121 285.271 162.451 285.398 162.927C284.711 162.927 285.398 163.439 285.398 163.915C285.321 164.058 285.198 164.168 285.05 164.229C284.901 164.289 284.737 164.295 284.584 164.245C284.506 164.901 284.555 165.567 284.729 166.204C285.034 166.248 285.346 166.213 285.634 166.1C285.921 165.988 286.176 165.803 286.374 165.563V163.915C287.331 164.19 287.277 162.432 288.018 162.286C287.892 160.711 288.235 160.089 288.849 159.997C289.048 158.258 288.705 157.379 289.355 156.72C289.012 156.72 289.193 155.493 288.867 155.42C288.867 156.574 288.325 154.706 288.361 155.731C288.542 155.731 288.759 156.281 288.524 156.391C288.416 155.75 287.621 156.391 287.548 155.731C288.904 154.45 288.434 151.392 289.861 150.495C289.952 151.063 290.349 151.044 290.512 151.484C290.675 151.923 290.295 153.644 290.657 153.772C290.837 153.113 290.982 152.454 291.163 151.813C291.163 152.546 292.03 151.813 292.139 152.472C292.139 151.484 292.717 151.648 293.133 151.502C292.681 149.909 293.946 150.184 293.964 148.554C293.703 148.637 293.42 148.615 293.174 148.492C292.928 148.369 292.739 148.156 292.645 147.895C292.499 148.805 292.219 149.688 291.813 150.513C291.614 150.513 291.596 150.092 291.325 150.184C291.325 150.751 291.578 151.008 291.325 151.154C291.054 150.056 290.675 150.056 291.163 151.154C289.771 150.916 290.277 148.939 289.536 147.492C290.115 148.06 291.199 147.492 290.855 146.192C291.398 146.852 292.41 146.192 292.825 145.533C293.151 145.643 293.133 146.43 293.476 146.522C294.289 145.643 294.687 143.94 295.446 142.86C295.373 141.983 295.373 141.101 295.446 140.224C294.795 140.022 294.741 138.613 294.145 138.265C293.874 138.704 292.861 139.363 292.681 138.905C293.426 136.109 293.981 133.265 294.343 130.392C293.855 129.934 293.458 130.538 292.861 130.721C292.578 129.304 292.548 127.847 292.771 126.419C292.934 126.675 293.386 127.993 293.584 127.078C293.458 127.078 293.259 127.078 293.259 126.748C293.422 126.748 293.458 126.492 293.584 126.419C293.855 126.968 294.56 126.693 295.066 126.748C295.658 123.494 295.615 120.154 294.94 116.916C295.771 116.202 294.94 115.8 295.59 114.628C294.867 114.921 294.38 115.708 293.621 115.928C293.855 114.628 293.621 112.559 294.614 112.669C294.695 112.324 294.693 111.964 294.608 111.62C294.523 111.276 294.358 110.957 294.127 110.691C294.444 109.995 294.622 109.242 294.651 108.476C294.784 108.414 294.897 108.316 294.98 108.194C295.063 108.071 295.111 107.928 295.121 107.78C294.962 107.794 294.815 107.865 294.705 107.982C294.795 106.297 294.705 104.32 294.813 102.819C294.601 102.649 294.434 102.429 294.325 102.178C294.578 101.226 294.199 100.548 294.669 99.2118C294.253 99.2118 293.874 99.2118 293.675 99.5413C293.928 98.9005 293.512 98.3879 294.018 97.9118C293.512 96.8499 293.747 95.5683 293.042 94.6162C293.042 95.2387 292.5 94.8542 292.554 95.6049C292.608 96.3556 292.952 95.2021 293.042 95.9345C293.133 96.6668 292.41 96.1908 292.536 97.2527C292.705 97.2683 292.864 97.3423 292.986 97.4623C293.107 97.5822 293.185 97.741 293.205 97.9118C292.482 98.1865 292.789 99.047 293.024 99.8709C291.904 101.189 291.56 99.3765 290.747 98.5526C291.018 97.4907 291.163 97.4907 290.584 96.9048C291.524 95.7514 290.114 92.7487 290.765 91.0094C290.548 90.6798 290.151 90.6981 290.114 90.0207C290.422 88.8123 289.952 83.759 288.741 82.5873C288.434 81.0127 287.928 79.5297 287.566 78.01C287.386 77.2227 287.205 76.527 287.024 75.8313C287.349 75.8313 287.44 76.3988 287.874 76.051C288.09 76.6735 287.584 76.2341 287.512 76.7101C288.054 77.4791 288.542 76.7101 289.084 77.296C289.268 76.812 289.348 76.294 289.319 75.7763C289.627 75.9411 290.205 75.6482 290.223 74.7693C290.639 75.1355 290.006 75.4468 290.422 75.813C290.837 76.1791 290.964 75.4102 291.253 76.0144C291.578 75.5933 291.253 75.1721 291.687 75.1905C291.994 75.7763 291.289 76.3073 291.361 76.8749C291.145 77.3875 290.91 75.7397 290.711 76.6918C290.819 77.4791 291.542 77.4058 291.904 76.9115C292.247 77.2594 292.03 77.6072 292.283 77.9551C292.735 77.3692 293.657 76.7101 293.837 77.4974C294 77.6805 294 77.2227 293.837 76.9847C294.181 76.8749 294.506 76.6552 294.868 77.534C295.066 76.8749 295.283 77.3326 295.482 76.6735C295.102 77.2411 294.669 75.4834 294.289 76.4904C294 75.6116 294.289 75.282 293.711 74.6595C294.199 73.506 294.398 74.7694 294.542 74.8426C294.867 74.0187 294.163 74.2201 294.145 73.4694C293.964 74.0187 293.783 74.0187 293.584 73.4694C293.367 74.1285 293.151 73.6708 293.151 74.3116C293.458 74.7144 293.711 74.3116 293.621 75.1905C293.422 75.5017 293.187 74.4581 292.988 74.9891C292.807 74.3299 293.205 74.1102 292.681 73.7807C292.898 74.9707 292.283 73.7807 291.958 73.7807C291.633 73.7807 291.958 72.9751 292.084 72.8835C291.795 72.6638 291.289 71.8582 290.928 72.2061C290.548 70.7048 290.006 71.6568 289.699 70.2654C289.247 70.5583 289.319 71.2907 288.813 71.254C288.705 70.9611 288.958 70.6865 289.066 70.4118C288.651 69.295 288.271 69.9358 287.874 69.4964C287.747 69.9358 287.874 70.1189 288.072 70.1921C287.837 71.0343 287.422 70.1921 287.44 71.016C287.44 70.8696 287.313 69.9358 287.078 70.3203C286.88 69.6612 287.078 69.8626 287.331 69.4781C286.843 68.8373 286.374 69.6428 285.867 68.3795C285.867 69.3499 285.596 69.0203 285.361 68.764L284.982 67.8303C285.136 67.9777 285.253 68.1595 285.325 68.3612C285.596 66.9331 286.464 68.1232 287.133 68.9471C287.113 68.4066 287.265 67.8739 287.566 67.4275C286.898 68.7091 285.596 66.2923 284.693 66.8965L284.53 66.4937C284.693 66.3289 284.855 66.0177 285.018 65.9261C285.027 66.1746 285.088 66.4182 285.199 66.6402C285.578 65.8895 285.669 65.8346 286.012 66.4937C286.518 65.8895 286.012 65.2304 286.446 64.6628C286.536 64.553 286.627 64.6628 286.717 64.498C287.042 64.9741 286.717 65.4135 286.717 65.8712C286.97 66.7134 287.205 65.8712 287.458 66.6036C287.639 66.3839 287.458 66.1458 287.458 65.9078C287.982 65.5233 288.56 67.1528 289.084 65.6332C290.078 66.274 290.801 65.6332 291.633 66.7867C291.922 65.9261 292.247 66.5853 292.536 66.4754C292.627 65.6515 292.536 65.4684 292.771 64.9375C292.458 64.5066 292.208 64.0317 292.03 63.5277C291.995 64.0021 291.879 64.4668 291.687 64.9008C291.307 65.1022 290.892 64.4797 290.53 65.3586C290.277 64.7178 290.892 64.1136 290.946 63.5277C290.711 63.07 290.042 63.6375 290.114 62.6305C289.5 62.3376 288.922 63.5643 288.307 62.2094C288.651 61.6968 289.012 62.0263 289.374 61.5686C289.121 61.4038 288.886 61.5686 288.633 60.8546C288.633 61.5686 288.47 61.5686 288.271 60.8546C287.602 62.0446 286.88 60.1588 286.193 60.5982C285.831 60.2321 286.193 59.9025 286.355 59.5729C286.121 58.9321 285.886 59.5729 285.633 59.1885C285.726 59.8395 285.954 60.4634 286.301 61.0193C286.316 61.3092 286.285 61.5996 286.211 61.8799C286.012 61.8799 285.795 61.7334 285.578 61.6785C285.47 61.3306 285.777 61.001 285.398 60.6349C285.163 60.9095 285.217 61.2024 285.127 61.4771C285.036 61.7517 284.892 61.2391 284.765 61.4771C284.53 60.7447 284.964 61.0926 284.928 60.4518C285.199 60.0307 285.488 61.0926 285.741 60.3236C284.53 59.9574 283.337 59.7194 282.127 59.4814C281.676 58.1451 280.914 56.939 279.904 55.9661C279.733 55.8074 279.519 55.7052 279.289 55.6731C278.436 55.7124 277.597 55.4345 276.932 54.8917C276.266 54.3489 275.819 53.5786 275.675 52.7254C275.458 52.5423 275.476 53.1282 275.259 52.9451C275.114 51.7733 274.482 49.5946 273.958 49.6861C273.777 49.6861 273.47 51.2607 273.072 51.517C272.675 51.7733 271.916 49.8509 271.374 50.1622C271.139 50.3269 270.868 51.7184 270.614 51.9931C269.946 52.817 268.554 52.2311 267.976 51.7367C267.398 51.2424 267.343 50.1988 267.018 50.4368C266.693 50.6748 266.476 51.9198 266.494 53.7873C266.475 53.9118 266.444 54.0344 266.404 54.1535C266.114 54.1535 265.843 54.1535 265.554 54.7028C265.735 54.5563 266.006 54.7028 266.223 54.7028C266.098 55.077 265.888 55.4159 265.608 55.6915C265.426 55.7023 265.25 55.7658 265.102 55.8745C265.039 55.6471 265.039 55.4063 265.102 55.1788C264.831 55.1788 264.56 55.5084 264.271 56.021H263.928C263.901 55.9017 263.904 55.7777 263.935 55.6596C263.967 55.5415 264.026 55.433 264.108 55.3436C263.042 55.6915 261.976 53.6958 260.892 55.4901C260.548 55.069 260.892 54.6845 260.621 54.2634C260.801 53.9338 260.982 54.538 261.163 53.9521C260.331 54.1718 259.355 55.1422 258.217 54.2817C258.072 55.014 258.904 54.8492 258.38 55.6548C257.91 54.9225 257.53 54.3 257.133 54.5563C256.861 55.6182 257.512 54.6478 257.747 55.1056C257.422 55.8379 257.096 55.3802 256.771 55.5633C256.768 54.9846 256.828 54.4073 256.952 53.8423C256.048 54.0437 255.38 55.2887 254.349 54.5197C254.349 54.2817 254.476 54.0803 254.349 53.8423C254.223 53.6042 254.042 53.6592 253.898 53.2747C253.572 53.9155 253.735 53.9521 253.355 54.2634C253.342 53.8781 253.223 53.5042 253.012 53.1831C252.56 53.5127 252.108 53.2747 251.675 53.1831C251.458 52.7254 251.946 52.6156 252.036 52.8719C251.693 51.7917 250.934 52.8719 250.663 53.9704C250.211 53.4761 250.663 53.0367 250.88 52.5972C250.247 52.5972 249.596 53.9155 248.982 53.3113C248.801 53.055 249.145 52.4874 249.289 52.7803C249.272 52.5603 249.183 52.3524 249.035 52.1898C248.888 52.0272 248.691 51.9193 248.476 51.8832C248.602 51.8832 249 51.7001 248.657 51.2058C248.837 51.041 249.018 51.6452 249.199 50.9128C248.91 50.2537 248.602 50.9128 248.313 50.4917C248.422 50.9678 248.169 51.81 247.861 51.3156C247.753 51.6452 248.006 51.4804 248.114 51.8466C247.597 52.1219 247.203 52.5868 247.012 53.1465C246.596 52.6339 247.229 52.2311 246.868 51.755C246.596 52.286 246.145 52.2494 246.127 53.055C245.368 52.7803 244.5 52.2311 243.994 52.5423C243.994 52.9268 243.994 53.3479 243.687 53.7141C243.416 52.7071 243.94 52.2311 243.199 51.8832C243.452 51.2058 243.669 51.7001 243.922 51.5903C243.922 50.7114 243.09 51.5903 242.765 51.3156C242.765 51.6086 242.765 51.9015 242.657 52.1761C242.368 51.7917 242.169 52.0297 241.952 51.0776C241.608 51.4621 241.825 51.8832 241.482 52.2494C241.139 52.6156 240.994 50.6931 240.506 51.9931C240.271 51.6269 240.506 51.2973 240.181 50.9311C240.398 50.4917 240.596 50.6931 240.813 50.8213C239.512 48.9904 237.361 50.4917 235.735 49.8509C235.75 49.3779 235.887 48.9171 236.133 48.5144C235.825 48.258 235.482 48.789 235.157 48.2397C234.976 48.6092 234.938 49.0332 235.048 49.4298C234.253 49.4298 232.843 47.5989 231.994 49.796C231.759 48.9904 232.319 49.2101 232.301 48.6242C231.901 48.6031 231.508 48.5036 231.145 48.3313C231.145 48.6059 231.145 48.8988 231.036 49.1735C230.44 49.4481 229.518 47.3426 229.229 48.8073C229.03 48.3862 229.229 47.9834 228.831 47.5623C228.542 47.7271 228.253 48.5144 228.018 47.5623C227.548 49.3932 226.5 46.9947 225.759 48.1848C225.759 47.8552 225.47 47.4708 225.633 47.1412C225.163 47.4708 224.711 48.0566 224.295 46.8299C224.114 47.2694 223.916 47.4158 223.753 47.4707C223.751 47.2235 223.696 46.9797 223.59 46.7567C223.59 47.2877 223.012 47.251 223.247 46.7567C222.94 47.2144 222.488 47.068 222 46.6285C222.09 47.3792 221.837 47.4158 221.512 47.4341C221.187 47.4524 221.621 46.9947 221.729 46.775C221.295 46.4638 220.825 46.775 220.41 46.4638C220.771 45.6582 220.861 46.6652 221.06 45.6582C220.789 45.4751 220.536 45.1638 220.265 45.4018C220.265 45.1089 220.446 44.8526 220.572 44.5779C220.898 44.5779 221.169 45.7863 221.53 44.8526C221.133 45.0357 221.349 43.6625 220.952 43.9371C220.952 43.1498 221.205 43.1132 221.512 42.9484C221.657 43.3696 221.512 43.754 221.386 44.1568C221.711 44.6512 221.855 43.7907 222.036 43.3512C222.325 43.3512 222.633 43.1315 222.904 43.7907C222.253 43.5526 222.38 44.8343 221.91 44.5413C221.711 45.1638 222.452 44.9075 221.91 45.5666C221.368 46.2257 222.036 44.523 221.675 45.0357C221.313 45.5483 221.675 45.4385 221.801 46.0793C221.693 46.0793 221.566 46.2074 221.458 46.0793C221.819 46.7567 222.994 45.8779 223.663 46.4821C223.518 45.4751 224.006 46.3173 224.06 45.4934C223.822 45.4804 223.584 45.5232 223.364 45.6184C223.145 45.7137 222.95 45.8588 222.795 46.0427C222.651 43.7357 224.078 44.5962 224.602 43.9921C225.235 44.9258 224.602 45.7131 224.964 46.6285C224.964 45.4934 225.542 46.9947 225.868 46.0243C225.578 46.1708 224.819 45.6948 225.108 44.7427C225.578 45.9145 225.596 44.1935 226.265 45.0357C226.608 45.5849 226.121 46.061 226.464 46.6102L226.952 45.8046C226.825 45.5483 226.699 45.3103 226.789 45.0906C227.657 44.3216 228.47 44.7427 229.301 44.3216C229.066 43.4794 228.777 44.0836 228.524 43.7174C229.048 43.1865 229.934 42.8386 230.114 44.2301C229.88 44.0836 229.645 44.2301 229.374 44.8526C229.102 45.4751 229.789 45.1089 229.608 45.7314C230.169 45.6215 230.693 44.285 231.036 45.8779C231.271 45.2004 231.452 45.6582 231.669 45.7863C231.669 45.4934 231.868 45.2371 231.777 44.9258C232.41 45.5849 233.584 44.4681 233.874 45.8413C234.273 45.7381 234.665 45.6097 235.048 45.4568C235.057 45.7416 235.02 46.0259 234.94 46.299C235.265 46.6835 235.193 45.6765 235.41 45.4934C235.535 45.7593 235.6 46.0502 235.6 46.3448C235.6 46.6393 235.535 46.9302 235.41 47.1961C235.807 47.544 236.313 47.1961 236.44 48.3496C236.584 47.6721 236.259 46.9398 236.675 46.299C236.133 45.7314 236.44 47.782 235.771 46.9032C235.771 46.2074 235.771 45.8046 236.169 45.5666C236.855 45.3103 237.488 47.0496 238.193 46.6102C238.41 47.5806 237.886 47.1595 237.633 47.5989C237.904 48.1116 238.211 47.5989 238.518 47.3243C238.514 47.0832 238.458 46.846 238.355 46.6285C238.608 46.4455 238.681 47.0496 238.717 46.3173C239.205 47.0496 239.765 45.292 240.217 46.9581C240.217 46.1891 241.048 46.1342 241.102 46.9581C241.428 45.5117 242.277 45.6399 242.819 46.2441C242.982 46.0427 242.819 45.8046 243.018 45.5849C243.452 46.1891 243.994 45.7131 243.958 46.8666L244.608 45.7131C245.205 46.3356 244.41 46.8482 244.753 47.4524C245.151 46.775 245.53 46.9581 245.91 47.4524C245.91 46.8849 246.361 46.3356 246.47 45.7863C246.705 46.4821 246.018 47.1046 246.47 47.8369C246.47 46.1708 247.645 46.3539 248.169 47.1229C248.639 46.8299 248.602 45.7863 249.09 46.1708C249.09 46.775 248.711 47.4524 249.235 47.2144C249.272 47.7572 249.104 48.2939 248.765 48.7158C248.765 48.8988 248.892 48.8256 248.946 48.7158L249.127 49.0819C249.416 48.6425 249.217 48.1665 249.506 47.7271C249.795 47.2877 249.886 48.6425 250.374 49.1918C250.699 48.5327 251.024 49.5397 251.349 49.1002C251.006 48.0933 250.645 48.313 250.283 48.6608C250.25 48.2171 250.107 47.789 249.867 47.4158C250.247 47.6355 250.211 46.8482 250.663 47.6538C251.06 47.3609 250.446 46.9581 250.861 46.6468C251.223 47.5257 252.072 47.3792 252.669 47.6721C252.795 47.2327 252.163 47.068 251.964 47.2694C251.855 45.9145 252.741 46.1525 253.139 46.5004C253.392 47.3426 252.506 46.5004 252.759 47.1595C253.012 47.8186 253.121 46.5736 253.572 47.0496C253.03 48.6608 254.928 46.9215 255.506 48.5876C255.723 47.8919 256.392 47.544 256.861 46.7567C256.861 48.2763 258.253 47.0313 258.47 46.5187C258.596 46.7567 258.741 46.9947 258.651 47.2144C258.795 46.7018 259.157 47.3243 259.536 46.5919C259.807 47.8735 260.151 46.5919 260.783 46.3356C260.91 46.7384 260.693 47.1229 261.036 47.544C262.157 46.7018 262.753 47.544 263.892 47.0496C264.018 47.5074 263.892 47.8919 264.163 47.9285C264.163 46.537 264.777 47.3975 265.048 48.3313C264.868 47.2694 265.446 46.5004 265.934 47.013C266.096 47.8735 265.374 47.013 265.5 47.8369C265.645 48.1848 265.789 48.02 265.934 48.3862C266.078 47.9468 265.934 47.5257 266.205 47.544C266.476 47.5623 265.97 48.0933 266.114 48.4045C266.693 48.8805 266.874 48.4045 266.837 47.7637C267.271 47.4891 266.837 48.8439 267.271 48.6425C267.223 48.372 267.268 48.0929 267.4 47.8526C267.532 47.6123 267.742 47.4256 267.994 47.3243C268.157 48.3496 268.265 47.3243 268.608 48.2214C268.608 47.4708 269.06 47.5806 269.331 47.9285C269.602 48.2763 269.133 48.1116 269.331 48.7707C269.458 47.7088 270.868 48.9721 270.669 47.306C270.994 47.8186 271.319 46.3173 271.645 46.8666C271.97 47.4158 271.355 47.3792 271.102 48.2031C271.446 48.4961 271.771 48.2031 272.096 48.4411C272.223 46.2807 273.452 47.3792 273.777 47.013C273.777 47.6538 273.325 47.8919 273.163 48.1665C273.092 48.0647 273.054 47.9432 273.054 47.8186C273.054 47.6941 273.092 47.5726 273.163 47.4707C272.765 47.068 272.892 47.9651 272.44 48.1116C273.036 48.3679 273.181 48.1116 273.705 49.5763C274.066 49.1918 273.705 48.7707 273.705 48.3862C274.247 49.6678 276.325 48.3862 277.102 48.8805C277.229 48.7707 277.843 48.2397 277.536 47.7088C277.988 46.9581 278.422 48.4594 278.422 47.0496C278.693 47.5257 278.422 47.9651 278.422 48.4228C278.422 48.8805 278.114 48.1299 277.97 47.8919C277.699 48.551 278.187 48.9904 277.627 49.2467C278.078 49.2467 278.133 48.789 278.693 48.2763C278.704 48.5128 278.765 48.7439 278.874 48.9538C279.163 48.3862 278.675 48.5327 278.765 47.7637C279.036 47.4341 279.307 48.0749 279.56 47.2694C278.308 46.5401 276.901 46.1258 275.458 46.061C275.06 45.6948 275.675 45.3835 275.277 45.0174C274.934 45.0174 275.042 45.4202 274.843 45.8596C274.482 45.1638 275.042 44.4864 275.367 43.8273C276.108 43.8273 276.976 45.4934 277.934 44.4498C278.205 44.4498 278.476 45.1455 278.747 45.0174C278.494 44.2301 278.566 44.3399 279.09 44.6878C279.398 44.3582 279.09 43.9921 279.271 43.6625C279.958 44.999 280.084 43.9921 280.699 44.0653C280.952 44.4315 280.699 44.761 281.06 45.1089C281.06 44.3582 281.277 43.8639 281.675 44.285C282.072 44.7061 281.223 44.9441 281.675 45.3103C281.801 44.9624 281.91 45.1272 282.036 45.3103C282.059 45.0143 282.146 44.727 282.289 44.4681C283.011 44.774 283.636 45.2742 284.096 45.9145C284.223 44.4681 284.693 46.299 285.054 45.4568C285.253 46.1159 284.729 45.6399 284.639 46.2807C284.964 46.2807 285.289 46.1159 285.614 46.5004C285.795 46.3539 285.958 45.4385 286.139 45.8413C286.012 44.9441 286.139 45.0357 286.554 44.3216C285.886 44.4864 285.578 43.3879 285.036 44.0836C284.693 43.278 285.253 43.4794 284.928 42.8752C284.782 43.0961 284.686 43.3464 284.645 43.6088C284.605 43.8712 284.621 44.1395 284.693 44.3949C284.494 44.6512 284.277 44.3949 284.078 44.8892C284.078 43.754 283.482 44.3033 283.193 44.5047C282.94 43.754 283.554 43.8822 283.608 42.9851C283.265 42.8203 283.247 43.1315 283.084 43.6442C282.958 43.3696 282.687 42.6738 282.181 42.5823C282.12 43.0624 281.947 43.5208 281.675 43.9188C281.667 43.3189 281.538 42.7269 281.295 42.1795C281.06 42.6921 280.807 42.1795 280.572 42.1795C280.663 41.7767 280.446 41.3739 280.572 40.9711C279.601 41.1563 278.596 40.9877 277.735 40.4951C277.211 41.557 276.669 40.019 276.145 40.7697C275.187 38.9388 273.867 41.7217 273.217 39.4148C273.036 40.0373 272.855 39.5979 272.675 40.0739C272.44 39.3965 272.205 39.3599 271.97 38.9937C272.331 38.5909 272.621 39.3233 272.765 38.1881C272.621 39.1036 272.982 38.6275 273.289 38.9022C273.506 38.1881 273.163 38.3712 272.946 38.2064C273.343 37.4008 273.759 37.8952 274.175 37.9318C274.337 38.2797 273.777 38.4811 273.651 38.2431C273.795 39.1402 274.699 38.2431 275.151 38.4811C274.934 37.8219 274.735 38.6092 274.536 37.9501C275.349 38.1881 275.639 37.3642 276.343 37.1811C276.614 37.5839 275.765 37.9501 276.253 38.3712L276.614 37.6938C277.392 38.4261 278.295 37.8769 278.819 37.291C278.313 38.2247 279.163 37.9867 279.614 38.1881C279.614 37.7304 279.886 37.3459 279.524 37.3276C280.121 36.046 280.229 38.0417 280.753 37.0347C280.932 37.533 280.97 38.0721 280.861 38.5909C281.114 38.8473 281.476 37.7121 281.458 37.4008C281.819 36.998 282.542 38.5726 282.614 37.291C282.759 37.291 283.374 37.8036 283.247 38.1698C283.572 37.3825 284.53 37.2178 285.361 37.9318C284.91 38.298 284.946 38.1515 284.584 39.1036C284.874 39.5064 285.181 39.7627 285.488 40.1655C285.741 39.9824 285.199 38.9388 285.488 39.305C285.633 38.4261 285.09 39.305 284.946 39.305C284.946 38.1881 285.886 37.4741 286.355 38.6825C286.952 38.7923 287.494 36.5586 288.163 37.7304L288.506 37.0713C288.813 37.4192 288.506 37.7487 288.506 38.0966C288.868 38.3895 289.193 37.053 289.572 37.8036C289.952 38.5543 289.229 38.2431 289.139 38.6459C290.114 38.2247 290.946 37.5656 291.705 38.9388C292.012 38.9388 292.301 39.0486 292.572 38.2797C292.469 38.1646 292.405 38.0191 292.388 37.8644C292.372 37.7097 292.405 37.5537 292.482 37.4192C292.843 38.2614 293.783 37.1628 294.434 38.1515C294.235 38.5909 294.036 39.012 293.819 38.6459C294.018 39.25 294.958 39.2867 295.446 39.3782C295.825 38.536 295.139 39.3782 294.976 38.5177C295.265 37.9501 295.572 38.5177 295.843 37.8403C295.786 37.7076 295.756 37.5642 295.756 37.4192C295.756 37.2741 295.786 37.1307 295.843 36.998C295.59 36.5037 295.518 36.998 295.464 36.3023C295.543 36.273 295.614 36.2267 295.673 36.1667C295.733 36.1066 295.778 36.0342 295.807 35.9544C296.295 37.2727 296.422 36.9248 297 37.529C296.729 38.3712 296.404 37.0164 296.133 37.8586C296.349 38.4994 296.548 38.0783 296.765 38.7191C296.566 38.0417 297.361 37.4924 297.705 37.5473C298.048 37.6022 297.705 38.005 297.542 38.2247C297.813 39.067 298.03 38.3163 298.283 38.9388C298.41 38.6092 298.012 38.2431 298.066 37.9135C298.681 37.3093 299.313 38.2064 299.874 37.7853C299.874 36.8699 299.422 37.9135 299.151 37.4192C299.151 37.2544 299.151 37.0713 299.151 36.9065C299.422 37.4008 299.53 36.7051 300 36.3939ZM262.753 13.1415C262.428 14.0387 262.121 13.7457 261.795 13.2514C261.849 12.4824 262.446 12.5373 262.753 13.1415ZM253.717 10.9628C253.5 11.1825 253.283 12.1895 253.102 11.4205C252.922 10.6515 253.572 10.2304 253.717 10.9628V10.9628ZM249.831 16.4554C249.596 17.0596 249.361 16.9132 249.145 16.7484C249.398 16.3456 249.614 15.9428 249.831 16.4554V16.4554ZM246.036 15.4301C246.036 16.0893 245.657 16.3273 245.44 15.5583C245.639 15.3203 245.783 14.9175 246.036 15.4301V15.4301ZM242.621 13.4162C242.842 14.1659 243.315 14.8137 243.958 15.2471C243.596 15.8329 243.072 16.5287 242.476 16.3273C242.476 15.9245 242.928 15.5583 242.584 15.1372C242.114 15.6132 242.331 16.1442 242.114 16.6385C241.988 16.2724 241.825 16.4188 241.699 16.0893C241.988 14.7344 242.331 14.5513 242.621 13.4162V13.4162ZM240 14.5513C240.506 14.1302 240.976 14.4231 241.464 14.8626C241.211 15.5583 241.175 15.0823 240.922 16.1808C240.777 15.9428 240.651 15.4668 240.488 15.6315C240.325 15.7963 240.488 16.1076 240.488 16.3273C240.163 15.9794 239.837 16.8765 239.548 15.7231C239.819 14.9724 240.361 15.6682 240 14.5513V14.5513ZM237.307 14.8443C237.072 15.4301 236.837 15.4118 236.621 14.8443C236.874 14.1851 237.09 14.7344 237.307 14.8443V14.8443ZM233.368 13.7274C232.988 14.1302 232.301 14.3865 232.247 13.4345C232.627 13.2514 233.006 13.05 233.368 13.7274V13.7274ZM225.145 13.7274C224.928 13.4528 224.711 13.8739 224.729 13.1781C224.747 12.4824 225.398 13.1965 225.145 13.6908V13.7274ZM196.627 10.0656C196.65 10.1521 196.691 10.2326 196.747 10.302C196.803 10.3714 196.873 10.4281 196.952 10.4684C196.952 10.9261 196.59 11.4571 196.374 11.4205C196.084 10.8895 196.337 10.4684 196.627 10.0473V10.0656ZM190.789 10.7614C191.06 11.0726 191.404 10.0656 191.639 10.8895C191.386 11.0726 190.681 11.5487 190.789 10.7431V10.7614ZM168.289 9.33327C168.417 9.61429 168.478 9.92127 168.47 10.2304C168.235 10.5417 167.566 10.7797 167.711 9.91916C167.91 10.3769 168.253 9.77269 168.289 9.33327ZM166.265 8.45444C166.417 9.05232 166.448 9.67511 166.355 10.2853C166.699 9.49805 167.223 9.27835 167.151 10.2853C166.663 10.5417 165.687 11.0177 165.633 9.68114C166.139 10.3403 165.904 8.91217 166.265 8.45444ZM164.458 10.0473C164.675 10.2304 164.946 9.77269 165.145 10.1755C165.054 11.2557 164.024 10.8163 164.458 10.0473ZM18.5783 45.8596C18.7048 45.2371 19.247 44.9807 19.5 45.0906C19.3916 45.5849 18.7229 46.4638 18.5783 45.8596ZM18.4338 115.433H18.1808C18.1808 114.646 17.9097 114.262 18.4518 114.225C18.3615 114.921 18.6868 114.902 18.4338 115.433ZM22.7711 119.095C23.0422 118.583 23.2591 119.095 23.5121 119.333C23.5844 120.194 22.5542 119.864 22.7711 119.095ZM25.3012 85.0407C25.3203 84.9134 25.3801 84.796 25.4716 84.7067C25.5631 84.6173 25.681 84.561 25.8073 84.5463C25.8073 84.9674 25.8073 85.004 26.0603 85.0407C26.0603 85.5716 25.4639 85.2237 25.3012 85.0407ZM255.271 189.749C256.247 189.639 257.602 188.541 258.307 189.401C258.506 189.401 258.127 188.028 258.434 187.717C258.603 188.013 258.842 188.263 259.128 188.445C259.415 188.627 259.741 188.735 260.078 188.761C260.078 190.775 258.705 189.585 258.651 191.361C258.108 191.196 257.837 191.123 257.602 192.038C256.464 191.379 256.229 192.624 255.38 192.038C255.669 190.793 255.289 191.068 255.343 189.749H255.271ZM255.036 190.225C255.036 190.506 255.072 190.671 255.145 190.72C254.982 191.891 254.422 190.189 255.108 190.225H255.036ZM291.036 74.7327C291.036 75.0074 291.036 75.3003 290.783 75.5749C290.621 75.2088 290.476 75.3735 290.313 75.044C290.621 74.513 290.855 74.0919 291.108 74.7327H291.036ZM288.669 74.275C288.831 75.4834 289.03 74.275 289.41 74.6595C289.554 75.7763 288.163 75.2454 288.741 74.275H288.669ZM287.53 65.4867C287.349 64.498 287.241 65.2487 286.88 64.9375C287.024 64.6628 286.663 64.3516 286.771 64.0769C287.223 64.1868 287.114 64.8276 287.494 64.0769L287.783 64.6079C287.765 64.9192 287.819 65.2121 287.602 65.4867H287.53ZM288.705 65.7064C288.452 65.5233 287.91 65.9994 288.145 64.9924C288.361 65.5233 288.922 64.7727 288.777 65.7064H288.705ZM288.09 61.8982C287.494 61.77 286.898 62.2827 286.283 61.8982C286.358 61.7079 286.488 61.5447 286.655 61.4298C286.823 61.3149 287.021 61.2534 287.223 61.2534C287.425 61.2534 287.623 61.3149 287.79 61.4298C287.958 61.5447 288.088 61.7079 288.163 61.8982H288.09ZM286.681 63.2164C286.392 64.0403 286.084 63.8023 285.777 63.2164C286.139 63.0883 286.428 62.4658 286.753 63.2164H286.681ZM217.41 45.4202C217.193 44.9807 216.976 45.1455 217.175 44.523C217.572 44.523 217.374 45.2737 217.753 45.8046C218.169 44.9807 218.494 46.3539 218.91 45.4202C218.693 45.2371 218.44 45.4202 218.241 44.6695C218.44 44.1935 218.602 44.6695 218.801 44.0287C219.108 44.3216 218.675 45.3652 219.108 45.0906C219.542 44.816 218.874 44.2667 219.253 43.9005C219.633 43.5343 219.596 43.9921 219.759 44.3033C219.922 44.6146 219.343 45.292 219.434 45.8229C219.651 45.7314 219.831 46.1708 220.03 46.4088C218.741 46.6419 217.413 46.3597 216.325 45.6216C216.867 44.4132 217.084 46.3173 217.482 45.4202H217.41ZM286.988 139.418C287.133 138.448 287.404 139.839 287.801 139.418C287.331 141.103 287.006 143.3 286.645 144.325C286.102 142.293 287.801 141.066 286.988 139.418ZM66.6326 133.925C66.6326 133.578 67.0121 133.925 67.0121 133.431C67.0121 132.937 66.2169 133.431 65.8735 133.193C66.4157 132.058 67.6808 132.388 68.1506 131.71C68.3012 132.18 68.3012 132.686 68.1506 133.156C68.2591 133.98 68.4398 133.156 68.6567 133.633C69.0181 133.321 68.2591 133.138 68.4036 132.424C69.3795 132.424 69.5964 132.699 70.0482 131.911C70.4458 132.259 70.0482 132.314 70.8073 132.149C70.8073 133.834 69.994 132.497 69.6687 133.138C70.0844 134.145 71.3133 132.186 71.3133 133.834C69.741 133.596 67.6988 135.427 66 133.687C66.2711 133.193 66.4157 134.31 66.8856 134.163C66.8675 133.834 66.7229 133.889 66.6326 133.834V133.925ZM58.9699 126.236V125.265C58.753 125.265 58.6988 125.577 58.4639 125.522C58.2289 125.467 58.6265 125.888 58.3374 126.236H57.7049C57.7049 125.943 57.7049 125.796 57.5783 125.741C57.8314 125.229 57.9398 124.46 58.482 124.515C58.4693 124.424 58.4693 124.331 58.482 124.24C59.0911 124.134 59.7174 124.204 60.2892 124.441V123.471H59.6386C59.6668 123.234 59.6668 122.994 59.6386 122.757C60.5283 123.06 61.4782 123.136 62.4036 122.977C62.1145 122.519 61.3374 123.361 61.1567 122.263C60.8856 122.464 60.7229 122.885 60.2711 122.757C60.2711 122.244 59.9097 121.97 60.1446 121.53C60.4338 121.53 60.2892 122.244 60.5241 122.263C60.7591 122.281 60.8133 121.604 60.5241 121.53C60.9936 121.296 61.5099 121.174 62.0332 121.174C62.5565 121.174 63.0727 121.296 63.5422 121.53C63.2711 121.75 62.9639 122.574 62.6567 122.025C62.6567 123.544 63.253 122.665 63.5422 122.263C63.5422 122.556 64.0121 123.233 63.7952 123.233C63.7952 124.002 63.1627 123.233 62.7832 123.727C63.1265 124.441 64.2289 123.581 64.4277 123.965C64.4277 123.361 64.1747 122.72 64.6808 122.739C64.5904 124.423 65.2229 124.734 65.9277 124.899C65.8172 125.216 65.774 125.553 65.8012 125.888C64.4458 125.064 61.5904 126.73 59.747 126.199C59.747 125.76 59.9097 125.686 59.8735 125.21C59.4579 125.284 59.4036 126.089 58.9699 126.144V126.236ZM25.1024 38.3895C25.357 38.8328 25.4764 39.3424 25.4458 39.8542C25.2289 39.8542 25.1928 39.543 24.9579 39.5979C24.8675 38.9205 25.1386 38.9754 25.1024 38.3895ZM26.0061 40.7514C25.9536 39.6294 26.0694 38.5059 26.3494 37.4192C26.6747 37.1811 27.3073 37.5473 27.2169 36.4488C27.3795 36.7051 27.6687 36.6868 27.8133 36.9431C27.8133 38.0966 27.3253 37.9501 27.0542 38.3895C27.0542 39.6712 27.1808 40.3303 27.0542 40.9711C26.691 41.0068 26.3255 40.9302 26.0061 40.7514V40.7514ZM35.0422 26.2324C35.0833 26.1567 35.1049 26.0717 35.1049 25.9852C35.1049 25.8988 35.0833 25.8138 35.0422 25.7381H35.747C35.747 25.8479 35.747 25.9761 35.6567 26.0676C35.6567 25.7564 35.3314 25.7564 35.2952 26.0676C35.2591 26.3789 35.3133 26.3239 35.0783 26.2324H35.0422ZM65.5844 124.13C65.5844 123.782 65.9639 124.13 65.9639 123.636C66.1988 123.636 66.253 124.057 66.2169 124.606H65.5844C65.6205 124.405 65.6928 124.185 65.5301 124.13H65.5844ZM67.482 124.57C67.6808 124.661 67.3735 125.009 67.6085 125.064C67.3555 126.162 66.5241 125.064 66.0904 125.064C66.1988 123.819 67.1747 125.339 67.4277 124.588L67.482 124.57ZM187.428 141.945C187.244 142.168 187.031 142.365 186.795 142.531C186.669 142.54 186.542 142.54 186.416 142.531L186.271 142.329C186.506 141.157 186.813 142.219 187.265 141.67V140.938H187.374C187.397 141.273 187.397 141.61 187.374 141.945H187.428ZM182.855 136.031C182.512 137.056 182.205 136.214 181.717 136.69C181.784 136.438 181.875 136.193 181.988 135.958H182.386C182.53 136.013 182.53 136.177 182.801 136.031H182.855ZM178.446 136.672C178.229 137.422 177.217 136.672 177.145 137.642C176.621 136.928 176.928 136.617 176.313 137.313C176.217 137.005 176.168 136.684 176.169 136.361H176.548C176.608 136.481 176.645 136.611 176.657 136.745C176.762 136.609 176.877 136.481 177 136.361H177.108C177.55 136.392 177.984 136.497 178.392 136.672H178.446ZM174.145 140.938C174.031 140.999 173.91 141.043 173.783 141.066C173.874 140.736 174 140.517 174.181 140.59C174.161 140.708 174.131 140.825 174.09 140.938H174.145ZM169.59 143.19C169.236 142.941 168.955 142.599 168.777 142.201C169.102 141.853 169.428 141.542 169.771 141.212C170.114 142.018 169.355 141.926 169.536 143.19H169.59ZM165.976 143.556H166.066C165.902 143.449 165.717 143.38 165.524 143.355V143.355L165.976 143.556ZM174.94 136.983C174.966 136.795 174.966 136.604 174.94 136.415H175.157C175.168 136.519 175.155 136.624 175.121 136.722C175.087 136.82 175.031 136.91 174.958 136.983H174.94ZM171.199 137.404L171.361 137.294C171.383 137.136 171.383 136.976 171.361 136.818H171.578C171.578 137.038 171.578 137.221 171.741 137.331C171.599 137.413 171.47 137.518 171.361 137.642C171.359 137.591 171.342 137.542 171.314 137.5C171.285 137.458 171.245 137.425 171.199 137.404V137.404ZM165.777 139.235C165.777 138.814 165.976 138.777 165.94 138.246H165.614V138.118H166.102C166.121 138.759 166.265 139.528 165.795 139.235H165.777ZM166.464 138.283C166.549 138.327 166.628 138.383 166.699 138.448C166.608 138.814 166.554 138.558 166.482 138.283H166.464ZM164.458 143.501H164.078C164.083 143.41 164.083 143.318 164.078 143.226H163.898C163.898 143.062 163.898 142.824 164.096 142.769C164.295 142.714 164.259 142.97 164.349 142.952C164.417 143.127 164.454 143.313 164.458 143.501V143.501ZM164.169 138.905L163.861 138.796C163.988 138.558 163.861 138.411 164.006 138.191C164.151 137.972 164.151 138.393 164.151 138.667C164.178 138.538 164.227 138.414 164.295 138.301C164.295 138.539 164.313 138.777 164.151 138.905H164.169ZM149.295 144.398H149.006C149.13 144.402 149.251 144.363 149.349 144.288C149.349 144.288 149.295 144.38 149.277 144.416L149.295 144.398ZM158.133 141.139C158.295 141.322 158.548 141.286 158.693 141.505C157.753 141.688 156.723 142.219 156.235 141.725C156.434 141.615 156.235 140.938 156.596 140.993C156.958 141.048 157.337 141.652 157.374 141.194C157.365 141.14 157.365 141.084 157.374 141.029C157.615 141.099 157.864 141.142 158.114 141.157L158.133 141.139ZM156.018 144.178H155.512C155.729 143.867 155.928 143.611 156.018 144.178ZM158.422 142.494C159.036 143.135 159.108 141.853 159.723 142.494C159.795 143.318 158.313 143.666 158.422 142.494ZM153 142.75C153 142.75 152.91 142.622 152.837 142.641C152.856 142.531 152.856 142.42 152.837 142.311C152.953 142.358 153.062 142.42 153.163 142.494C153.133 142.585 153.09 142.671 153.036 142.75H153ZM148.645 143.483V143.245L148.789 143.355C148.765 143.406 148.727 143.45 148.681 143.483H148.645ZM153.38 142.604V142.714C153.385 142.675 153.397 142.638 153.416 142.604H153.38ZM160.355 144.435H159.922C160.038 144.397 160.141 144.325 160.215 144.226C160.289 144.128 160.332 144.009 160.337 143.886C159.633 143.574 160.337 143.025 160.337 142.641C160.517 142.598 160.672 142.486 160.771 142.329C160.56 142.275 160.355 142.201 160.157 142.11C160.08 141.97 159.974 141.851 159.846 141.759C159.718 141.667 159.571 141.605 159.416 141.579C159.198 141.341 159.021 141.069 158.892 140.773C159.094 140.524 159.258 140.247 159.38 139.949C159.328 139.909 159.285 139.859 159.253 139.803C159.4 139.886 159.529 139.998 159.633 140.132C159.617 140.284 159.617 140.438 159.633 140.59C160.006 140.871 160.472 140.996 160.934 140.938C160.891 141.118 160.891 141.307 160.934 141.487C160.771 141.341 160.645 141.487 160.536 142.091C160.789 142.091 160.789 141.762 160.916 141.597C160.916 141.926 161.169 142.677 161.386 142.787C161.602 142.897 161.386 142.787 161.386 142.897C161.386 143.007 161.693 142.897 161.693 142.549V142.219C161.744 142.252 161.804 142.269 161.864 142.269C161.925 142.269 161.985 142.252 162.036 142.219C162.064 142.788 162.149 143.353 162.289 143.904C162.163 143.896 162.042 143.849 161.943 143.771C161.843 143.693 161.768 143.586 161.729 143.464C161.928 144.215 161.729 144.032 161.584 144.27C161.192 144.351 160.792 144.388 160.392 144.38L160.355 144.435ZM162.651 142.439C162.602 142.588 162.602 142.748 162.651 142.897C162.536 142.752 162.456 142.583 162.415 142.402C162.374 142.222 162.374 142.034 162.416 141.853C162.509 142.042 162.587 142.238 162.651 142.439ZM161.404 142.256C161.299 142.102 161.203 141.944 161.114 141.78C161.349 141.89 161.494 141.945 161.476 142.256H161.404ZM160.301 139.546C160.36 139.655 160.378 139.782 160.351 139.903C160.325 140.025 160.255 140.132 160.157 140.205C159.994 139.912 159.886 139.766 159.795 139.748C159.705 139.729 160.193 139.455 160.374 139.546H160.301ZM163.084 141.853C162.973 141.817 162.853 141.817 162.741 141.853V141.121L162.343 141.341C162.352 141.274 162.352 141.206 162.343 141.139H161.205C161.205 140.572 161.494 140.279 161.205 140.15C161.494 139.729 162.072 140.81 162.687 140.15C162.922 140.59 162.922 141.45 163.157 141.853H163.084ZM158.494 139.656C158.485 139.698 158.467 139.737 158.442 139.772C158.418 139.807 158.386 139.836 158.349 139.858C158.277 139.866 158.205 139.866 158.133 139.858C158.259 139.756 158.408 139.687 158.566 139.656H158.494ZM144.651 143.794C144.676 143.628 144.752 143.475 144.868 143.355C144.886 143.476 144.886 143.599 144.868 143.721L144.651 143.794ZM162.723 139.546C162.108 140.15 161.855 139.546 162.108 138.96C162.282 139.179 162.377 139.449 162.38 139.729C162.831 139.179 163.197 138.561 163.464 137.898C163.464 138.283 163.464 138.484 163.464 138.631C163.193 138.649 163.084 138.851 162.849 139.546H162.723ZM139.898 144.728C140.006 144.728 140.151 144.581 140.277 144.563C140.356 144.63 140.412 144.719 140.44 144.819H139.88L139.898 144.728ZM169.518 137.789C169.491 137.849 169.447 137.9 169.392 137.935C169.4 137.88 169.4 137.825 169.392 137.77L169.518 137.789ZM165.181 143.409H164.928C164.928 143.245 164.801 143.208 164.711 143.245L164.548 142.897C164.729 142.787 164.928 142.567 165.127 142.439C165.238 142.75 165.257 143.088 165.181 143.409V143.409ZM165.289 140.224C165.416 138.96 164.693 138.631 164.602 138.045C164.819 138.045 165.072 138.283 165.307 138.484C165.277 139.23 165.507 139.963 165.958 140.553C165.705 139.748 166.5 139.583 166.446 140.224C166.432 140.397 166.37 140.562 166.265 140.7V140.517C166.253 140.632 166.253 140.749 166.265 140.865V140.865C165.813 140.7 165.434 140.7 165.289 140.224V140.224ZM166.898 138.686C166.96 138.782 167.009 138.887 167.042 138.997C167.205 137.898 167.494 139.382 167.946 139.198C167.959 138.986 168.016 138.779 168.112 138.59C168.209 138.401 168.343 138.234 168.506 138.1C168.44 138.822 168.294 139.534 168.072 140.224C167.693 139.436 167.765 140.718 167.259 140.553C166.753 140.389 167.006 139.455 166.898 138.686V138.686ZM170.042 138.924C170.072 138.742 170.121 138.564 170.187 138.393C170.277 138.226 170.38 138.067 170.494 137.917V137.917L170.729 137.77C170.794 137.764 170.859 137.775 170.919 137.8C170.978 137.826 171.031 137.866 171.072 137.917C170.819 138.246 170.53 138.796 170.042 138.924V138.924ZM172.807 136.946C172.857 136.854 172.918 136.768 172.988 136.69L172.88 137.111C172.88 137.111 172.825 137.038 172.807 136.946V136.946ZM174.235 136.452H174.506C174.506 136.617 174.506 136.946 174.307 137.001C174.108 137.056 174.307 137.001 174.307 137.001C174.328 136.815 174.303 136.627 174.235 136.452V136.452ZM175.428 140.26H175.283C175.331 140.251 175.38 140.251 175.428 140.26V140.26ZM167.295 144.197C166.977 144.164 166.675 144.036 166.428 143.831C166.428 143.831 166.428 143.831 166.428 143.831C166.699 143.831 166.916 143.428 167.259 143.226C167.259 143.611 167.259 144.16 167.422 144.215C167.892 143.19 167.06 142.805 166.608 142.567C166.717 143.794 166.139 142.567 165.994 143.208C165.852 143.172 165.703 143.172 165.56 143.208C165.56 142.64 165.56 142.274 165.145 141.963H165.289C165.428 141.953 165.563 141.916 165.687 141.853C166.193 141.853 165.687 142.183 166.446 142.659C166.717 141.048 168.253 140.993 168.416 141.359C168.054 141.981 168.416 142.677 168.633 143.647H168.488C168.072 143.629 167.711 144.197 167.295 144.197ZM170.024 143.281V142.897C170.241 142.897 170.313 143.025 170.331 143.3L170.024 143.281ZM172.337 137.624C172.301 137.474 172.301 137.316 172.337 137.166L172.5 137.642C172.5 137.642 172.41 137.679 172.337 137.624V137.624ZM173.675 141.286C173.771 141.375 173.881 141.449 174 141.505C173.849 142.041 173.776 142.596 173.783 143.153C173.597 142.568 173.56 141.944 173.675 141.341V141.286ZM175.066 141.194C175.022 141.113 174.999 141.021 174.999 140.929C174.999 140.836 175.022 140.744 175.066 140.663H174.777C174.777 140.334 174.994 140.205 175.193 140.187C175.195 140.268 175.213 140.347 175.247 140.419C175.282 140.492 175.331 140.556 175.392 140.608C175.301 141.066 175.301 141.212 175.066 141.249V141.194ZM140.566 95.6049L140.675 95.4218C140.627 95.4751 140.59 95.5373 140.566 95.6049V95.6049ZM181.175 136.361C181.198 136.8 181.143 137.241 181.012 137.66C180.759 137.422 180.813 136.599 180.651 136.196H180.922C181.012 136.251 181.084 136.342 181.175 136.361ZM144.199 96.4471C143.955 96.5867 143.685 96.6748 143.406 96.7061C143.128 96.7373 142.845 96.7111 142.577 96.629C142.308 96.5469 142.059 96.4106 141.844 96.2283C141.629 96.046 141.453 95.8215 141.325 95.5683C141.443 95.5023 141.542 95.4079 141.614 95.2936C141.774 95.2728 141.927 95.218 142.064 95.1328C142.201 95.0476 142.319 94.9339 142.41 94.7993C142.97 94.9824 143.53 95.6781 144.217 95.3852C144.259 95.7383 144.253 96.0956 144.199 96.4471V96.4471ZM141.958 94.8542C141.992 94.8169 142.034 94.7877 142.081 94.7687C142.128 94.7497 142.179 94.7414 142.229 94.7444H142.392C142.319 94.8909 142.157 94.8908 141.958 94.8542V94.8542ZM81.0542 141.579C80.9639 142.128 80.3494 141.688 80.0422 141.835C80.2771 140.645 80.5301 141.505 81.0542 141.579ZM78.3976 139.436C78.3976 140.535 78.0181 139.436 77.6386 139.693C77.8012 139.089 78.0723 139.235 78.3976 139.436ZM73.1928 140.022C73.1928 139.382 73.4639 139.4 73.6988 139.29C73.6988 139.931 73.4097 140.462 73.1928 140.022V140.022ZM77.0061 131.911C77.0061 132.259 77.0061 132.607 77.1326 132.644C75.7049 133.742 73.5181 133.047 72.0723 132.973C71.747 133.23 72.0723 134.054 72.4518 133.944C72.3253 134.64 71.9097 133.944 71.6928 133.944C71.6928 133.504 71.8374 133.431 71.8193 132.973C71.8012 132.516 71.2049 132.973 70.9338 132.735C72.6687 130.392 74.4036 132.168 77.0061 131.911ZM72.5603 138.796C73.1024 139.436 73.1928 140.425 72.4338 140.755C72.4338 140.553 72.5603 140.498 72.5603 140.26C71.4605 140.291 70.3808 140.566 69.3976 141.066C68.8916 138.558 71.8374 139.107 72.5603 138.814V138.796ZM254.819 169.445C254.693 170.25 254.946 170.324 254.964 170.855C254.723 170.786 254.488 170.7 254.259 170.598C254.241 169.939 254.114 169.243 254.819 169.445ZM215.946 43.8456C216.361 44.3765 215.693 45.53 215.458 44.9807C215.548 44.2301 215.982 44.9258 215.946 43.8456ZM215.241 43.8456L215.476 44.3949C215.133 44.9075 214.771 45.6948 214.464 45.1272C214.5 44.285 214.952 44.5596 215.241 43.754V43.8456ZM210.452 43.5893C210.163 44.2484 209.946 44.7976 210.452 45.1455C210.127 45.4568 209.855 45.2737 209.584 44.6878C209.91 44.0287 209.982 42.7104 210.452 43.4977V43.5893ZM204.795 42.8752C204.579 43.0871 204.412 43.3447 204.306 43.6296C204.2 43.9144 204.157 44.2195 204.181 44.523C204.036 43.9554 203.855 43.9188 203.657 44.523C203.349 43.278 204.343 42.1978 204.795 42.7837V42.8752ZM158.512 11.75C158.187 11.2557 157.211 12.6289 157.247 11.3473C157.645 11.4571 158.512 10.3769 158.512 11.6951V11.75ZM154.554 10.4867C154.681 11.2191 154.916 10.8163 155.096 11.1092C154.753 11.567 154.428 11.8965 154.211 11.2923C154.319 10.9628 154.301 10.6698 154.554 10.4318V10.4867ZM152.747 9.62621L153.018 10.3769C152.729 11.0726 152.349 10.029 152.801 9.57129L152.747 9.62621ZM148.518 10.2121C148.301 10.6332 148.518 11.0909 148.717 10.7797C148.68 10.434 148.717 10.0844 148.825 9.75438C148.952 10.1206 149.187 9.57129 149.295 10.1938C148.825 10.6332 149.187 11.2191 148.717 11.6402C148.536 11.3656 148.319 11.512 148.175 11.0177C148.374 10.798 148.193 9.73607 148.572 10.1572L148.518 10.2121ZM147.38 10.2121C147.542 10.7247 147.38 11.9514 147 11.3473C147.235 10.8895 147.181 10.4867 147.434 10.1206L147.38 10.2121ZM146.946 10.2121C146.693 10.6515 146.476 10.798 146.331 10.2121C146.639 9.791 146.855 9.66283 147 10.2121H146.946ZM144.669 9.55298C144.868 10.0473 145.175 9.55298 145.41 9.88254C144.813 10.8895 145.59 10.5966 145.265 11.2374C144.94 10.5234 144.434 11.3656 144.072 10.9994C144.271 10.8149 144.431 10.5918 144.543 10.3433C144.655 10.0948 144.716 9.82599 144.723 9.55298H144.669ZM85.5362 2.66883C85.5362 2.87022 85.6627 3.2364 85.8073 3.08993C85.9518 2.94346 86.0061 1.51536 86.3675 1.82661C86.3675 2.24772 86.0964 2.59559 86.2591 3.035C85.7892 3.035 85.6085 4.51803 85.1386 4.49972C85.0287 3.86021 85.1715 3.20255 85.5362 2.66883V2.66883ZM84.6868 2.43081C84.8675 3.2364 84.6868 3.27302 85.1386 3.4378C84.994 3.89552 84.6687 5.06729 84.3615 4.4631C85.3374 3.45611 83.5844 3.91383 84.6868 2.43081V2.43081ZM83.1326 2.55897C83.2952 2.96177 83.6928 1.97309 83.8193 2.74206C83.4398 3.54765 83.4036 3.41949 83.0241 4.28001C82.9778 3.70404 83.0144 3.12431 83.1326 2.55897V2.55897ZM82.753 3.32795C82.6265 3.52934 82.753 3.78567 82.753 4.04199C82.5181 4.40817 82.3374 4.35325 82.247 3.91383C82.1567 3.47442 82.6085 3.25471 82.7892 3.32795H82.753ZM36.9579 22.2227C36.8246 22.522 36.6674 22.8098 36.488 23.0833C36.488 22.7354 36.741 22.4425 36.7952 22.0763C36.8029 22.1153 36.823 22.1507 36.8523 22.1771C36.8817 22.2035 36.9187 22.2195 36.9579 22.2227V22.2227ZM24.8133 27.5506C25.9829 25.8715 27.2565 24.2693 28.6265 22.7537C28.9338 22.9185 29.1687 22.5889 29.2591 23.248C29.9097 22.2044 30.3253 24.0353 30.7229 22.8453C30.994 22.5706 30.9759 23.6142 31.1386 23.8889C31.7352 23.769 32.3492 23.769 32.9458 23.8889C32.2921 24.4449 31.6874 25.0575 31.1386 25.7198C32.3425 25.7859 33.5491 25.7859 34.753 25.7198C35.0222 25.9282 35.2196 26.2174 35.317 26.5462C35.4143 26.875 35.4067 27.2265 35.2952 27.5506C35.6205 27.4591 35.8012 27.5506 35.9277 27.9168C35.0783 28.6492 34.2651 29.2168 33.741 28.4295C33.1502 28.8393 32.4878 29.1313 31.7892 29.29C32.1747 28.7406 32.7189 28.3259 33.3469 28.1029C33.9748 27.8799 34.6555 27.8597 35.2952 28.045C34.4097 26.6901 32.7289 27.7704 31.482 28.7773C30.994 28.2098 29.8374 28.4844 29.1687 29.2717C28.8795 29.1069 28.8434 28.4661 28.5723 28.3013C27.6506 28.3013 25.5 30.6632 25.6446 27.807C25.2109 27.4408 25.5542 28.6309 25.2651 28.5393C25.1207 28.42 25.005 28.269 24.9268 28.0977C24.8485 27.9264 24.8097 27.7394 24.8133 27.5506V27.5506ZM34.1205 116.935C34.1205 116.495 33.9759 116.422 34.0121 115.964C34.3193 115.964 34.6265 115.964 34.7711 116.202C34.8073 116.88 34.482 116.88 34.1205 116.843V116.935ZM51.3434 133.12C52.0844 132.296 54.253 131.582 54.1085 134.072C56.747 135.335 59.5302 134.255 62.3314 134.951C62.6798 134.492 63.1866 134.185 63.7499 134.09C64.3132 133.994 64.8912 134.119 65.3675 134.438C65.241 134.438 65.6386 133.871 65.8735 134.182C66.7591 135.335 65.2229 136.013 64.482 135.903C65.1326 135.793 64.482 137.496 64.3374 138.082C62.9277 138.722 61.7711 138.667 60.5422 139.345C60.1988 139.253 60.1627 138.613 59.7832 138.613C59.7381 138.687 59.6834 138.755 59.6205 138.814C59.2229 135.866 58.6446 136.983 57.9398 138.466C57.5964 138.686 57.3253 139.583 56.982 139.62C56.6386 139.656 56.2048 138.649 55.8615 138.667C55.6764 138.72 55.5082 138.821 55.3735 138.96C55.1747 138.063 55.1024 137.02 54.8675 135.775C54.0904 134.951 53.3856 135.463 52.6446 135.921C51.8314 135.427 51.2169 133.266 50.2049 132.937C50.5863 132.932 50.9675 132.962 51.3434 133.028V133.12ZM49.8434 132.918C49.3555 133.047 48.8314 133.779 48.3253 133.779C47.5576 133.703 46.8001 133.544 46.0663 133.303C47.3131 133.057 48.5751 132.898 49.8434 132.827V132.918ZM41.5663 135.116H41.4579C41.4612 135.079 41.4612 135.042 41.4579 135.006L41.5663 135.116ZM34.1928 140.608H34.1024H34.1928ZM32.1145 142.897C32.0854 142.551 32.1817 142.206 32.3856 141.926C33.2892 142.256 32.8735 141.432 33.2711 140.956C33.5061 140.956 33.5783 141.121 33.6687 141.341C33.1314 141.854 32.6302 142.404 32.1687 142.988C32.1687 142.988 32.1145 142.897 32.1145 142.897ZM262.355 170.507C262.355 169.774 263.042 170.379 263.331 170.177C263.259 171.221 262.699 170.598 262.355 170.452V170.507ZM286.753 160.126C286.446 159.979 286.048 159.997 286.102 159.137C286.41 158.826 286.645 160.126 286.753 159.137C287.042 159.375 286.789 159.668 286.753 160.071V160.126ZM286.157 146.357C285.542 144.966 286.843 144.764 287.133 145.698C286.88 146.742 286.175 144.892 286.157 146.302V146.357ZM288.759 148.005C288.488 147.785 288.325 146.174 287.946 148.005C287.639 147.859 286.952 148.463 287.133 147.364C288.163 147.364 288.181 146.559 288.596 146.046C289.157 146.266 288.614 146.778 288.759 147.95V148.005ZM291.813 116.221C291.488 116.093 291.687 114.939 291.163 115.232C290.675 114.848 292.319 114.884 291.325 114.243C291.596 113.328 291.94 114.957 292.301 114.902C292.229 115.433 291.669 115.104 291.813 116.166V116.221ZM293.06 132.937C292.898 132.937 292.934 132.534 292.898 132.278C292.5 132.278 292.392 132.79 292.247 133.266C291.741 132.626 292.627 132.095 292.735 131.637C293.024 131.655 293.114 132.131 293.06 132.882V132.937ZM291.813 113.932C291.94 112.925 291.651 112.724 291.669 111.955C291.798 112.272 291.997 112.556 292.251 112.784C292.505 113.013 292.806 113.18 293.133 113.273C292.934 114.701 292.229 112.394 291.813 113.877V113.932ZM294.416 116.88C294.163 117.447 293.458 118.143 293.114 117.539C293.386 116.916 293.946 116.495 294.416 116.825V116.88ZM293.169 103.112C292.572 103.258 292.211 103.643 291.687 103.112C291.94 102.306 292.374 102.398 292.518 102.123C292.175 101.372 290.982 103.02 290.548 102.123C291.253 101.976 293.114 100.182 293.169 103.057V103.112ZM290.386 100.786C290.386 100.31 290.386 99.8343 290.386 99.3765C290.386 99.3765 290.53 99.3765 290.548 99.1202C290.964 99.3948 290.295 100.164 290.386 100.786ZM290.566 98.1681L290.187 98.7174C290.178 98.6077 290.178 98.4975 290.187 98.3878C290.304 98.289 290.431 98.2031 290.566 98.1315V98.1681ZM290.241 96.1908L290.078 96.6485C290.078 96.502 290.078 96.3739 290.078 96.2274C290.078 96.0809 290.169 96.1908 290.241 96.1542V96.1908ZM286.807 73.6891C286.751 73.8083 286.671 73.9142 286.572 74.0004L286.355 73.0117C286.355 72.8103 286.355 72.6455 286.355 72.4807C286.645 72.9568 286.337 73.6708 286.807 73.6891ZM285.325 64.5347C285.687 64.9558 285.325 65.3403 285.434 65.7431C285.072 65.9628 284.458 65.4501 284.295 66.0177L284.115 65.6332C284.115 65.4501 284.115 65.3036 284.115 65.1572C284.476 64.6445 284.91 65.1022 285.325 64.5164V64.5347ZM261.831 56.0393C261.799 56.1442 261.75 56.2431 261.687 56.3323C261.538 56.1809 261.337 56.0953 261.127 56.0943C261.147 56.0151 261.192 55.9442 261.254 55.8912C261.315 55.8382 261.391 55.8056 261.472 55.7976C261.553 55.7896 261.634 55.8068 261.704 55.8467C261.775 55.8866 261.832 55.9474 261.867 56.021L261.831 56.0393ZM256.265 56.3689C256.048 56.8632 255.849 56.6618 255.651 56.1492C255.904 55.6548 256.102 55.8379 256.301 56.3506L256.265 56.3689ZM253.952 54.538C253.807 55.014 254.205 54.538 254.133 55.252C253.735 55.9295 252.868 55.6182 252.795 54.6112C253.211 55.5267 253.608 54.4464 253.988 54.4464L253.952 54.538ZM245.331 53.1831C244.88 53.9155 244.428 53.7324 243.976 53.5859C244.034 53.4651 244.117 53.358 244.219 53.2713C244.32 53.1846 244.439 53.1203 244.566 53.0824C244.694 53.0445 244.827 53.0339 244.959 53.0512C245.091 53.0686 245.218 53.1135 245.331 53.1831V53.1831ZM239.91 50.6565C240.018 50.8042 240.088 50.9772 240.114 51.1596C240.139 51.342 240.118 51.5278 240.054 51.7001C239.675 51.4255 239.259 52.3959 238.898 51.4255C239.187 50.7847 239.512 51.0959 239.855 50.6748L239.91 50.6565ZM222.289 45.8596C221.892 45.3469 222.434 44.3399 222.687 44.8709C222.488 45.1089 222.687 45.4751 222.289 45.8596ZM235.627 39.3599C235.898 38.6275 236.259 38.9754 236.277 38.2247L236.44 38.5726C236.44 38.4811 236.566 38.4078 236.621 38.5726C236.53 39.305 236.078 39.781 235.699 39.2867L235.627 39.3599ZM237.434 45.3835C237.795 44.9807 238.157 45.0174 238.5 45.4751C238.193 45.8596 237.831 45.7497 237.488 45.3103L237.434 45.3835ZM245.06 46.3722C244.876 46.156 244.774 45.8798 244.774 45.5941C244.774 45.3083 244.876 45.0322 245.06 44.816C245.331 44.9807 245.404 45.8779 245.837 45.7497C245.584 46.4821 245.368 45.6948 245.114 46.299L245.06 46.3722ZM247.916 40.6049C247.518 40.0373 248.024 39.1219 248.277 39.9458C248.078 40.3669 248.295 40.5134 247.97 40.5317L247.916 40.6049ZM248.982 46.0976C249.6 46.0799 250.216 46.1921 250.789 46.4271C250.265 46.8116 249.651 46.5919 249.036 45.9511L248.982 46.0976ZM254.892 41.795C255.072 42.1612 255.253 41.5753 255.416 42.1795L255.145 42.6738C254.982 42.1978 254.819 42.2893 254.946 41.6485L254.892 41.795ZM252.759 21.8566C253.211 21.4172 253.681 22.2411 254.151 21.9664C254.024 22.9368 253.229 22.058 252.813 21.7101L252.759 21.8566ZM254.566 43.6625C254.6 43.6111 254.619 43.5505 254.619 43.4886C254.619 43.4266 254.6 43.366 254.566 43.3146C254.422 43.6076 254.277 43.5893 254.133 43.4611C254.422 42.9301 254.729 42.802 255.018 43.1865C254.964 43.2597 254.819 43.6991 254.657 43.516L254.566 43.6625ZM254.801 46.9398C255.09 47.5623 255.398 46.3722 255.687 46.9398C255.524 47.4341 254.819 47.6905 254.819 46.7933L254.801 46.9398ZM255.813 43.0583C255.958 42.3626 256.265 42.1978 256.627 42.6006C256.416 42.7653 256.167 42.8725 255.904 42.9118L255.813 43.0583ZM257.837 23.4494C257.584 23.248 257.313 23.8889 257.06 23.2114C257.349 21.9115 258.289 23.5044 257.928 23.303L257.837 23.4494ZM257.946 43.2048C257.53 43.3146 257.114 42.9668 256.699 42.7837C257.169 41.9231 258.235 41.7767 258.036 43.0583L257.946 43.2048ZM259.898 43.3329C260.277 43.754 260.241 42.6372 260.693 43.2231C260.566 43.7723 259.898 44.1385 259.988 43.1865L259.898 43.3329ZM263.241 24.1452C263.241 24.8592 262.717 25.0057 262.446 24.6212C262.554 23.5959 263.06 23.8889 263.331 23.9987L263.241 24.1452ZM262.735 44.5596L262.283 43.6625C261.687 44.4498 261.542 43.6625 260.874 44.2667C261.036 43.9188 260.747 43.5709 261.054 43.2414C261.398 43.9188 261.759 43.5709 262.102 43.2414C262.014 42.9597 261.985 42.6619 262.02 42.3682C262.054 42.0745 262.15 41.7916 262.301 41.5387C262.554 41.795 262.825 41.8682 263.096 42.4358C262.825 43.0034 262.554 42.5273 262.283 43.2414C262.446 43.9554 263.114 43.6259 263.169 44.3399C263.114 44.0287 262.97 44.1202 262.825 44.4132L262.735 44.5596ZM262.916 43.5343C263.205 43.0217 263.494 43.2048 263.801 43.9371C263.584 44.1751 263.295 43.5893 263.006 43.3879L262.916 43.5343ZM275.458 48.2763C275.621 48.7341 275.06 49.3566 274.916 48.9355C274.771 48.5144 275.295 47.3243 275.548 48.1299L275.458 48.2763ZM270.398 26.3056C270.054 25.8113 269.711 26.4887 269.349 25.5367C269.729 25.0423 270.488 25.3719 270.488 26.2141L270.398 26.3056ZM264.416 44.4315L264.777 43.7723C265.012 44.523 265.247 44.523 265.482 43.7723L265.753 44.3033C265.392 44.8343 264.94 44.4498 264.506 44.3399L264.416 44.4315ZM264.994 23.8706C265.301 23.3396 265.627 23.6692 265.952 24.1086C265.663 24.7128 265.392 23.8889 265.084 23.779L264.994 23.8706ZM266.096 47.1229C266.368 47.251 267.108 47.1229 267.072 47.7088C266.892 47.6905 266.169 47.8919 266.187 47.0313L266.096 47.1229ZM267.904 45.6948L267.47 44.816C267.108 44.816 266.765 45.8596 266.404 45.0906C266.566 44.0104 267.38 43.8639 267.831 44.1568C267.741 43.9005 267.831 43.8639 267.994 43.8273C267.705 43.8273 267.416 43.0034 267.108 43.0766C266.675 44.0287 266.223 44.7427 265.789 43.8456C266.494 43.8456 266.313 43.1315 266.584 42.6921C266.584 43.5893 266.928 43.04 267.108 42.3809C267.343 42.3809 267.434 42.6372 267.47 43.0949C268.084 42.3076 268.717 43.571 269.277 42.7104C269.566 43.1498 269.277 44.2118 269.729 43.2597C270.036 43.7723 270.054 45.0906 269.548 44.6146C269.614 44.5109 269.65 44.3901 269.65 44.2667C269.65 44.1433 269.614 44.0225 269.548 43.9188C269.693 45.8596 268.645 45.1089 268.048 45.6032L267.904 45.6948ZM274.066 48.3313L273.705 47.6172C273.886 47.1961 274.048 47.0313 274.229 47.306C273.976 47.544 274.699 47.9102 274.211 48.2397L274.066 48.3313ZM274.211 44.2118C274.374 45.0357 273.723 45.0174 274.048 45.5849C273.868 45.8596 273.687 46.0243 273.524 45.8962C274.048 45.2554 273.777 43.6076 274.355 44.1202L274.211 44.2118ZM271.554 44.3949C272.006 44.1751 272.91 43.4611 273.054 44.3949C273.054 44.285 272.494 44.3948 272.711 44.7244C273 44.523 273.307 44.7244 273.596 45.1272C273.361 45.7314 273.127 45.2737 272.892 44.7244C272.621 45.2371 272.096 44.9441 272.096 45.8779C271.518 45.1089 270.831 46.7201 270.488 45.0906C270.488 46.1159 269.837 46.0427 269.512 45.53C270.361 45.3652 270.217 44.1385 271.012 43.4062C271.518 44.6695 271.482 43.0949 271.699 44.3033L271.554 44.3949ZM271.97 25.7198C271.97 25.0423 272.548 25.0789 272.855 25.7198C272.566 26.5253 272.277 26.1042 271.97 25.7198ZM273.614 37.1445C273.904 37.1445 274.193 36.6319 274.5 37.1445C274.265 37.7487 273.56 38.0966 273.614 37.2178V37.1445ZM284.133 31.7983C284.368 31.7983 284.584 31.2124 284.837 31.7983C284.476 32.787 284.187 31.9448 284.133 31.8716V31.7983ZM296.657 36.7051C296.837 36.9248 296.657 36.4488 296.91 36.1925C297.199 37.291 297.416 35.6249 297.705 36.7234C297.434 37.5839 296.675 37.2361 296.657 36.7051Z" fill="#C1C2CD"/>
</svg>
