<svg width="300" height="285" viewBox="0 0 300 285" fill="none" xmlns="http://www.w3.org/2000/svg">
<path fill-rule="evenodd" clip-rule="evenodd" d="M103.815 10.4651C105.286 10.5459 106.729 10.0469 107.834 9.076C108.938 8.1051 109.615 6.74024 109.718 5.27635C109.56 3.82669 108.87 2.48628 107.78 1.51245C106.691 0.538617 105.279 0 103.815 0C102.352 0 100.94 0.538617 99.8502 1.51245C98.7608 2.48628 98.0709 3.82669 97.9128 5.27635C98.0154 6.74024 98.6921 8.1051 99.7965 9.076C100.901 10.0469 102.345 10.5459 103.815 10.4651ZM139.802 256.583C69.373 256.583 -41.9737 215.661 16.3036 126.692C116.314 -25.9421 287.327 -55.3448 287.362 150.578C287.362 230.639 209.069 256.583 139.802 256.583ZM92.6527 25.5818C92.6527 31.2721 86.4899 35.9592 78.8862 35.9592C71.2652 35.9592 65.1024 31.2721 65.1024 25.4953C65.1024 19.7186 71.2826 15.1179 78.8862 15.1179C86.4899 15.1179 92.6527 19.8915 92.6527 25.5818ZM217.315 273.568C217.315 279.882 212.177 285 205.84 285C199.502 285 194.365 279.882 194.365 273.568C194.365 267.254 199.502 262.135 205.84 262.135C212.177 262.135 217.315 267.254 217.315 273.568ZM290.157 206.891C288.445 207.072 286.822 207.743 285.485 208.823C284.148 209.903 283.154 211.347 282.623 212.978C282.092 214.61 282.047 216.36 282.493 218.016C282.94 219.673 283.859 221.165 285.139 222.312C286.419 223.459 288.005 224.211 289.705 224.479C291.406 224.746 293.148 224.517 294.72 223.819C296.292 223.121 297.628 221.983 298.565 220.545C299.502 219.106 300.001 217.427 300 215.712C299.861 213.245 298.748 210.933 296.904 209.28C295.06 207.627 292.634 206.769 290.157 206.891ZM269.762 225.791C270.221 225.324 270.804 224.996 271.443 224.845C272.442 224.727 273.448 225.002 274.246 225.613C275.044 226.224 275.571 227.122 275.713 228.114C275.732 228.768 275.564 229.414 275.229 229.976C274.894 230.539 274.406 230.995 273.821 231.292C273.236 231.59 272.579 231.716 271.925 231.656C271.271 231.596 270.648 231.353 270.128 230.954C269.607 230.556 269.21 230.018 268.984 229.405C268.757 228.791 268.71 228.125 268.848 227.486C268.986 226.846 269.303 226.259 269.762 225.791Z" fill="#C1C2CD"/>
</svg>
