<svg width="300" height="279" viewBox="0 0 300 279" fill="none" xmlns="http://www.w3.org/2000/svg">
<path fill-rule="evenodd" clip-rule="evenodd" d="M20.1197 133.218C9.11818 114.622 0.0920629 94.0393 0.000890029 72.425C-0.105478 50.4769 9.66522 28.4682 26.8665 14.7109C44.0678 0.953558 68.2438 -3.86985 89.016 3.30459C102.187 7.86226 113.288 16.6033 124.304 25.2776C126.962 27.3711 129.616 29.4607 132.293 31.4866C152.715 46.8811 175.423 58.9947 199.594 67.3892C208.519 70.4916 219.256 71.6005 230.134 72.7239C246.592 74.4237 263.373 76.1567 274.69 84.8778C287.074 94.373 296.374 108.054 299.23 123.344C302.816 142.41 293.319 164.904 282.181 175.779C269.85 187.815 250.015 192.206 230.278 196.575C213.872 200.207 197.534 203.824 185.629 211.803C174.316 219.393 167.647 229.598 160.895 239.929C154.977 248.984 148.996 258.137 139.769 265.71C123.267 279.255 99.2426 282.683 79.3669 274.902C69.4534 270.841 60.6858 264.421 53.8286 256.201C46.9713 247.981 42.2327 238.212 40.0258 227.745C37.9729 217.837 38.2012 207.639 38.4297 197.43C38.5394 192.526 38.6492 187.619 38.5062 182.741V182.484C38.0429 168.582 33.8443 155.061 26.3499 143.335C24.2225 139.998 22.1407 136.616 20.1197 133.218ZM27.5807 164.237C32.8231 161.113 34.0388 188.203 31.2732 202.081C28.5076 215.96 11.1544 211.698 16.3664 192.328C21.5785 172.959 26.0004 165.178 27.5807 164.237ZM290.463 203.703C286.117 198.986 279.583 196.711 273.17 196.286C266.758 195.861 260.345 197.075 254.039 198.364C240.547 200.934 227.21 204.256 214.09 208.314C208.185 210.376 202.388 212.735 196.722 215.383C194.985 216.05 193.395 217.05 192.041 218.325C191.365 218.969 190.87 219.778 190.603 220.672C190.337 221.566 190.309 222.514 190.522 223.422C190.932 224.38 191.607 225.201 192.468 225.789C193.33 226.378 194.341 226.709 195.384 226.743C197.458 226.77 199.518 226.415 201.463 225.697C218.178 220.767 236.291 218.234 253.127 223.042C255.457 223.705 257.741 224.505 260.023 225.304L260.024 225.304C262.342 226.117 264.658 226.928 267.016 227.593C271.655 229.165 276.587 229.684 281.452 229.109C283.876 228.794 286.199 227.942 288.252 226.617C290.305 225.292 292.036 223.527 293.319 221.45C296.465 215.898 294.793 208.436 290.463 203.703Z" fill="#C1C2CD"/>
</svg>
