<svg width="300" height="258" viewBox="0 0 300 258" fill="none" xmlns="http://www.w3.org/2000/svg">
<path fill-rule="evenodd" clip-rule="evenodd" d="M0 129.002C0 57.7551 57.6035 0 128.663 0C199.719 0 356.815 66.9533 257.323 129.002C231.529 145.087 217.262 170.993 203.829 195.384C185.839 228.051 169.346 258 128.663 258C57.6035 258 0 200.248 0 129.002ZM240.589 184.268C240.589 167.819 250.209 162.942 266.614 162.942C283.02 162.942 299.986 167.819 299.998 184.268C300.039 188.205 299.3 192.11 297.825 195.759C296.35 199.408 294.169 202.727 291.406 205.525C288.644 208.323 285.356 210.545 281.732 212.06C278.108 213.576 274.22 214.357 270.294 214.357C266.367 214.357 262.479 213.576 258.855 212.06C255.232 210.545 251.943 208.323 249.181 205.525C246.419 202.727 244.237 199.408 242.762 195.759C241.287 192.11 240.549 188.205 240.589 184.268Z" fill="#C1C2CD"/>
</svg>
