<svg width="345" height="300" viewBox="0 0 345 300" fill="none" xmlns="http://www.w3.org/2000/svg">
<path fill-rule="evenodd" clip-rule="evenodd" d="M280.887 0.215617C269.735 -1.17671 255.334 4.23195 249.989 14.7637C241.43 31.6323 259.027 43.7526 272.132 50.5715C284.314 56.9084 294.542 65.8871 304.238 75.562C306.402 77.7214 308.559 80.5354 310.807 83.4698C315.844 90.0438 321.345 97.2223 328.441 98.9995C364.293 107.925 331.513 45.7697 326.523 37.8263C316.33 21.6361 301.166 2.75037 280.887 0.215617ZM151.027 67.4052C151.02 63.3747 152.107 59.4187 154.17 55.9631C156.141 52.5475 158.81 49.5907 162.001 47.2878C168.429 42.6467 176.385 40.5939 184.251 39.8264C189.811 39.1072 195.459 39.557 200.837 41.1473C203.519 41.9571 206.013 43.3002 208.169 45.0971C210.326 46.8939 212.102 49.1079 213.391 51.6076C216.889 59.1762 214.208 68.4583 208.881 74.8131C198.422 87.2191 179.439 95.1089 164.079 87.2191C160.356 85.3692 157.188 82.5613 154.895 79.081C152.603 75.6008 151.268 71.5722 151.027 67.4052ZM20.2442 229.736C2.04286 194.481 -4.61615 152.979 3.26812 114.333C9.74956 82.4166 27.0452 55.998 62.0095 52.6957C89.2938 50.1371 105.401 64.9733 122.04 80.299C132.333 89.7795 142.83 99.4473 156.301 105.301C173.302 112.664 192.212 111.792 210.93 110.928L210.93 110.928C215.399 110.722 219.858 110.517 224.276 110.424C247.201 109.942 273.145 114.512 285.965 133.629C297.383 150.659 294.418 173.614 287.315 192.892C246.651 304.314 81.5071 347.923 20.2442 229.736ZM133.891 24.92C140.284 24.5451 145.611 31.0784 144.546 37.2546C144.17 39.8892 142.81 42.2813 140.744 43.945C138.677 45.6088 136.058 46.4197 133.418 46.2129C130.778 46.0062 128.316 44.7974 126.53 42.8319C124.745 40.8664 123.771 38.2916 123.805 35.6302C123.883 32.9109 124.954 30.3157 126.815 28.3402C128.675 26.3646 131.195 25.147 133.891 24.92Z" fill="#C1C2CD"/>
</svg>
