<svg width="300" height="270" viewBox="0 0 300 270" fill="none" xmlns="http://www.w3.org/2000/svg">
<path d="M33.8432 63.8619C5.78029 103.78 -3.38566 154.744 1.07176 203.254C2.72498 221.164 6.49181 239.76 17.9597 253.677C29.4276 267.593 50.5219 275.019 66.2798 266.158C77.371 259.917 83.4817 247.436 93.7358 240.072C106.982 230.462 125.126 230.587 141.072 234.227C157.019 237.868 172.463 244.628 188.597 246.708C221.117 251.201 255.061 236.411 275.716 211.033C296.37 185.655 303.904 150.854 298.107 118.737C292.311 86.6189 273.79 57.351 248.804 36.1749C198.265 -6.71801 129.521 -12.6049 73.8972 24.63C58.2306 35.1456 44.6518 48.4458 33.8432 63.8619V63.8619Z" fill="#C1C2CD"/>
</svg>
