<svg width="300" height="300" viewBox="0 0 300 300" fill="none" xmlns="http://www.w3.org/2000/svg">
<path d="M298.418 138.748C299.141 138.519 299.407 139.927 299.407 138.367C299.244 138.263 299.106 138.124 299.002 137.96C298.898 137.797 298.831 137.613 298.806 137.421C298.781 137.229 298.797 137.034 298.855 136.849C298.913 136.665 299.01 136.495 299.141 136.351C298.684 135.439 298.304 136.846 298.152 135.933C298.142 135.627 298.198 135.323 298.316 135.041C298.434 134.759 298.611 134.505 298.836 134.298C299.369 134.298 299.065 135.325 299.825 135.134C299.41 133.893 299.093 132.621 298.874 131.331C297.771 131.331 298.874 132.7 297.581 132.966C293.283 124.447 293.778 114.368 291.42 105.62C292.18 105.05 292.333 107.978 292.561 106.647C291.077 102.844 289.936 102.425 290.925 99.3064C290.583 97.8612 289.442 98.0894 288.757 97.3667C289.214 95.8073 285.981 92.4603 287.578 90.3685C286.361 90.3685 287.16 88.4287 285.905 87.9723C287.046 87.592 286.589 87.0215 285.905 86.7553C287.654 86.0326 285.905 84.5493 286.666 83.5984C285.41 83.3702 285.258 82.2292 285.296 80.7459C284.536 80.0613 284.726 81.4686 284.231 80.7459C284.231 78.654 281.683 76.5622 283.357 74.7366C281.531 74.2801 280.162 69.2216 280.77 67.6623C278.983 68.1567 277.385 63.8589 278.146 63.8589C276.664 62.9707 275.264 61.9524 273.962 60.8162C274.495 60.8162 274.951 60.8162 275.484 60.8162C274.744 59.2382 273.919 57.7019 273.011 56.2141L270.083 52.0684C267.818 48.9266 265.832 45.5922 264.149 42.1035C263.976 42.2559 263.753 42.34 263.522 42.34C263.291 42.34 263.068 42.2559 262.894 42.1035C263.313 38.3001 255.972 36.2843 259.091 33.7741C257.874 32.2147 258.102 34.3826 256.885 33.7741C254.451 29.7045 251.218 28.2211 250.647 25.4447C248.771 24.2708 246.955 23.0013 245.209 21.6413C245.627 20.9947 246.235 22.1737 246.692 21.6413C243.991 19.055 241.9 18.5225 240.911 15.3276C239.998 16.5828 238.667 14.7952 237.678 15.5178C239.161 16.9631 241.101 18.7887 240.606 20.7665C238.971 20.1199 239.694 18.2943 238.591 18.5225C239.846 22.5921 243.155 22.3259 245.969 25.6348C245.698 25.879 245.346 26.0144 244.98 26.0152C245.589 27.4985 247.3 28.1831 248.556 28.8677C249.43 30.5538 250.545 32.104 251.865 33.4698C253.12 34.9531 254.451 36.3984 255.668 37.8437C258.598 40.3798 260.803 43.6478 262.058 47.3141C264.53 48.3791 266.622 51.9162 268.714 54.9209C267.078 55.1871 266.089 51.3838 264.454 51.7261C265.29 53.0953 268.98 57.7354 268.257 59.1046C268.79 58.7623 269.322 58.5722 269.664 59.1046C270.007 59.6371 269.436 60.0935 269.664 60.7781C271.604 60.5119 273.468 66.6353 274.343 68.6131C274.343 68.3088 274.343 68.1187 274.761 68.0046C274.495 68.8793 277.309 70.4387 276.701 72.1503C276.472 71.3135 276.054 70.8951 275.484 71.0473C275.065 72.9109 277.195 71.6938 277.575 73.4434C276.929 73.8618 276.815 72.5686 276.244 72.7588C277.842 75.6113 279.211 81.2404 280.77 83.7126C281.949 83.7126 280.77 82.4574 281.759 82.5715C281.759 83.142 282.786 84.3211 282.101 84.4732C281.417 84.6254 281.341 84.0549 280.922 84.0929C281.873 86.8694 282.634 89.6458 283.547 92.5744C284.573 95.7002 285.336 98.9062 285.829 102.159C284.536 103.376 287.122 107.56 287.16 109.766C287.16 112.504 288.681 116.84 289.138 120.681C290.051 126.805 289.138 133.042 290.621 138.253C290.127 138.253 289.518 138.253 289.632 139.014C290.127 139.014 290.849 139.014 290.925 139.432C290.868 140.183 290.648 140.912 290.281 141.569C289.913 142.226 289.406 142.795 288.795 143.236C289.408 143.684 289.936 144.238 290.355 144.871C290.355 144.186 289.518 142.893 290.355 142.551C290.355 143.274 291.268 143.274 290.925 144.491C288.757 145.936 290.165 145.137 289.442 147.495C289.494 147.258 289.467 147.01 289.364 146.79C289.26 146.57 289.087 146.39 288.871 146.278C289.86 148.142 287.692 150.652 288.529 152.44C288.883 151.018 289.393 149.641 290.051 148.332C289.82 149.755 289.82 151.207 290.051 152.63C289.404 152.934 289.1 151.337 288.757 152.63C289.898 154.608 285.943 157.08 287.084 159.78C287.084 158.982 287.921 157.765 287.921 158.753C287.921 159.742 287.236 159.856 286.97 160.541C288.986 162.405 286.475 164.839 286.97 166.855C286.791 167.107 286.558 167.316 286.288 167.467C286.019 167.618 285.719 167.708 285.41 167.729C286.361 168.604 285.829 172.179 285.41 172.94C284.345 172.94 285.41 171.152 284.916 170.81C284.498 173.233 284.563 175.715 285.106 178.113C285.106 179.025 284.079 178.113 283.851 178.987C285.41 178.759 284.802 181.688 284.383 183.628C283.319 183.171 282.786 183.095 282.634 182.677C283.128 182.41 283.319 181.003 283.052 180.357C282.101 181.231 282.292 178.949 281.531 178.721C281.949 177.999 282.254 178.075 282.596 178.721C282.596 175.755 284.307 172.522 284.231 169.593C284.612 169.593 284.802 170.43 285.182 169.821C283.927 170.126 285.182 168.49 284.498 168.452C283.623 169.403 283.357 167.311 283.242 166.626C283.623 167.159 283.927 167.197 284.269 166.626C282.482 165.371 285.182 163.85 284.269 162.823C284.878 162.024 285.144 163.736 285.334 162.214L284.041 162.024C284.041 160.617 284.574 156.7 284.688 155.597C284.802 154.494 282.938 156.433 283.471 154.684C284.916 155.14 283.471 150.5 285.677 150.386C285.068 146.849 286.513 145.518 285.258 142.475C285.829 142.475 286.437 140.307 285.677 139.851C285.905 140.497 284.992 141.448 284.992 140.573C285.823 137.579 286.195 134.475 286.095 131.369C286.095 128.136 285.753 124.827 285.905 121.899C285.88 122.073 285.811 122.238 285.705 122.377C285.598 122.517 285.458 122.627 285.296 122.697V121.214C285.648 121.175 286.001 121.27 286.285 121.48C285.372 120.263 287.236 118.133 286.589 117.296C286.323 118.399 286.209 116.726 286.589 116.536C285.677 116.536 285.829 116.536 285.144 115.585C285.144 116.155 285.448 116.954 285.144 117.106C283.357 114.102 284.117 109.309 283.699 105.924C282.9 104.897 282.824 107.37 282.063 106.229C283.052 104.859 280.01 103.756 281.493 102.958C282.368 102.958 282.71 106.761 283.813 104.745C282.634 103.148 280.428 102.425 281.113 99.991C278.07 101.018 278.26 95.8834 276.358 94.7424C276.739 93.7155 277.005 90.939 275.674 89.9881C275.994 91.0794 276.05 92.2311 275.839 93.3485C275.627 94.4659 275.153 95.5171 274.457 96.4159C274.457 95.9975 274.228 95.389 273.848 95.465C273.848 97.5188 275.56 96.3018 275.636 98.3176C276.853 98.0513 275.636 96.1496 276.625 95.8073C277.657 98.2117 278.2 100.798 278.222 103.414C278.222 102.197 277.081 103.148 276.929 102.197C276.777 101.246 277.347 99.991 276.929 100.029C275.103 100.029 272.935 96.2257 273.848 93.7535C271.794 93.2591 273.011 90.7108 272.859 90.2924C272.859 91.3193 271.642 90.2924 271.452 89.9881C272.897 89.5698 271.224 86.1848 270.539 88.4288C270.007 87.0595 270.539 86.5271 271.148 86.3369C270.176 85.44 269.073 84.6962 267.877 84.1309C268.675 83.8647 269.094 84.3972 268.98 83.3322C268.257 82.6856 268.295 83.3322 267.801 83.0279C267.306 82.7237 267.801 82.5335 268.295 82.4574C265.671 82.1151 267.763 78.0455 266.47 77.8173C266.47 78.2357 266.698 78.654 266.127 78.7301C265.709 77.1707 264.986 75.6113 265.747 74.6605C264.187 74.6605 265.747 73.3293 264.986 72.2644C264.498 72.2785 264.014 72.1671 263.581 71.9407C263.148 71.7142 262.781 71.3804 262.514 70.9712C262.826 70.8376 263.101 70.6285 263.313 70.3627L263.769 71.2755C264.606 71.2755 264.492 70.8191 265.519 71.2755C264.477 69.8021 263.573 68.2362 262.818 66.5973C262.362 66.8255 262.362 67.2059 262.324 67.5862C262.123 67.4078 261.869 67.3009 261.601 67.2819L260.993 66.9777C261.221 66.5593 261.677 66.6353 261.677 65.7606C261.038 64.9947 260.477 64.1665 260.004 63.2884C260.27 63.2884 260.498 63.2884 260.65 63.2884C259.852 62.3755 260.917 62.4516 261.297 62.4897C260.574 62.1093 259.89 61.4627 259.091 61.5008C259.623 60.4358 259.928 61.805 261.183 61.9952C261.183 61.0063 259.661 60.8922 260.194 59.7132C259.852 59.7132 259.243 59.523 259.053 59.9794C257.76 56.176 253.918 53.5517 252.207 49.9765C251.788 49.9765 251.826 50.509 251.712 50.8893C250.938 50.8205 250.212 50.4843 249.659 49.9385C249.916 49.6439 250.099 49.2917 250.191 48.9116C250.533 49.2158 250.762 49.406 250.8 49.368C250.838 49.3299 250.495 48.4552 249.849 47.7705C249.675 47.5402 249.47 47.3354 249.24 47.162C248.937 46.8794 248.591 46.6482 248.213 46.4774C246.882 45.7167 245.361 44.956 244.98 43.9672C247.529 42.7881 248.784 44.6137 250.381 45.8308H250.153C250.519 46.1804 250.736 46.6568 250.762 47.162C251.446 46.8577 252.055 47.162 252.739 47.162C252.739 48.0368 252.739 48.9876 254.032 48.9116C253.969 48.2092 253.711 47.5385 253.287 46.9743C252.864 46.4102 252.293 45.9747 251.636 45.7167C252.055 45.4505 252.397 46.2872 252.853 45.7167C252.245 44.0813 251.37 45.9829 250.723 45.0701C251.142 44.4996 250.724 43.815 251.522 43.9672L250.762 43.0163C251.142 43.0163 251.484 43.4727 252.207 43.0163C252.929 40.9244 248.746 42.1796 249.582 40.0497L247.224 39.7074C246.758 39.2946 246.171 39.0414 245.551 38.9847L246.083 39.5933H244.258C244.03 38.3762 244.866 38.4522 245.741 38.4903C245.803 38.2148 245.803 37.929 245.741 37.6535C246.007 37.3493 246.35 37.045 245.741 36.6266C245.598 36.6918 245.442 36.7255 245.285 36.7255C245.127 36.7255 244.972 36.6918 244.828 36.6266C244.603 36.4715 244.42 36.2623 244.296 36.0181C244.296 36.0181 244.296 36.0181 244.296 36.0181C244.252 35.8304 244.252 35.6352 244.296 35.4476C243.839 36.4364 243.801 36.1702 242.85 36.2843H242.318C242.318 36.8548 243.459 36.8168 243.003 37.8437C242.532 37.7025 242.115 37.4245 241.803 37.0452C241.492 36.6659 241.3 36.2024 241.253 35.7138L237.83 34.1924C238.591 32.9754 239.009 33.8882 237.83 32.4429C237.564 31.3779 238.439 31.7202 238.781 31.416C238.745 31.6044 238.745 31.798 238.781 31.9865C239.694 30.7694 238.781 30.1228 238.781 29.2861C238.77 29.0759 238.69 28.8752 238.553 28.7156C238.5 28.4776 238.5 28.2309 238.553 27.9929C238.248 28.2972 237.906 27.7647 237.602 27.9929C237.618 28.0681 237.618 28.146 237.602 28.2211C237.171 28.0839 236.77 27.8643 236.423 27.5746V27.5746C235.776 27.0421 235.168 26.4716 235.624 25.9391C236.233 26.2434 236.917 27.6506 237.45 27.1562C237.18 26.5755 236.784 26.0623 236.29 25.6544C235.797 25.2464 235.218 24.9538 234.597 24.7981V24.7981C233.287 24.421 232.013 23.9245 230.794 23.3148C231.142 23.9854 231.621 24.5801 232.201 25.0643C232.201 25.3306 232.201 25.6729 232.201 25.9771C232.848 26.3575 234.027 26.2434 234.445 26.8899L236.233 27.8788C236.233 28.2211 237.298 28.7156 237.031 29.3621C237.488 29.1339 237.64 28.9818 237.868 28.9818C237.798 29.3823 237.697 29.7766 237.564 30.1609C238.096 31.0356 238.553 30.1609 239.047 30.7314L238.819 30.9596C238.819 30.9596 238.819 30.9596 238.819 30.7314C236.879 31.9485 236.423 30.313 233.874 30.351C232.862 29.0423 231.935 27.6703 231.098 26.2434C230.05 26.6143 228.929 26.7316 227.827 26.5857C227.807 26.4215 227.807 26.2554 227.827 26.0912C227.693 26.2129 227.578 26.3539 227.485 26.5096C226.8 26.5096 226.078 26.1673 225.241 26.0532C224.822 24.7601 226.762 25.7489 226.914 25.1024C225.829 24.5478 224.641 24.2213 223.424 24.1428C222.208 24.0643 220.988 24.2355 219.84 24.6459L219.346 23.9994C219.922 23.6547 220.458 23.2465 220.943 22.7823C219.726 23.0485 219.498 22.2878 218.395 22.478C218.09 19.055 215.01 21.5272 214.591 18.4464C213.186 18.1931 211.81 17.7981 210.484 17.2674C210.484 17.5336 210.484 17.6477 210.484 17.7618L209.457 17.0392C209.295 16.8287 209.088 16.6578 208.851 16.5392C208.614 16.4206 208.353 16.3574 208.088 16.3546C207.912 16.3197 207.731 16.3197 207.555 16.3546V16.3546C207.254 16.2941 206.944 16.2941 206.642 16.3546C205.045 14.8999 203.111 13.8671 201.013 13.3499L199.492 12.8554C199.834 11.7525 201.432 11.4862 202.611 10.8777C200.899 10.0409 199.264 11.182 197.134 9.73667C196.753 8.51959 197.134 8.59566 196.221 8.17728C195.042 8.51959 197.514 9.2042 196.221 9.5465C196.824 10.086 197.583 10.4191 198.389 10.4973C198.123 11.7144 198.009 11.4482 199.264 12.0948C199.264 12.4371 198.845 12.4751 198.465 12.5512H197.932C197.59 12.0948 197.59 11.0298 197.02 10.9918C196.449 10.9538 196.183 11.3721 196.221 11.7905C195.489 11.4624 194.789 11.0678 194.129 10.6115C194.129 10.6115 194.129 10.6115 194.129 10.6115H193.939C193.939 9.88881 194.205 9.81274 194.852 10.0409C195.498 10.2691 194.852 10.4973 195.194 11.0298C195.612 10.4973 196.297 10.079 195.993 9.0901C191.086 10.6875 188.158 9.0901 184.278 9.0901C184.278 8.63369 183.86 8.21532 184.278 8.02515C182.663 8.69405 180.872 8.81431 179.182 8.36745C179.41 7.1884 182.186 7.64481 182.301 6.92216C182.529 8.13925 183.366 7.87301 182.605 6.92216C180.019 6.95047 177.446 6.53891 174.998 5.70508C174.77 3.95552 177.851 5.70508 178.421 4.10766C177.432 3.80339 177.318 3.23288 176.481 4.10766C175.682 3.49712 174.739 3.10401 173.743 2.96664C172.478 2.83954 171.204 2.83954 169.94 2.96664C167.685 3.10293 165.424 3.10293 163.17 2.96664C162.599 2.16793 165.375 2.3581 164.158 1.33119C163.754 1.77482 163.25 2.11639 162.688 2.32792C162.126 2.53946 161.522 2.61497 160.926 2.54827C161.572 2.96664 162.219 3.53715 163.017 3.42305C163.017 3.68929 163.017 3.84142 163.017 4.14569C161.344 4.6021 160.355 2.4722 158.453 3.84142C158.073 3.38501 158.453 3.08074 157.997 2.5863C156.59 3.42305 155.639 2.5863 154.384 2.77647C154.228 2.61973 154.141 2.40782 154.141 2.18695C154.141 1.96608 154.228 1.75417 154.384 1.59742C153.889 1.14102 153.091 2.05383 152.71 1.02691C152.14 1.02691 152.33 1.59742 152.71 1.93973C150.709 1.48341 148.674 1.19085 146.625 1.06495C144.723 1.06495 142.821 1.06495 140.539 1.33119C140.197 0.836745 140.539 0.380339 141.148 0C140.425 0 139.627 0.304271 138.904 0C137.649 0.532474 139.322 1.29315 138.257 1.78759C137.192 0.760677 135.975 1.10298 134.796 1.97776C134.112 1.44529 134.796 1.02691 133.883 0.49444C133.427 0.988881 133.883 1.59742 133.541 2.09186C132.21 0.760678 132.4 2.09186 130.574 2.51024C129.928 2.05383 130.574 1.59742 129.624 1.14102C129.515 1.3261 129.478 1.5446 129.521 1.75497C129.563 1.96534 129.681 2.15292 129.852 2.28203C128.331 3.00468 124.945 1.55939 124.907 0C122.625 0.950847 126.847 1.33119 125.44 2.77647C124.603 2.77647 124.831 2.1299 123.728 1.63546C122.625 2.54827 121.18 1.63546 120.838 3.49912C119.773 3.49912 118.594 3.95552 118.061 2.5863L116.92 3.84142C117.947 4.98244 117.149 2.85254 118.175 3.84142C117.681 5.62901 113.992 4.86834 112.052 6.31362C112.28 5.36278 112.052 4.64013 113.041 4.14569C111.177 3.08074 111.291 6.16149 109.656 6.61789C108.325 5.28671 107.374 6.61789 106.385 7.56874C104.826 6.57986 103.57 7.56874 102.315 8.13925C101.745 7.26447 103.494 7.53071 103.761 6.69396C103.152 6.08542 104.141 5.17261 103.761 4.6021C102.696 6.23756 100.87 6.88413 99.9572 8.63369C99.4628 8.32942 98.9683 8.63369 97.9414 8.63369C97.0666 7.45464 100.718 7.72088 98.4739 6.65593C99.0064 5.55295 99.9953 6.65593 100.528 5.51491C99.5389 4.6021 97.9795 6.92216 97.7132 5.51491C97.1047 6.50379 96.1538 6.35166 95.0889 7.49267C94.6325 5.62901 93.7197 7.87301 92.1983 7.15037C91.1334 8.93796 89.612 9.01403 88.3949 10.2311C88.4652 10.4483 88.5953 10.6414 88.7701 10.7883C88.9449 10.9351 89.1576 11.0298 89.3837 11.0615C89.6098 11.0933 89.8403 11.0608 90.0488 10.9677C90.2573 10.8747 90.4355 10.7249 90.5629 10.5354C90.9052 12.0948 88.6231 11.9046 87.7483 12.1708C87.5917 11.8897 87.5259 11.5669 87.5599 11.2469C87.594 10.9268 87.7262 10.6252 87.9385 10.3832C87.5201 9.73667 86.8355 9.96487 86.4172 8.93796C87.0637 10.9157 85.2381 9.92684 84.4774 11.7525C85.4283 12.7033 85.5043 11.22 86.3411 11.7525C85.6184 12.1328 85.124 13.1978 84.021 12.5131C83.6407 12.1708 84.3253 12.2089 84.4774 11.6384C83.7548 11.3721 83.2984 11.8285 83.2984 11.3721C82.1574 11.0298 83.5266 12.8554 82.1954 11.9807C82.7279 12.5892 83.4505 13.1597 82.9941 14.1486C81.9292 14.605 82.6518 13.464 81.6249 13.2358C81.2065 13.9965 81.6249 14.3768 81.9672 14.8332C81.6249 15.0614 81.0924 14.8332 80.9023 15.5178C79.3429 15.0614 80.9023 13.3879 79.6091 12.8174C79.6091 13.502 79.4189 14.2247 79.8373 14.7191C79.457 16.0123 77.9356 14.4148 77.7454 16.0883C76.6805 16.0883 76.7566 15.3657 75.9959 15.0994C75.3873 16.3926 74.1703 16.2785 73.1433 16.5828C73.1433 18.2563 71.4318 18.5986 70.2908 19.2071C69.4921 19.2071 71.0134 17.7618 69.6823 17.952C69.378 19.7396 68.0088 19.7015 66.6396 20.6524C66.031 21.6032 67.5524 21.375 67.172 22.1737C66.069 23.1246 66.2972 21.1088 65.0041 21.2609C64.8908 21.3173 64.7898 21.3958 64.7072 21.4917C64.6246 21.5876 64.562 21.6991 64.523 21.8195C64.484 21.94 64.4695 22.067 64.4803 22.1931C64.491 22.3193 64.5269 22.442 64.5857 22.5541C61.2007 21.5272 61.0105 26.3575 58.3101 26.3575C58.3101 28.1451 57.8918 28.2211 57.1311 29.9327C56.8268 30.1989 56.0281 29.6284 55.3435 30.313C54.4687 29.5143 56.1802 28.9818 56.1802 28.069C54.5448 28.3352 54.1644 29.7805 53.8221 31.0737C52.6051 31.454 52.7192 30.6933 51.5401 30.4271C50.9316 31.2638 50.0568 31.0356 50.4752 32.2908H49.144C50.247 33.0134 48.6115 35.0672 46.8239 34.4967C47.3183 36.2843 46.3295 36.2082 45.1504 36.7788C44.9602 38.0339 45.4167 36.7788 46.1393 37.1591C46.1393 37.9958 45.3026 37.9198 44.9602 38.4522C43.515 38.224 44.0094 37.8057 43.7812 37.045C43.3083 37.4686 42.7369 37.7671 42.119 37.9132C41.5012 38.0594 40.8566 38.0486 40.244 37.8817C40.2204 37.7412 40.2502 37.5969 40.3277 37.4772C40.4051 37.3575 40.5245 37.2712 40.6624 37.2352C39.9398 36.7027 38.4945 38.5663 37.7718 39.251C40.0919 37.8437 40.8146 39.251 42.9825 37.9958C42.5641 40.9625 40.0158 38.7185 39.1791 40.2779C39.9398 40.9625 41.9556 40.2779 42.45 41.3048C41.3851 41.1146 40.3201 42.4458 39.103 41.9894C39.3312 43.1684 40.0158 43.8911 40.3201 45.0321C39.3312 43.6629 38.5706 44.6137 37.3154 44.7659C36.0603 44.918 37.3154 43.1684 36.0223 43.4347C36.2505 44.2714 36.0223 44.4236 36.9731 45.1082C36.5548 45.6026 35.2996 45.6787 36.5928 46.1351C35.8813 46.5788 35.0713 46.84 34.2347 46.8958C33.6642 46.4394 35.718 45.2223 34.2347 44.5377C33.854 45.8891 33.2636 47.1725 32.4851 48.3411C31.6864 49.6342 30.8497 50.509 30.127 49.2158C29.5946 49.7483 30.127 51.0415 28.8719 51.0795C29.8988 53.2855 26.8942 54.3124 27.5407 57.0888C26.0574 56.5183 25.9053 58.3059 25.1446 57.0888C24.3459 57.5452 25.7151 58.3059 25.3728 59.4089C24.1938 60.9303 22.6344 62.1473 22.7485 64.5054C21.5314 63.973 20.9609 65.5704 21.6455 66.1409C20.2002 66.1409 20.4664 67.1298 19.4395 67.358C20.2002 67.358 20.4284 67.358 21.5314 67.358C21.2534 67.7651 20.8783 68.0966 20.44 68.3224C20.0017 68.5482 19.5141 68.6611 19.0211 68.6511C18.1083 69.6781 19.7818 69.9063 17.728 70.781C18.0323 71.0473 18.5647 70.781 18.6028 71.5797C18.7547 71.0328 19.0389 70.5316 19.4302 70.1204C19.8216 69.7092 20.308 69.4005 20.8468 69.2216C19.8077 70.6832 18.9039 72.2363 18.1464 73.8618C17.8801 73.8618 17.766 73.6336 17.4237 73.8618C17.4237 72.9109 18.9831 71.9981 17.8041 71.2374C16.587 72.0362 17.8041 73.8998 15.5981 74.8126C15.5981 75.269 15.9024 75.7254 15.5981 75.9156C15.7159 76.0997 15.8983 76.233 16.1095 76.2893C16.3207 76.3456 16.5453 76.3209 16.7391 76.2199C16.9673 77.5511 15.7122 78.1216 15.8643 79.3767C15.0276 79.9472 14.9135 79.3767 14.1528 79.6049C14.1528 80.7079 15.446 79.6049 14.8374 80.7839C14.2289 81.963 14.0767 79.7951 13.4682 80.7839C13.4682 81.5446 14.2289 81.0121 14.381 81.5066C10.3494 83.9027 11.1862 89.3035 8.82807 91.7377C8.25756 91.9659 8.21953 90.7488 7.72509 90.7868C6.7362 91.9279 8.29559 93.9817 6.08963 94.5902C6.13089 94.698 6.19401 94.7961 6.27501 94.8783C6.35601 94.9606 6.45315 95.0251 6.56032 95.068C6.66748 95.1109 6.78235 95.1311 6.89771 95.1274C7.01307 95.1237 7.12643 95.0962 7.23064 95.0466C7.87722 95.8073 7.23064 96.0736 7.68705 96.7582C7.11654 97.2526 6.88834 96.7582 6.66014 96.1496C5.86143 96.6821 6.31783 97.6329 5.78536 98.2415C5.78536 98.5838 6.43193 98.2415 6.77424 98.0513C7.42081 98.774 6.508 99.0022 6.77424 99.6107C6.3939 99.6107 6.1657 99.0782 5.63322 99.6107L6.20373 100.828C5.55715 101.398 5.29092 100.638 4.60631 101.398C4.264 103.832 3.95973 106.267 3.42726 108.625L4.264 108.054C4.264 108.701 4.98665 109.576 4.264 110.108C3.54136 110.641 3.50333 110.108 3.19905 109.614C2.78544 111.082 2.86562 112.645 3.42726 114.064C2.43838 114.292 2.09607 114.862 2.62855 115.927C3.73153 114.824 3.54136 115.927 3.88366 116.65C3.88366 114.368 5.29092 113.645 5.17682 111.135C4.83451 110.793 5.17682 111.325 4.64434 111.515C3.73153 110.831 5.40502 110.679 4.64434 109.956C5.89946 109.423 5.59519 109.347 6.85031 108.473C5.32895 111.059 6.54604 115.243 4.68238 117.03C4.87255 117.22 5.13878 117.03 5.29092 117.373C5.59519 118.361 4.45417 117.03 4.0358 117.905C5.67126 119.655 4.45417 120.948 4.0358 122.355C5.29092 122.925 5.10075 123.914 4.72041 124.903C3.84563 124.485 3.00888 123.496 2.02 124.105C1.7918 123.344 2.28624 122.127 1.29736 122.013C1.29736 123.002 1.29736 123.002 0.232412 123.42C1.22129 123.914 0.955056 124.561 1.71573 124.827C2.02 125.702 1.06916 126.463 1.94394 127.375C0.194378 128.25 0.878988 130.57 1.5636 132.32C0.156345 132.32 0.270446 133.233 1.29736 134.564C1.1056 134.674 0.877867 134.704 0.66402 134.647C0.450173 134.59 0.267629 134.451 0.156345 134.26C-0.490231 135.933 1.10719 137.645 0.650785 139.318C1.10719 139.736 1.5636 138.672 2.02 139.318C2.47641 139.965 0.840954 140.307 2.02 140.801C1.96552 140.897 1.89189 140.98 1.80372 141.046C1.71555 141.112 1.61475 141.159 1.50762 141.184C1.4005 141.209 1.28937 141.211 1.18119 141.191C1.07302 141.171 0.970135 141.129 0.878988 141.068C0.688819 141.866 2.13411 141.068 1.60163 142.323C1.14523 142.969 0.688819 143.236 0.232412 142.855C0.878988 144.072 -0.223994 146.659 1.33539 146.659C0.917022 147.381 0.384548 146.659 0.042243 147.762C1.4495 147.762 0.384548 149.055 0.384548 148.979C0.80292 150.766 2.66658 151.109 1.52556 153.238C2.93282 153.238 2.51444 155.559 2.85675 156.623C2.47641 156.623 2.05804 156.433 1.75377 157.042C3.31316 157.612 2.05804 159.058 3.84563 160.047C4.87254 160.275 4.79648 158.601 4.18794 158.221C4.18794 157.765 5.48109 159.172 5.40502 159.552C6.58407 159.818 5.40502 158.411 5.40502 158.031C5.40502 157.65 6.2798 158.297 6.69817 158.563C7.11654 158.829 5.55715 160.199 7.19261 160.959C6.77424 161.682 6.3939 162.405 5.74732 161.986C5.13878 163.051 6.508 163.698 5.74732 164.801C6.3939 164.801 7.11654 164.458 7.30671 165.523C5.35517 165.004 3.67111 163.768 2.59051 162.062C2.5069 162.958 2.36716 163.847 2.17214 164.725C2.70461 165.029 3.65546 164.915 3.12299 165.866C3.54136 165.866 3.88366 165.676 4.30204 165.866C5.17682 166.855 3.9217 166.626 3.57939 167.843C5.40502 167.235 6.58407 171.647 4.91058 172.56C6.01356 172.255 5.21485 173.587 6.54604 173.967C7.07851 172.94 5.70929 172.446 6.24176 171.419C7.07851 171.229 6.92637 173.472 7.11654 174.309C7.41643 174.292 7.71667 174.337 7.9982 174.442C8.27974 174.546 8.53643 174.709 8.752 174.918C9.47464 175.298 8.25756 175.678 7.87722 175.146C7.87722 176.097 9.32251 175.678 9.51268 175.146C9.01824 174.69 9.51268 173.967 8.33363 173.663C8.67593 173.32 9.13234 173.168 9.51268 172.826C10.5016 173.739 9.51268 175.222 10.5396 176.135C9.77891 176.667 7.53492 175.26 7.87722 176.934C8.9802 176.249 8.59986 176.934 9.36054 177.808C8.10542 178.379 8.5238 177.162 8.37166 179.178C9.24644 179.178 9.55071 179.178 10.2734 179.862C8.752 180.851 11.4524 181.46 10.2734 183.057C8.79003 180.395 6.66014 178.721 6.66014 174.918C5.51912 176.591 5.25288 172.902 3.65546 173.891C3.35119 174.423 3.65546 174.766 3.38922 175.298C4.98665 175.298 4.56827 177.694 3.88366 178.417C4.91058 177.314 5.40502 179.178 6.35587 177.922C6.35587 178.607 7.45885 179.025 7.00244 179.9C6.54604 180.775 6.43193 177.884 5.82339 179.9C4.68238 179.71 6.05159 178.759 4.91058 178.569C4.68238 179.14 4.22597 178.987 4.0358 179.634C5.97553 180.623 4.98665 181.384 4.0358 182.106C5.89946 181.498 5.67126 185.111 6.7362 186.442C7.76312 186.442 7.26868 186.138 7.53492 185.301C9.66481 186.328 9.43661 189.485 11.1481 189.713C11.1481 190.892 10.0832 189.979 9.74088 190.55C8.98175 189.389 8.44043 188.101 8.14346 186.746C7.82318 186.622 7.46846 186.619 7.14617 186.738C6.82389 186.857 6.55632 187.09 6.3939 187.393C7.00244 187.393 6.92637 187.963 6.81227 188.344C6.69817 188.724 7.49688 188.344 7.68705 188.039C6.96441 189.903 9.85498 192.984 11.4904 193.25C9.0943 193.63 11.2242 195.418 10.0071 196.749C10.2374 196.824 10.4367 196.973 10.5741 197.172C10.7116 197.371 10.7797 197.61 10.7678 197.852C12.099 197.852 10.4635 196.673 10.7678 196.027C11.0721 195.38 12.5934 196.331 14.5712 196.863C14.0007 198.499 12.8597 196.521 12.0229 196.863C11.7947 198.423 12.5934 197.738 13.7344 198.651C14.0007 198.004 14.6092 198.004 15.0656 197.7C15.6361 198.08 15.0656 199.069 16.1306 199.183C16.4348 197.776 14.1528 197.662 15.1797 195.951C13.8312 195.435 12.7387 194.41 12.137 193.098C12.4793 192.451 12.9738 194.011 13.1639 194.353C13.9626 194.353 13.5823 193.25 13.1639 193.25C14.9515 192.489 15.7502 193.973 16.587 196.027C17.3202 198.336 18.4957 200.48 20.0481 202.34C20.0481 201.846 20.0481 201.389 20.6186 201.427C20.9228 200.629 19.4395 200.743 19.972 199.792C20.5045 198.841 22.178 200.667 21.5694 201.77C22.2921 200.781 24.5741 201.77 24.0036 203.253C24.0036 203.633 22.4062 202.492 22.6344 201.77C21.6074 202.759 21.1891 201.77 20.0481 202.34C20.0481 203.557 19.6677 203.443 19.8199 204.774C18.4887 203.443 18.7929 202.074 16.0165 200.971C15.5981 202.416 15.0276 201.389 15.1417 203.177C15.7883 202.759 16.0165 201.541 17.4237 202.53C18.0635 204.128 18.9073 205.637 19.934 207.018C19.934 206.22 20.2763 205.801 20.8848 205.877C20.6698 205.138 20.3496 204.434 19.934 203.785C20.5425 203.481 21.3792 204.128 21.9117 204.432C22.4442 204.736 21.4933 204.965 21.113 204.888C21.113 206.448 22.4062 204.508 22.9006 206.182C22.3301 206.638 21.4553 206.448 20.9609 207.018C23.395 207.589 23.9275 211.354 26.4758 211.925C26.2476 212.533 25.4489 212.305 25.563 213.484C26.5519 213.941 26.5519 215.082 28.1112 215.12C28.0888 214.822 28.1279 214.524 28.2261 214.242C28.3242 213.961 28.4793 213.703 28.6817 213.484C29.7847 214.131 30.089 215.348 31.4202 215.842C31.2973 216.128 31.0695 216.356 30.7835 216.48C30.4975 216.603 30.1752 216.612 29.8829 216.505C29.5905 216.397 29.3504 216.182 29.2118 215.903C29.0733 215.625 29.0469 215.303 29.1382 215.005C28.91 215.88 27.807 215.5 27.6168 216.413C29.4805 216.413 29.6706 217.63 31.8766 218.619C32.2569 217.592 30.8116 217.972 30.9638 217.097C31.8766 216.451 32.0668 218.124 33.3219 218.162C33.3219 218.771 32.8274 218.771 32.8655 219.455C35.1475 218.276 34.6911 221.737 36.6689 222.004C35.8701 223.677 34.5009 221.319 33.6262 222.004C33.6262 222.308 34.0065 222.308 34.2727 222.422C34.6531 223.601 33.1697 222.422 33.5501 223.715C34.6531 223.943 34.9954 225.503 35.5659 224.324C36.8971 224.324 36.3266 225.921 37.2394 226.264C36.8971 226.834 35.9462 227.062 35.8701 226.264C34.8052 227.519 38.9889 227.861 37.5817 229.572H39.6735C39.6735 228.85 39.9017 228.66 39.9778 228.241C41.0808 228.546 40.4723 229.154 40.3962 229.953C42.8304 229.953 42.6402 232.045 44.1996 234.593C44.7996 234.686 45.3498 234.981 45.759 235.43C45.3026 235.81 44.9222 236.495 44.4278 236.533C44.8842 237.027 45.2265 236.723 45.6449 237.179C46.0252 236.457 45.8731 236.038 46.1393 235.848C46.3842 236.089 46.6011 236.357 46.7859 236.647C47.5722 237.714 48.6384 238.544 49.8666 239.043C50.6273 238.244 49.22 238.168 48.9538 237.369C50.0188 236.685 51.8063 238.51 52.7572 239.271C52.3769 240.45 51.5401 238.282 51.0457 239.271C51.3119 240.184 51.6162 240.869 51.3499 241.325C52.6284 241.234 53.8991 241.056 55.1533 240.792C56.2943 241.249 55.1533 242.314 55.5717 243.189C55.9901 244.063 58.3101 243.797 57.2452 244.824C59.2836 245.085 61.1602 246.07 62.5319 247.6C63.1404 248.818 60.9725 248.209 61.581 249.464C63.2165 249.692 61.9614 248.057 63.4067 248.171C64.852 248.285 63.787 249.844 64.0913 250.833C64.928 250.833 65.1562 251.784 65.8408 252.012C65.3464 252.393 65.2323 253.077 65.8408 254.142C66.069 253.838 66.6396 253.458 66.8678 254.142C67.7425 253.914 66.2592 253.61 66.4874 252.773C67.5143 252.431 67.6665 253.496 68.275 253.876C69.0737 253.61 67.8186 252.697 67.5143 252.621C67.2101 252.545 68.237 251.784 68.5793 251.404C69.4541 251.86 69.0737 252.583 70.1767 251.746C70.6331 253.191 69.4921 252.317 69.1118 253.001C69.7203 254.066 70.2147 253.001 70.8233 252.659C72.0784 252.887 72.8391 253.952 74.0181 254.371C73.9513 254.5 73.861 254.616 73.7519 254.713C72.7321 254.542 71.6909 254.542 70.6711 254.713C70.3385 254.617 69.9871 254.604 69.6485 254.677C69.31 254.75 68.9948 254.906 68.7314 255.131C69.3019 255.55 69.416 255.892 69.1878 256.424C67.5524 256.881 67.4383 254.865 65.8028 255.321C66.2972 255.664 66.9819 255.778 67.0579 256.843C67.7362 256.707 68.4406 256.816 69.0463 257.15C69.6519 257.485 70.1198 258.022 70.3669 258.668C70.7092 258.06 70.3669 257.109 71.1275 256.729C71.6981 257.261 72.4207 257.641 72.9912 257.071C73.866 258.212 73.5998 260.456 75.1972 260.608C75.1419 260.835 75.0385 261.048 74.8942 261.231C74.7499 261.415 74.5679 261.566 74.3604 261.673C74.8452 261.811 75.359 261.811 75.8437 261.673C76.2327 262.054 76.667 262.386 77.1369 262.662C76.9087 262.206 76.5284 261.863 76.3762 261.521C76.6522 261.463 76.937 261.463 77.213 261.521C77.7835 261.901 76.9848 262.776 78.1258 262.966C78.6583 262.434 80.0275 262.548 81.3967 262.966H81.701C83.9069 263.765 86.0749 265.248 85.162 266.085C88.2428 266.694 91.1334 269.242 93.7197 268.063L93.4915 268.405C94.4061 268.525 95.3362 268.407 96.1919 268.063C95.5833 266.77 94.5944 267.15 93.9479 267.796C93.6702 267.577 93.4377 267.306 93.2633 266.998C93.8338 266.579 95.2791 267.53 95.5453 266.579C94.2609 266.382 92.9905 266.102 91.7419 265.743C90.4868 265.362 89.1556 264.906 87.9385 264.45C87.4445 264.226 86.9362 264.036 86.4172 263.879L84.8197 263.27C84.3773 262.858 83.9072 262.477 83.4125 262.129C83.5768 262.066 83.712 261.944 83.7928 261.787C83.0278 261.468 82.3403 260.988 81.777 260.38C81.5714 260.627 81.2911 260.8 80.9783 260.874L79.495 260.38C79.4757 260.506 79.4757 260.634 79.495 260.76H78.8104C78.9235 260.739 79.0396 260.739 79.1527 260.76C78.392 260.494 77.5172 259.239 76.8326 259.125C76.8697 258.975 76.8697 258.818 76.8326 258.668H76.5664C76.635 258.51 76.7457 258.373 76.8864 258.272C77.0272 258.172 77.1927 258.111 77.3651 258.098C78.2018 258.402 77.3651 259.543 79.0766 258.744C79.9134 259.695 78.1258 259.239 79.0766 260.19C79.457 258.897 80.7501 259.467 81.5108 260.532C82.4997 260 81.5108 259.391 80.9783 259.277C81.5488 259.049 81.8531 259.277 82.4616 259.277C82.4616 259.885 83.7168 260.988 82.9941 261.255C83.3745 261.559 85.5424 260.95 84.5915 262.167C85.2001 262.928 86.6073 260.798 87.5582 261.901C87.5582 262.358 86.8355 262.472 86.3791 262.662C87.5201 263.308 89.3077 265.4 90.1825 264.259C90.6389 264.259 92.2363 265.286 90.8671 265.514C92.0432 265.851 93.2879 265.866 94.4719 265.558C95.6558 265.251 96.7356 264.631 97.5991 263.765H97.9795C98.5995 263.6 99.2397 263.523 99.8812 263.537C100.338 264.45 98.55 264.678 99.6149 265.743C98.1696 266.275 98.3218 265.743 97.6372 265.134C96.2299 265.514 95.7355 266.161 96.382 267.188C96.6863 267.188 96.382 266.693 96.382 266.427C97.2949 266.427 98.2077 265.971 98.7401 266.922C99.2726 267.873 97.9414 266.922 97.447 267.492C97.8273 268.633 99.0064 267.302 99.3487 268.557C100.452 266.541 102.772 268.861 104.331 270.497C105.396 269.926 106.461 268.519 104.749 267.987C104.749 269.242 103.913 268.557 103.114 267.987C103.114 267.53 103.647 267.682 103.913 267.987C103.913 266.846 100.984 266.846 99.8431 266.047C101.575 265.999 103.305 266.204 104.978 266.655C108.118 267.916 111.422 268.723 114.79 269.052C115.024 269.234 115.312 269.332 115.608 269.332C115.904 269.332 116.192 269.234 116.426 269.052H116.92C117.187 270.002 117.947 269.052 118.746 269.964C119.545 270.877 116.882 270.725 118.252 271.524C119.431 270.231 119.811 271.105 121.713 271.524C122.625 270.459 123.69 269.774 124.907 271.524C125.896 270.573 126.695 271.524 127.684 270.421C128.352 271.171 129.182 271.76 130.111 272.142C131.04 272.525 132.044 272.69 133.047 272.627C132.78 273.273 132.286 273.996 132.096 274.376L129.928 274.719C128.787 273.387 127.532 273.654 126.391 272.589C125.668 274.186 123.919 273.121 122.587 273.616C122.854 273.616 126.391 275.289 126.847 274.034C127.247 274.462 127.762 274.766 128.33 274.909C126.429 274.909 124.527 275.213 122.778 275.479C122.145 275.421 121.508 275.421 120.876 275.479C120.72 275.278 120.525 275.111 120.303 274.987C120.08 274.863 119.836 274.784 119.583 274.757C117.985 275.974 116.54 273.806 114.714 273.882C113.687 273.882 112.775 275.251 111.71 275.137C110.645 275.023 109.732 273.54 108.743 273.387C108.002 273.461 107.266 273.576 106.537 273.73C106.537 273.73 106.879 273.121 106.993 273.121C105.967 273.121 105.282 273.806 104.369 273.73C104.369 273.73 104.369 272.741 104.369 272.703C103.228 271.866 101.364 273.197 99.9572 273.007C99.1585 271.866 101.441 271.828 99.9572 271.334C99.6149 272.399 98.2077 271.866 97.5231 272.437C96.9525 270.459 93.7197 271.638 94.4803 270.002C92.9407 270.022 91.4019 269.92 89.8782 269.698C88.4275 269.499 87.0004 269.155 85.6185 268.671C85.9988 268.671 85.8086 269.318 85.6185 269.736C84.0688 268.982 82.3587 268.616 80.636 268.671C80.636 268.367 81.0164 268.405 81.2065 268.177C77.9224 267.399 74.779 266.115 71.8882 264.373C71.431 264.716 70.9156 264.974 70.3669 265.134C69.9105 263.955 69.5301 264.221 68.5793 264.64C68.1609 263.803 69.0357 262.738 67.8186 262.852C68.5412 264.221 66.069 263.232 65.3084 263.08C65.5746 262.51 64.5857 262.282 65.3084 261.635C66.031 260.988 66.4113 261.635 66.7156 261.217C64.5477 260.266 64.1293 261.217 63.2545 262.434C63.787 263.27 65.1182 263.917 65.8028 264.754C67.2101 263.385 70.2528 266.047 70.7852 267.074C70.3288 267.074 70.2147 267.454 69.8344 267.34C69.4541 267.226 70.2528 266.541 69.8344 266.313C67.0579 267.264 65.4225 265.248 62.9122 263.765C63.1024 265.286 61.8473 264.335 61.2007 265.438C63.8631 266.732 66.6015 267.911 68.8075 269.242C68.0088 268.177 70.1767 268.823 70.6711 268.671C71.1275 269.432 72.6869 271.143 73.3335 270.953C72.9532 270.725 73.3335 270.307 73.3335 269.888C74.1703 271.904 76.5664 272.094 78.392 273.273C76.2621 272.284 76.9848 273.273 75.2352 273.273C76.6425 274.224 77.3651 274.947 79.0386 274.224L78.6963 275.175C82.4997 275.175 86.8736 279.321 91.6278 279.283C91.6278 279.663 91.3235 280.157 91.6278 280.31C95.7355 280.119 100.908 283.619 103.038 282.668C103.038 283.923 101.022 283.999 100.261 283.086C100.071 285.368 102.544 284.151 103.532 284.075V284.722C105.054 284.722 105.967 283.276 107.564 283.352C109.161 283.428 109.96 285.216 112.699 285.064C112.09 283.428 115.475 285.292 116.502 284.531C114.486 284.227 115.665 283.961 117.301 284.075C118.936 284.189 121.104 284.417 121.104 285.52C119.849 285.52 119.621 286.167 118.784 286.357C120.838 286.357 119.849 286.775 120.153 288.069C121.865 287.802 122.017 288.715 123.196 288.867C123.196 287.84 121.522 287.878 120.99 287.156C121.394 287.193 121.799 287.085 122.131 286.851C123.006 287.308 123.538 288.981 124.413 287.612C124.365 287.843 124.367 288.081 124.42 288.311C124.472 288.541 124.574 288.756 124.717 288.943C122.293 289.216 119.854 289.343 117.415 289.324C115.065 289.117 112.758 288.566 110.569 287.688C106.765 288.145 103.647 285.71 99.729 286.585C99.729 285.977 98.55 286.091 98.8162 285.406C93.8718 285.178 89.7261 280.766 85.3142 281.907C86.3411 282.363 87.9385 282.44 87.7483 283.314C86.5693 283.01 81.0544 282.249 82.9561 280.424C81.9054 280.408 80.8694 280.175 79.9134 279.739C78.9245 280.842 81.8151 280.462 81.4347 281.299C79.495 280.538 75.6916 279.815 74.9309 277.609C71.9349 276.565 69.0232 275.294 66.2212 273.806C63.8914 272.71 61.7784 271.202 59.9836 269.356C58.9947 270.725 59.6413 268.329 58.9187 268.063C58.196 267.796 58.4623 269.66 57.8157 269.318C57.1691 268.976 57.2832 269.318 56.9789 269.318C55.5717 268.823 56.1802 267.949 55.4576 267.302C54.6209 267.873 53.0995 266.655 51.6542 265.933C52.6431 263.689 49.4863 263.613 48.1931 262.738C45.4065 260.757 42.7512 258.597 40.244 256.272C37.6197 253.99 35.0714 251.898 33.1697 250.339C35.5659 253.534 37.1633 253.572 38.8368 256.729C41.2424 257.757 43.4254 259.242 45.2645 261.103C47.2535 262.829 49.4062 264.358 51.6922 265.667C51.2358 266.313 51.6922 266.846 51.6922 267.454C51.6922 268.063 50.1709 267.15 49.5243 267.454C50.4752 268.861 55.0392 269.204 56.2943 272.17C56.9789 271.334 57.8157 272.475 58.5383 272.969C60.7063 271.562 65.8789 274.148 67.7045 275.479C67.4002 276.012 64.4716 274.034 65.3464 275.099C66.2212 276.164 67.5143 276.05 67.0579 276.963C66.3733 276.963 65.1182 275.669 64.7759 276.278C65.7267 277.267 68.313 277.761 66.8678 279.397C68.313 280.31 66.8678 278.028 68.4652 278.674C68.4652 278.94 68.4652 279.169 69.0737 279.321C69.0737 280.918 67.7806 280.462 67.096 280.918C68.3891 282.478 68.9976 281.26 69.3019 280.918C70.1006 282.211 67.8566 281.641 68.5412 282.744C69.6584 283.713 70.949 284.461 72.3446 284.95C72.1918 284.858 72.0635 284.73 71.9707 284.578C71.878 284.426 71.8236 284.253 71.8122 284.075C72.4207 284.493 73.7138 283.733 73.7138 284.76C73.2574 284.76 72.6489 284.303 72.4587 284.76C74.2844 286.357 78.0117 286.851 78.8104 288.563C79.8753 288.563 78.4301 287.384 79.6091 287.46C81.9292 287.764 81.2446 289.21 82.6898 289.856C83.0321 289.476 82.6898 288.107 83.5266 288.411C84.3633 288.715 87.33 288.943 86.7595 290.351C86.3031 290.351 83.7168 289.818 84.6296 290.351C87.0257 290.351 88.433 291.416 89.6881 290.351C91.1714 291.149 88.9654 291.986 90.4107 292.557C91.0193 292.557 90.753 291.339 91.5137 291.492C92.2744 291.644 95.7735 294.534 94.138 292.785C95.5223 293.372 96.9622 293.818 98.4359 294.116C98.4359 293.66 98.4359 292.899 99.0824 292.899C105.548 295.295 111.596 294.61 117.415 296.17C117.605 295.599 116.882 295.295 117.415 295.181C119.621 295.827 121.446 296.36 123.044 295.181C123.021 295.545 122.857 295.886 122.587 296.132C124.369 295.889 126.182 296.18 127.798 296.968C126.657 298.262 124.603 296.968 123.995 299.136C126.847 299.136 128.14 296.398 131.335 297.083C131.868 296.322 130.308 295.827 131.335 295.751C131.714 295.966 132.152 296.053 132.584 295.998C133.016 295.943 133.418 295.75 133.731 295.447C133.731 296.55 134.91 296.626 135.785 296.968C138.904 295.637 142.137 297.653 144.913 295.447C146.674 295.562 148.44 295.562 150.2 295.447C152.026 295.447 154.003 294.953 155.829 294.61C159.128 294.02 162.354 293.076 165.452 291.796C165.984 292.519 167.696 291.796 167.772 292.899C169.749 291.187 171.575 292.899 172.716 290.959C172.222 290.959 171.765 290.959 171.765 290.541C172.59 290.083 173.473 289.738 174.39 289.514C174.58 289.97 174.656 290.617 175.454 290.236C176.101 287.878 179.79 288.981 181.768 288.753C181.768 288.107 181.007 288.297 180.665 288.069C182.11 287.498 184.773 286.205 185.686 287.726C184.811 288.411 183.86 286.889 183.67 288.107C184.202 288.107 184.316 288.601 184.735 288.753C188.321 286 192.459 284.053 196.868 283.048C197.856 282.668 197.856 281.451 198.275 281.299C199.416 280.804 200.937 281.679 202.687 280.234C202.344 280.5 203.181 280.005 204.132 279.511C204.474 279.511 207.935 276.849 209.457 277.533C210.027 278.18 206.87 279.397 208.126 279.321C209.381 278.56 209.647 277.99 211.016 277.837C209.951 276.544 212.233 275.669 213.146 275.86C212.309 276.963 210.75 277.875 210.788 279.054C212.804 277.495 216.037 273.73 217.292 276.43C217.292 276.126 217.672 275.708 217.976 275.974C216.987 277.571 217.976 277.799 217.064 279.245C220.106 274.072 226.382 275.67 227.941 269.508C228.398 269.964 227.941 270.383 228.398 270.801C229.425 270.079 228.74 269.28 230.299 268.557C230.604 269.128 231.136 268.861 231.44 269.356C232.201 268.595 233.152 267.873 233.342 267.112C231.973 268.329 230.946 268.253 230.071 267.53C232.543 266.275 232.695 264.297 235.662 264.069C234.179 264.83 235.282 265.591 233.798 266.351C234.597 266.694 235.168 267.873 236.309 266.846C236.08 266.427 235.434 266.009 235.814 265.591C236.499 266.884 241.177 263.955 242.889 262.358C242.394 261.141 241.519 262.358 240.987 261.445C241.799 261.197 242.516 260.706 243.041 260.038C243.041 261.217 243.041 260.95 244.03 261.787C245.209 261.103 243.725 260.608 244.6 259.923C245.399 260.874 246.692 258.935 247.567 259.429C248.137 257.375 249.164 257.679 249.544 258.478C250.077 256.729 250.762 256.5 250.838 254.979C251.788 254.979 251.104 255.321 251.75 255.93C252.815 254.447 252.815 254.675 254.109 254.104C254.224 253.412 254.3 252.713 254.337 252.012C255.326 252.012 255.668 250.909 255.326 252.355C259.129 249.388 257.189 245.775 259.129 244.748C257.494 242.998 259.433 242.2 261.107 241.515C260.879 240.64 259.471 241.515 260.08 240.716C261.373 240.298 261.943 239.537 262.704 238.092C263.731 238.434 263.085 239.195 263.465 239.728C263.465 238.663 264.872 237.978 264.72 237.56C264.512 237.734 264.267 237.86 264.003 237.925C263.74 237.991 263.464 237.996 263.199 237.94C263.807 237.179 263.503 236.647 264.416 235.772L265.214 236.381C265.861 232.577 270.007 229.534 269.664 227.443C270.197 226.225 270.843 227.214 271.414 226.644C271.252 226.571 271.077 226.534 270.9 226.534C270.723 226.534 270.549 226.571 270.387 226.644C270.387 225.465 274.951 222.84 272.137 223.905C273.278 222.308 274.685 222.498 274.609 221.091C274.038 221.852 273.392 221.433 273.772 220.596C273.772 221.319 274.495 221.395 275.027 220.368C274.761 219.76 275.027 218.923 275.255 218.124C275.255 219.532 276.701 216.793 276.777 216.185C276.549 216.413 276.358 216.869 276.054 216.717C276.358 215.956 276.891 213.712 277.918 213.522C278.184 213.979 277.157 214.929 277.651 215.272C278.869 214.359 278.184 213.484 278.716 212.115C280.77 212.457 279.211 207.817 281.569 208.54C279.097 210.936 281.569 214.739 278.45 215.234C280.01 216.185 278.45 216.831 277.918 218.733C279.059 218.733 278.298 219.684 278.64 220.064C279.819 218.543 278.907 218.885 278.907 218.314C278.907 217.744 279.781 217.059 280.39 217.706C280.39 218.162 279.743 218.733 280.048 218.961C280.694 217.326 281.493 216.755 282.368 216.869C282.824 214.625 284.383 213.712 285.943 209.262C285.943 208.273 284.802 209.262 285.144 207.931C288.948 203.595 288.301 197.966 290.317 194.277C289.67 193.136 288.301 194.277 288.909 192.451C289.67 191.615 290.203 192.109 290.887 192.718C290.887 188.686 293.626 187.013 294.691 182.943C292.523 180.547 296.516 175.716 294.957 172.75C294.957 174.69 294.348 177.124 293.017 177.77C292.295 175.983 293.017 171.267 295.033 172.331C294.424 169.935 297.315 168.528 295.527 167.425C297.733 167.425 298.418 162.709 298.114 159.818C298.114 160.237 298.57 159.248 298.684 158.221C298.95 155.521 299.407 152.516 299.635 149.511C299.851 146.554 299.633 143.581 298.988 140.687C299.483 140.687 300.129 140.687 299.977 139.889C299.141 139.927 298.304 139.889 298.418 138.748ZM240.568 18.6366C241.557 17.99 241.824 19.2451 241.976 19.9297C241.367 20.4242 240.606 18.9789 240.568 18.6366ZM279.135 68.9174C278.716 67.8905 278.222 67.1678 277.537 67.0917C277.537 66.6734 277.994 66.5973 277.804 66.1029L280.2 68.8793C279.852 68.7597 279.473 68.7732 279.135 68.9174V68.9174ZM286.97 105.05C285.867 105.506 285.563 101.969 286.97 102.311C286.323 103.452 287.502 104.403 286.97 105.05ZM250.876 45.3744C250.863 45.4627 250.863 45.5524 250.876 45.6406L250.647 45.2223L250.876 45.3744ZM250.647 44.3855C250.153 43.9672 249.773 43.5868 250.153 42.9402C250.363 43.4053 250.529 43.8892 250.647 44.3855V44.3855ZM248.67 40.8103C248.936 41.2667 249.62 41.4189 250.039 41.7612C249.43 41.7612 248.898 41.2287 249.316 42.4078C249.438 42.3741 249.568 42.382 249.685 42.4302C249.802 42.4784 249.9 42.5642 249.963 42.674L248.175 42.1796C248.099 41.3809 248.518 41.2667 248.67 40.8103ZM5.25288 105.468C5.78536 105.088 4.83451 105.088 5.25288 104.707C5.70929 105.43 5.55715 103.985 6.43193 103.985C7.23064 104.403 5.93749 105.81 5.36699 105.278L5.25288 105.468ZM4.60631 126.272C4.99747 126.829 5.20736 127.494 5.20736 128.174C5.20736 128.855 4.99747 129.519 4.60631 130.076C3.88366 128.631 5.02468 127.413 4.72041 126.082L4.60631 126.272ZM3.42726 147.343C3.84563 147.609 4.18793 147.039 4.56827 147.039C5.0354 147.602 5.34201 148.281 5.45579 149.004C5.56958 149.727 5.48635 150.467 5.21485 151.147C4.53024 150.424 3.95973 151.147 3.27512 150.348C3.42726 149.321 2.93282 148.294 3.42726 147.343ZM5.36699 130.494C5.06271 130.875 5.36698 131.293 5.06271 131.673C4.75844 131.369 4.41614 131.673 4.1499 131.673C4.24078 131.575 4.29126 131.446 4.29126 131.312C4.29126 131.178 4.24078 131.049 4.1499 130.951C4.30204 130.304 4.79648 130.114 5.21485 130.494H5.36699ZM3.88366 142.133C3.31316 141.334 3.88366 140.497 3.88366 139.698C4.87254 140.687 5.10075 142.057 3.73153 142.133H3.88366ZM3.00888 133.537C2.36231 132.852 2.43838 130.913 3.57939 131.141C2.97085 131.901 3.88366 132.776 3.00888 133.537ZM2.24821 125.093C3.8076 125.74 3.46529 127.223 3.08495 128.402C2.17214 127.261 1.52556 126.082 2.24821 125.093ZM1.63967 134.488C2.74265 135.172 1.86787 135.819 2.09607 136.466C2.32428 136.466 2.55248 136.009 2.78068 136.237C2.56684 136.558 2.24163 136.789 1.86787 136.884C1.6777 135.971 1.10719 135.21 1.63967 134.488ZM0.574717 145.898C0.917022 145.365 1.33539 145.594 1.71573 145.099C1.48753 144.871 1.25933 145.099 0.99309 144.871C1.52556 143.768 2.09607 144.377 2.62855 144.871C2.40034 145.213 1.94394 145.556 2.21017 145.898C2.51444 145.632 2.85675 145.898 3.19905 146.316L2.59051 147.115C1.4495 145.898 1.75377 146.088 0.574717 145.746V145.898ZM2.02 150.842C2.24821 150.842 2.47641 150.842 2.66658 150.538C2.85675 150.234 2.13411 149.93 2.66658 149.549C3.25981 150.793 3.40752 152.203 3.08495 153.543C2.59051 152.097 2.13411 151.755 2.02 150.69V150.842ZM3.04692 158.069C3.35119 156.928 2.21017 154.646 3.31316 154.265C3.04692 155.064 3.69349 155.749 3.76956 156.471C4.22597 156.015 3.76956 155.635 4.34007 155.178C4.83451 155.787 5.25288 156.814 6.12766 156.662C5.18285 157.258 4.13984 157.683 3.04692 157.917V158.069ZM6.12766 152.668C5.25288 152.25 4.56827 153.847 3.57939 152.668C3.86064 152.171 4.31242 151.794 4.85096 151.605C5.38949 151.416 5.97823 151.429 6.508 151.641C6.29711 151.888 6.1647 152.193 6.12766 152.516V152.668ZM5.86143 119.388C6.2798 119.388 6.6221 119.388 7.07851 118.856C7.80115 119.997 8.18149 121.062 7.07851 121.975C7.00244 120.72 6.46997 119.502 5.86143 119.388ZM6.7362 165.029C6.43263 164.746 6.24214 164.363 6.20016 163.95C6.15818 163.537 6.26758 163.123 6.508 162.785C6.87134 162.987 7.14431 163.319 7.27147 163.715C7.39862 164.11 7.37043 164.539 7.19261 164.915C7.19261 164.915 6.85031 164.611 6.7362 164.877V165.029ZM7.23064 171.419C7.72509 171.419 7.45885 170.202 7.64902 170.049C7.19261 169.821 6.88834 170.049 6.46997 170.049C5.97553 168.832 7.11654 168.11 8.29559 168.832C8.57417 170.085 8.76481 171.356 8.8661 172.636C8.10542 171.989 7.23064 171.837 7.23064 171.419ZM6.20373 183.437C6.43193 182.677 6.81227 182.296 7.34475 182.525C7.34475 182.905 6.92637 183.399 7.34475 183.628C7.76312 183.856 7.95329 183.97 7.80115 184.312L6.20373 183.437ZM10.5016 177.999C11.1862 178.531 11.4904 180.281 10.5016 179.9C11.034 179.063 9.51268 178.911 10.5016 177.999V177.999ZM9.55071 185.263C9.77891 184.807 9.89302 184.046 10.3494 184.16C10.3494 185.567 10.5776 185.986 11.8708 186.024C11.034 187.241 10.3114 185.986 9.55071 185.263V185.263ZM12.175 189.066C13.2126 189.896 13.9696 191.025 14.343 192.299C13.202 191.501 11.9849 190.626 12.175 189.142V189.066ZM16.5109 193.25C15.446 193.25 14.0767 190.55 14.9135 189.447C13.0118 189.447 14.381 188.382 14.1148 187.621C13.24 188.686 11.9849 187.887 11.1481 187.621C11.6045 186.1 13.5823 188.23 14.0387 186.746C13.5823 186.746 13.278 186.746 12.6695 186.48C12.0609 186.214 12.6695 184.388 13.3921 184.578C13.202 186.214 19.2113 189.333 15.522 189.637C15.9024 190.854 17.766 192.527 16.5109 193.326V193.25ZM16.5109 75.3451C17.0054 74.8887 16.5109 73.8998 17.8801 73.8618C18.1464 74.7746 17.1195 76.0297 16.3968 75.4592L16.5109 75.3451ZM18.0703 193.25C18.4642 193.454 18.7832 193.777 18.9815 194.173C19.1797 194.57 19.2469 195.019 19.1733 195.456C17.69 195.152 17.8041 194.163 17.9562 193.212L18.0703 193.25ZM36.5167 185.643C36.5167 184.578 35.2236 185.415 34.6531 184.426C34.7333 184.264 34.8508 184.124 34.9959 184.016C35.1411 183.908 35.3098 183.837 35.488 183.807C35.6663 183.777 35.8491 183.79 36.0213 183.845C36.1935 183.9 36.3503 183.995 36.4787 184.122C36.9731 184.692 37.3154 185.377 36.4026 185.795L36.5167 185.643ZM43.1727 192.642C43.6671 192.87 44.1996 193.022 44.3897 193.44V193.935C44.4091 194.061 44.4091 194.189 44.3897 194.315C43.2487 194.163 42.8684 193.63 43.0586 192.794L43.1727 192.642ZM43.1727 199.982C42.9081 199.845 42.6147 199.774 42.3169 199.774C42.0191 199.774 41.7257 199.845 41.4611 199.982C41.4611 198.651 42.8684 199.069 43.9333 199.107C43.9333 199.412 44.1615 199.488 44.3137 199.678C43.912 199.729 43.5313 199.887 43.2107 200.134L43.1727 199.982ZM44.1615 200.857C44.2191 200.659 44.3393 200.486 44.5038 200.362V200.362C44.3734 200.563 44.271 200.781 44.1996 201.009L44.1615 200.857ZM50.0948 229.915C50.9316 229.915 51.5021 229.915 51.464 230.942C50.6273 230.713 50.1709 232.425 49.4863 231.284C50.1329 231.36 49.6764 230.295 50.1329 230.067L50.0948 229.915ZM47.4705 230.904C46.5957 230.904 45.9872 230.904 46.0632 229.839C46.976 229.915 47.5465 230.143 47.5085 231.056L47.4705 230.904ZM46.3675 234.973C46.7098 234.973 47.9269 234.973 48.3072 233.984C47.5846 233.984 47.5466 233.11 47.5466 232.273C48.8397 232.691 50.6653 232.501 51.0837 233.908C49.0679 233.68 47.3944 237.598 46.4055 235.125L46.3675 234.973ZM51.8063 237.255C51.8063 236.381 50.285 236.951 50.5512 235.62C51.464 235.772 52.8713 236.875 51.8444 237.407L51.8063 237.255ZM50.7794 234.593C52.2627 234.213 52.4149 235.278 53.0234 235.848C52.2627 235.772 51.1217 235.772 50.8175 234.745L50.7794 234.593ZM51.6162 31.492C52.7952 31.9485 53.708 30.275 53.9362 31.8344C53.1756 31.6061 51.9585 32.7091 51.6542 31.6442L51.6162 31.492ZM62.7981 25.9771L61.8092 25.7489C62.7221 24.6079 62.646 24.9122 62.4558 23.5049C63.2165 23.5049 63.6349 22.9725 64.6238 23.5049C64.3521 24.5614 63.7198 25.4896 62.8362 26.1293L62.7981 25.9771ZM69.1118 255.55C69.1118 254.865 69.6823 255.131 70.2147 255.245C70.7472 255.359 70.9754 255.816 70.8613 256.044C70.7472 256.272 69.7203 256.881 69.1498 255.702L69.1118 255.55ZM81.2826 260.798C81.5739 260.895 81.827 261.081 82.0052 261.331L81.0924 260.874L81.2826 260.798ZM73.0673 230.105L72.801 230.371C72.7482 230.208 72.6713 230.055 72.5728 229.915C72.7753 229.984 72.9579 230.102 73.1053 230.257L73.0673 230.105ZM67.8566 230.105C67.4763 228.66 65.3464 229.496 65.0421 227.899C65.8789 228.736 69.4541 228.736 68.0848 230.219L67.8566 230.105ZM67.6284 20.9186C68.3891 20.9186 69.6823 19.7015 70.0626 20.9186C68.6553 20.3101 68.313 22.7823 67.6665 20.8426L67.6284 20.9186ZM69.5682 230.599C69.9224 230.549 70.2605 230.419 70.557 230.219L70.8613 230.523C69.8724 231.208 70.1767 231.893 70.8613 232.805C69.3019 233.034 69.7203 231.969 69.6062 230.523L69.5682 230.599ZM71.8882 252.317C72.088 252.09 72.3337 251.908 72.6091 251.783C72.8846 251.659 73.1833 251.594 73.4856 251.594C73.4766 251.754 73.5064 251.914 73.5727 252.059C73.6389 252.205 73.7396 252.333 73.866 252.431C73.8436 252.582 73.8436 252.736 73.866 252.887C73.4096 252.697 72.725 252.849 71.8882 252.317ZM75.6916 258.06C75.3263 257.817 74.9297 257.625 74.5126 257.489C73.8377 257.054 73.2873 256.451 72.9151 255.74C73.6758 255.74 74.0562 254.713 74.9309 255.055C75.9198 256.158 73.904 256.919 74.9309 257.185C75.9578 257.451 75.1972 256.12 76.3762 256.12C77.0608 257.071 76.4143 257.527 75.9959 258.06H75.6916ZM75.007 254.256C75.1695 254.218 75.3389 254.218 75.5014 254.256C75.4073 254.38 75.3422 254.523 75.3113 254.675C75.2905 254.498 75.2905 254.319 75.3113 254.142L75.007 254.256ZM76.7566 238.586C76.7566 238.586 76.7566 238.32 76.7566 238.168H76.9467L76.7566 238.586ZM77.0989 237.826L76.5284 237.522C75.7677 235.772 73.2574 235.696 72.1545 233.984C73.597 234.343 74.9715 234.934 76.2241 235.734C76.3558 236.152 76.607 236.522 76.9467 236.799C77.0208 236.7 77.0608 236.58 77.0608 236.457C77.0608 236.333 77.0208 236.213 76.9467 236.114V236.114V235.544C76.9467 235.125 76.9467 234.745 77.5933 234.669C76.8326 236.495 78.1638 235.544 78.8104 236.951C78.392 237.141 77.8215 237.027 77.4031 237.712L77.0989 237.826ZM80.4458 238.51C80.636 237.369 78.4681 238.13 79.4189 237.141C79.7849 237.199 80.1424 237.302 80.4839 237.445C80.2829 237.484 80.0763 237.484 79.8753 237.445C80.0588 237.531 80.2197 237.657 80.3452 237.816C80.4707 237.974 80.5573 238.16 80.598 238.358L80.4458 238.51ZM97.0286 247.639C97.0286 247.639 97.0286 247.867 97.0286 248.019L96.6102 247.753L97.0286 247.639ZM96.5342 9.2042C95.2791 9.2042 95.9256 10.4213 94.7466 10.117C94.3662 9.62257 96.4581 7.56874 96.5342 9.2042ZM93.4534 9.2042C93.6816 9.96487 92.6167 10.0409 92.2744 11.258C91.3616 11.0679 92.0081 10.3832 91.4376 10.079C91.9701 9.05206 92.7308 9.16616 93.4534 9.05206V9.2042ZM89.9543 257.413C89.3077 257.413 88.2428 258.478 87.8625 257.832C88.0907 257.109 89.5359 256.424 89.9543 257.261V257.413ZM81.0544 248.399C81.7647 248.56 82.4539 248.802 83.1082 249.122L83.5646 249.502C82.7659 249.616 80.674 249.16 81.0544 248.247V248.399ZM82.8039 241.591H82.5757C82.6708 241.47 82.7867 241.367 82.918 241.287C83.3967 241.278 83.8693 241.396 84.2873 241.629C84.0591 241.629 84.2873 241.895 84.6296 242.2C84.2864 242.339 83.9023 242.337 83.5606 242.194C83.2189 242.052 82.947 241.78 82.8039 241.439V241.591ZM84.5535 243.189C84.433 243.042 84.2921 242.914 84.1351 242.808H84.9719C84.911 242.88 84.8352 242.938 84.7498 242.977C84.6645 243.016 84.5715 243.037 84.4774 243.036L84.5535 243.189ZM85.9608 260.038L88.509 260.76C88.5616 260.832 88.5899 260.919 88.5899 261.007C88.5899 261.096 88.5616 261.183 88.509 261.255C87.7864 260.152 86.3791 261.026 85.8847 259.885L85.9608 260.038ZM87.5962 262.662C88.509 262.091 88.8513 262.662 89.7261 262.282C89.3077 261.559 88.7372 261.521 89.3458 260.988H89.65C90.4107 261.483 92.1603 261.863 91.6658 263.004C90.3347 263.118 88.7753 263.879 87.5201 262.396L87.5962 262.662ZM95.203 264.526C94.1761 263.194 92.5026 265.02 91.7039 264.868C91.0953 263.347 92.5406 264.107 93.4915 263.004C93.4915 264.069 94.5184 263.232 95.1269 263.004C95.6594 263.537 95.7355 264.031 95.241 264.373L95.203 264.526ZM95.5453 249.046C96.0778 248.589 95.0889 248.475 94.7085 247.981C95.3122 248.189 95.9685 248.189 96.5722 247.981L97.447 248.475C97.3329 248.894 96.1538 249.122 95.5833 248.894L95.5453 249.046ZM103.837 252.203C103.228 251.784 102.353 252.203 101.897 251.366C102.505 251.214 104.445 250.986 103.875 252.05L103.837 252.203ZM106.309 252.203C105.434 249.806 102.277 251.214 100.376 250.871C100.718 250.491 102.087 250.415 101.707 249.806C100.68 250.187 99.9572 249.806 98.8923 250.149C99.1205 250.453 99.767 250.529 99.3487 251.024C98.7782 250.035 96.306 251.024 96.6863 249.464C97.02 249.706 97.4325 249.813 97.8414 249.763C98.2504 249.714 98.6257 249.512 98.8923 249.198C99.2346 249.198 99.5388 249.198 99.729 249.198C99.9192 249.198 99.2346 248.932 99.2726 248.589C99.2763 248.526 99.2763 248.463 99.2726 248.399C99.264 248.311 99.264 248.222 99.2726 248.133L100.109 248.627C100.184 248.9 100.328 249.149 100.528 249.35L100.984 249.084C102.96 250.099 105.038 250.902 107.184 251.48C106.896 251.586 106.616 251.713 106.347 251.86L106.309 252.203ZM70.6711 267.416C71.0134 265.819 72.4968 267.72 72.725 267.416C73.5237 267.911 71.5459 267.72 70.7092 267.112L70.6711 267.416ZM81.8911 275.327C82.6518 273.616 83.0702 275.631 84.4774 275.86C84.1351 276.202 82.7279 275.099 81.9292 275.023L81.8911 275.327ZM85.6945 270.04C85.9608 269.204 87.5201 269.85 87.8244 270.421C88.1287 270.991 86.3031 269.774 85.6565 269.736L85.6945 270.04ZM110.226 282.706C110.72 282.54 111.254 282.54 111.748 282.706C111.748 283.162 111.748 283.619 111.976 283.733C111.558 283.999 109.58 283.314 110.188 282.401L110.226 282.706ZM121.979 285.52C121.751 284.645 122.778 284.912 122.816 284.265C119.887 283.2 116.806 283.999 115.969 281.489C117.798 281.917 119.721 281.617 121.332 280.652C121.789 280.994 121.979 281.565 122.74 281.679C122.131 282.401 121.827 282.135 120.876 281.907C121.104 283.162 122.093 283.847 123.728 283.999C124.109 285.216 123.234 285.406 121.941 285.216L121.979 285.52ZM179.03 272.018C179.03 272.817 177.166 272.893 176.405 273.273C176.405 271.296 177.47 272.132 178.916 271.714L179.03 272.018ZM174.009 5.02047L172.754 5.51491L172.26 4.6021C173.172 3.76535 173.515 4.67817 174.009 5.02047ZM171.955 5.47688C170.776 5.02047 169.407 5.21064 168.456 4.14569C168.771 3.9891 169.115 3.89937 169.466 3.88215C169.817 3.86493 170.168 3.92059 170.497 4.04563C170.826 4.17067 171.125 4.36237 171.376 4.60869C171.627 4.85501 171.824 5.1506 171.955 5.47688V5.47688ZM168.152 4.7162C167.467 3.76535 166.136 4.90637 165.452 4.14569C166.364 3.15681 168.418 3.76535 168 4.7162H168.152ZM163.55 263.347C163.511 263.739 163.381 264.117 163.17 264.45L162.523 264.716C162.295 264.031 162.219 262.852 163.398 263.27L163.55 263.347ZM160.469 280.157C160.469 280.918 160.127 281.451 160.469 282.44C158.634 282.409 156.809 282.167 155.03 281.717C155.943 280.043 158.187 280.994 160.317 280.081L160.469 280.157ZM157.997 273.806C157.997 274.681 157.464 275.517 156.78 275.023C156.095 274.528 157.35 274.11 157.997 273.806ZM154.726 273.806C156.323 274.414 156.856 275.67 154.726 276.43C154.726 276.164 155.03 276.05 154.992 275.708C152.028 276.251 149.105 277.001 146.244 277.952C145.37 276.278 147.005 275.631 149.059 275.023C151.113 274.414 153.775 274.11 154.726 273.806ZM148.945 281.641C148.717 282.706 147.69 281.641 147.462 281.641C147.233 281.641 148.45 281.184 148.412 280.576C149.706 280.234 147.652 281.679 148.945 281.603V281.641ZM153.433 281.641C153.433 282.44 152.33 282.706 152.178 283.466C151.569 282.592 149.021 283.923 148.679 282.668C150.428 283.314 151.455 281.146 153.433 281.413V281.641ZM148.032 265.971C148.26 265.988 148.489 265.988 148.717 265.971C148.717 266.541 148.222 266.693 147.728 266.732C147.233 266.77 147.462 266.199 147.956 265.895L148.032 265.971ZM147.614 267.416L148.679 267.036C148.374 267.34 148.374 267.644 147.576 267.416H147.614ZM148.07 267.987L147.005 268.253H146.321C146.119 267.993 146.024 267.667 146.054 267.34C146.312 267.566 146.615 267.733 146.943 267.832C147.271 267.93 147.617 267.957 147.956 267.911L148.07 267.987ZM147.119 281.831C144.495 282.858 138.219 282.744 139.512 281.07C141.604 282.249 144.153 280.652 147.119 281.755V281.831ZM139.17 256.272C139.665 256.272 138.942 256.881 139.512 256.919C139.018 258.402 136.926 257.147 135.709 257.147C136.204 257.375 135.937 256.843 135.709 256.881C136.546 255.74 138.676 257.147 139.17 256.196V256.272ZM138.866 267.112C138.638 267.378 138.866 267.644 138.866 267.911C138.32 267.75 137.739 267.75 137.192 267.911C137.088 267.85 137.008 267.756 136.964 267.644C137.207 267.395 137.508 267.21 137.839 267.103C138.171 266.997 138.523 266.974 138.866 267.036V267.112ZM136.127 256.462H135.899C135.891 256.22 135.957 255.981 136.089 255.778C136.134 255.977 136.147 256.183 136.127 256.386V256.462ZM135.481 255.207C135.547 255.179 135.618 255.164 135.69 255.164C135.762 255.164 135.833 255.179 135.899 255.207C135.697 255.321 135.523 255.479 135.391 255.671C135.259 255.862 135.173 256.081 135.139 256.31H134.606C134.606 256.006 134.948 255.702 134.606 255.664C134.264 255.626 135.481 255.664 135.481 255.131V255.207ZM129.928 253.534H129.548H129.776C129.829 253.513 129.88 253.488 129.928 253.458V253.534ZM129.395 252.203H129.814C129.433 252.203 129.053 252.735 128.673 252.925C128.597 252.355 128.939 252.469 129.395 252.127V252.203ZM125.136 253.8C125.478 253.8 125.592 253.8 125.63 253.8H125.136ZM123.766 2.77647C122.892 3.61322 121.941 2.5863 121.066 3.04271C121.396 2.67291 121.852 2.44035 122.345 2.39104C122.838 2.34174 123.332 2.47929 123.728 2.77647H123.766ZM118.708 256.615C118.536 256.554 118.348 256.554 118.175 256.615C117.914 256.49 117.66 256.35 117.415 256.196L118.518 255.474L119.088 256.31C118.981 256.434 118.852 256.537 118.708 256.615V256.615ZM118.936 254.371H119.316C119.292 254.396 119.262 254.416 119.229 254.43C119.197 254.443 119.162 254.45 119.126 254.45C119.091 254.45 119.056 254.443 119.023 254.43C118.991 254.416 118.961 254.396 118.936 254.371V254.371ZM131.145 257.87L128.559 258.06V257.832C126.619 256.006 125.82 257.832 123.69 258.288C123.196 257.679 123.69 257.185 122.701 256.538C122.454 256.737 122.16 256.869 121.847 256.923C121.534 256.976 121.213 256.948 120.914 256.843V256.843C120.519 256.709 120.092 256.709 119.697 256.843C119.469 256.158 120.039 255.664 119.963 255.017C119.887 254.371 120.61 255.017 120.952 254.713C121.675 255.283 120.952 255.626 120.762 256.082C122.207 256.082 122.74 255.245 124.375 255.778C123.386 255.321 122.511 254.409 121.408 254.789C120.724 254.028 122.701 254.789 122.017 253.914C123.03 254.294 124.073 254.587 125.136 254.789C125.136 254.789 125.136 254.409 125.136 254.218H125.782C125.772 254.401 125.813 254.584 125.9 254.745C125.987 254.906 126.118 255.04 126.277 255.131C126.438 254.984 126.648 254.903 126.866 254.903C127.084 254.903 127.295 254.984 127.456 255.131C127.456 254.294 127.798 254.028 128.14 254.028C128.21 254.068 128.288 254.089 128.369 254.089C128.449 254.089 128.527 254.068 128.597 254.028C129.205 254.333 129.928 254.865 130.613 254.485C130.613 255.512 129.091 254.485 128.178 255.093C128.787 255.816 130.46 255.397 131.449 255.359C131.449 255.359 131.449 255.359 131.944 255.359C132.438 255.359 131.944 255.359 131.944 255.359C132.118 254.926 132.184 254.455 132.134 253.99C132.285 253.962 132.439 253.962 132.59 253.99C132.486 254.441 132.486 254.909 132.59 255.359H132.362H132.742C133.005 255.761 133.367 256.088 133.794 256.308C134.221 256.528 134.697 256.634 135.177 256.615C135.189 256.699 135.219 256.78 135.265 256.852C135.311 256.924 135.372 256.986 135.443 257.033C135.361 257.345 135.361 257.672 135.443 257.984C134.022 257.747 132.576 257.709 131.145 257.87V257.87ZM137.192 281.793C136.85 282.782 138.029 282.325 138.676 282.363C136.931 282.85 135.123 283.068 133.313 283.01C131.046 282.858 128.772 282.858 126.505 283.01C129.129 280.652 133.275 282.706 137.192 281.793ZM125.364 284.075C126.973 284.347 128.6 284.5 130.232 284.531C128.14 282.934 134.834 283.581 135.443 284.531C131.906 286.129 127.113 284.113 124.565 285.71C124.299 284.607 125.136 284.684 125.364 284.075V284.075ZM124.147 286.966C124.489 285.825 125.478 286.623 126.048 286.966C125.934 287.802 124.375 287.156 124.147 286.966ZM149.858 289.019V287.992C147.019 288.669 144.133 289.127 141.224 289.362C137.324 289.769 133.384 289.563 129.548 288.753C129.129 288.753 129.281 289.4 128.787 289.4C128.002 289.244 127.236 289.002 126.505 288.677C126.505 287.65 128.407 288.183 129.548 288.107C129.548 287.65 129.548 287.194 129.205 287.118C134.533 287.152 139.838 286.409 144.951 284.912C146.119 285.032 147.222 285.511 148.108 286.281C149.173 285.901 147.766 285.254 148.108 284.645C149.021 284.341 149.972 285.748 150.39 284.645C151.531 284.645 150.885 285.064 150.923 285.863C152.293 285.137 153.791 284.684 155.335 284.531C155.563 283.39 154.117 284.227 153.357 284.189C154.02 283.627 154.823 283.256 155.68 283.115C156.538 282.974 157.417 283.07 158.225 283.39C158.72 284.569 156.856 285.786 159.024 285.558C157.541 287.004 152.862 285.558 152.254 287.004C155.258 287.346 160.165 285.368 162.029 287.004C157.921 289.248 154.155 287.916 149.858 289.019ZM166.973 282.934C166.973 282.363 166.364 282.401 166.326 281.755C167.696 281.07 167.658 282.44 169.027 281.755C168.913 282.363 167.696 282.478 166.973 282.934ZM176.786 278.56C172.26 279.016 168.418 280.31 163.816 281.032C163.816 281.603 165.109 281.032 165.414 281.337C165.718 281.641 163.322 282.478 163.17 281.337C162.257 282.173 162.257 282.44 162.903 283.695C159.366 281.983 161.23 280.386 165.49 279.891C165.071 279.473 164.234 279.701 163.55 279.701C163.131 278.75 165.147 279.055 165.109 278.294C165.642 278.294 165.604 279.016 165.794 279.473C169.217 278.256 169.597 278.028 173.134 276.811C173.971 277.875 174.96 276.316 176.025 277.343C176.938 276.811 174.732 276.963 175.645 276.126C178.231 275.669 178.269 276.544 180.779 275.099C180.551 274.186 178.611 276.316 178.725 274.795C180.249 274.706 181.686 274.056 182.757 272.969C182.916 273.214 183.019 273.491 183.059 273.78C183.098 274.07 183.073 274.364 182.985 274.643C183.936 274.376 183.974 273.768 183.556 273.007C185.191 272.018 185.914 272.779 186.827 273.007C185.99 276.202 178.801 276.354 176.9 278.56H176.786ZM209.989 18.2182C209.59 18.098 209.196 17.9584 208.81 17.7999V17.7999C209.114 17.3434 209.761 17.5336 210.293 17.7999C210.242 17.796 210.19 17.8054 210.143 17.8272C210.096 17.849 210.055 17.8824 210.025 17.9243C209.994 17.9662 209.975 18.0152 209.969 18.0666C209.963 18.1181 209.97 18.1703 209.989 18.2182V18.2182ZM211.967 272.018C211.625 270.459 213.412 270.725 214.135 269.546C214.667 270.535 212.614 271.181 211.967 272.018V272.018ZM221.666 266.693L222.997 265.819L223.567 266.617C222.845 266.922 222.046 267.454 221.666 266.693ZM223.948 271.448C223.605 273.425 223.187 270.877 222.198 271.79C222.198 271.334 222.921 270.991 223.415 270.611C223.643 271.029 223.872 271.41 224.29 271.22C224.708 271.029 224.024 271.562 224.024 271.448H223.948ZM223.149 265.324C222.693 264.64 223.834 264.031 224.67 263.423L225.241 264.183C224.48 264.792 223.757 265.362 223.149 265.324ZM222.236 263.803C220.462 264.967 218.76 266.237 217.14 267.606C217.14 266.465 218.737 264.982 220.943 263.499C223.149 262.015 225.355 260.266 226.838 258.973C225.636 260.869 224.072 262.51 222.236 263.803V263.803ZM225.659 27.9929C224.879 28.27 224.043 28.3484 223.225 28.2211C222.274 27.3083 221.399 26.3955 220.639 25.5588C222.008 25.787 223.605 25.0643 224.746 25.5588C224.746 26.1673 224.746 26.4335 224.138 26.5476C224.366 27.3464 226.116 27.004 225.887 26.3194C225.887 27.6126 227.599 28.107 229.272 28.6395C231.212 29.2861 233.076 30.0087 233.456 32.1006C231.929 32.0786 230.428 31.699 229.074 30.9922C227.72 30.2855 226.55 29.2713 225.659 28.031V27.9929ZM234.673 35.1433C233.913 34.5348 232.467 34.4967 232.619 33.0895C233.722 34.4207 235.206 33.736 235.054 31.6442C235.568 31.6778 236.053 31.8936 236.423 32.2527C236.537 34.1924 234.255 32.9754 234.673 35.1433ZM239.047 263.347C238.02 262.548 237.906 262.51 237.906 261.331C238.819 261.597 240.34 262.396 239.237 263.461L239.047 263.347ZM239.998 261.331C239.58 261.331 239.047 261.635 238.743 261.064C239.161 261.064 239.58 261.064 239.389 260.57C239.77 260.342 239.998 260.874 240.416 260.57C240.399 260.75 240.42 260.931 240.479 261.102C240.539 261.273 240.634 261.428 240.759 261.559C240.34 261.863 239.58 261.863 239.998 261.445V261.331ZM246.35 259.087C246.159 258.668 246.92 258.174 247.338 257.717C247.034 257.489 246.616 258.022 246.197 258.326C245.779 258.63 246.197 256.691 245.323 257.375C245.323 256.729 247.262 256.995 247.947 257.147C246.844 258.364 247.833 258.592 246.35 259.201V259.087ZM262.058 66.7494C262.114 66.9355 262.114 67.1339 262.058 67.3199C263.008 66.9776 264.834 69.564 263.921 70.3627C263.693 70.0204 263.541 69.4498 263.161 69.5639C262.134 69.5639 262.324 69.2216 261.449 68.7272V68.3849C261.449 67.5101 262.058 67.4721 262.058 66.7494ZM254.451 235.43C254.793 235.772 255.135 236.076 255.478 235.772C256.2 236.381 254.603 237.94 253.918 238.054C253.652 237.293 253.88 236.419 254.679 235.43H254.451ZM249.582 239.994C250.518 239.202 251.554 238.538 252.663 238.016C253.386 239.005 251.598 239.157 250.838 240.602C250.647 240.146 250.229 240.488 249.811 239.994H249.582ZM251.218 247.6C250.419 247.03 251.636 246.155 251.865 245.433L252.587 246.079L251.218 247.6ZM255.44 249.274C255.44 248.133 254.869 248.856 254.109 249.73C253.5 248.475 255.972 247.981 256.885 247.182C257.608 247.562 256.01 248.437 255.668 249.122L255.44 249.274ZM255.44 242.77C255.695 243.893 255.52 245.07 254.949 246.07C254.379 247.069 253.455 247.819 252.359 248.171C252.359 246.764 255.173 245.471 253.652 243.341C256.276 241.173 257.646 238.777 259.167 237.978C259.18 239.013 258.857 240.025 258.247 240.861C257.636 241.698 256.772 242.314 255.782 242.618L255.44 242.77ZM262.666 234.555C261.221 236.076 260.232 236.304 259.966 238.092L258.673 237.065C260.422 235.658 261.487 232.843 263.541 231.17C264.226 232.463 262.248 232.996 263.008 234.403L262.666 234.555ZM282.139 195.76C281.973 195.437 281.886 195.078 281.886 194.714C281.886 194.351 281.973 193.992 282.139 193.668C283.547 193.935 283.204 195.304 282.482 195.608L282.139 195.76ZM281.683 186.328C282.634 186.67 281.683 188.99 280.96 189.371C280.732 188.382 281.493 188.116 281.683 186.328ZM281.341 159.704L281.531 158.221C282.368 158.487 282.482 159.362 282.558 160.275C282.403 160.104 282.215 159.966 282.006 159.868C281.797 159.77 281.571 159.714 281.341 159.704ZM282.52 199.526C281.942 200.449 281.494 201.447 281.189 202.492C280.39 202.873 279.287 201.96 280.2 200.705C281.455 202.606 280.77 199.031 282.52 199.526ZM282.52 181.003C283.509 181.688 281.949 182.448 282.292 183.78C281.075 183.704 282.482 181.916 282.52 181.003ZM282.52 173.396C282.205 173.161 281.983 172.823 281.892 172.44C281.802 172.058 281.849 171.656 282.025 171.305C282.254 171.609 282.482 171.913 282.672 171.305C282.862 170.696 282.596 172.864 282.634 173.434L282.52 173.396ZM283.204 169.251C283.204 169.631 283.547 169.631 283.775 169.783C283.204 170.772 283.166 170.087 282.406 169.783C282.406 168.604 283.204 168.794 283.242 167.615C283.623 167.882 284.117 169.365 283.319 169.289L283.204 169.251ZM282.824 155.406C284.079 155.406 282.824 157.194 283.09 158.069C282.368 157.422 282.976 157.08 282.938 155.444L282.824 155.406ZM284.383 130.646C285.144 129.315 284.193 127.337 284.117 125.816C284.878 126.577 286.361 129.734 284.498 130.684L284.383 130.646ZM284.878 125.474C283.585 124.713 284.612 123.344 284.003 121.67C285.601 122.051 284.079 124.789 284.878 125.474ZM284.003 147.305C285.068 147.533 284.269 149.473 284.269 150.69C282.976 151.299 282.71 150.006 281.341 150.386C281.64 148.436 281.768 146.463 281.721 144.491C281.73 142.556 282.078 140.638 282.748 138.824C283.204 141.676 282.748 145.442 283.014 149.891C284.46 149.663 282.938 148.028 283.965 147.305H284.003ZM283.547 135.096C281.873 134.374 283.965 131.293 281.949 131.293C281.949 130.57 281.949 130.342 282.216 129.848C282.558 130.456 283.471 131.103 283.166 129.467C283.567 131.315 283.683 133.214 283.509 135.096H283.547ZM281.759 127.832C282.596 127.832 283.319 129.011 282.824 129.619C282.46 129.498 282.149 129.253 281.948 128.926C281.746 128.599 281.666 128.212 281.721 127.832H281.759ZM282.786 123.382C283.471 123.762 283.357 126.196 283.014 126.691C282.672 127.185 283.014 125.017 281.949 125.626C282.351 124.933 282.621 124.172 282.748 123.382H282.786ZM281.683 112.808C280.998 112.808 281.341 111.553 281.075 111.059C280.808 110.564 281.075 112.352 281.075 112.923C279.934 112.086 280.58 111.325 280.58 109.994C281.025 110.297 281.366 110.73 281.556 111.233C281.747 111.737 281.778 112.287 281.645 112.808H281.683ZM281.075 106.229C280.542 105.734 279.629 104.897 280.048 104.175C280.27 104.209 280.481 104.296 280.662 104.429C280.844 104.561 280.991 104.735 281.092 104.936C281.193 105.137 281.243 105.36 281.24 105.585C281.237 105.809 281.18 106.03 281.075 106.229V106.229ZM280.01 107.522C278.602 107.217 278.983 104.175 278.831 102.92C279.436 104.381 279.772 105.94 279.819 107.522H280.01ZM280.01 99.915C280.01 100.524 279.097 100.447 279.743 101.512C278.831 101.512 278.792 100.143 278.488 99.1543C279.097 99.1923 279.287 100.029 279.972 99.991L280.01 99.915ZM279.477 208.312C278.45 208.312 278.945 207.247 277.918 207.056C278.716 206.79 279.059 204.584 280.124 205.459C279.325 204.432 281.189 203.063 281.835 201.656C280.504 204.242 280.77 206.79 279.439 208.388L279.477 208.312ZM281.493 216.337C281.295 216.203 281.053 216.152 280.819 216.195C280.584 216.238 280.376 216.37 280.238 216.565C279.629 216.185 280.238 215.348 280.694 214.473C280.922 215.424 281.379 214.473 281.607 215.462C282.139 214.815 282.482 213.028 283.242 213.941C282.52 214.283 282.025 215.424 281.455 216.413L281.493 216.337ZM283.623 211.773C283.242 210.327 284.079 210.175 284.878 209.11C285.22 210.632 284.383 210.784 283.585 211.849L283.623 211.773ZM283.623 187.887C283.231 186.378 283.231 184.794 283.623 183.285C283.927 183.97 283.623 186.1 284.726 184.046C285.753 185.073 283.889 186.556 283.585 187.963L283.623 187.887ZM288.453 190.854C289.214 189.561 288.453 188.762 289.404 188.154C290.849 188.23 289.556 191.881 288.415 190.93L288.453 190.854ZM289.366 187.279C290.545 186.822 291.344 185.187 292.789 185.377C291.876 186.86 291.001 188.23 289.328 187.355L289.366 187.279Z" fill="#C1C2CD"/>
</svg>
