<svg width="300" height="254" viewBox="0 0 300 254" fill="none" xmlns="http://www.w3.org/2000/svg">
<path fill-rule="evenodd" clip-rule="evenodd" d="M5.19597 81.786C-1.47391 111.853 -3.12181 167.761 8.73774 186.409C15.3536 196.821 26.2396 208.29 37.3095 213.589C45.8016 217.665 63.2644 217.836 75.1608 217.952C77.3222 217.973 79.2999 217.992 81.0066 218.033C95.898 218.393 109.589 225.428 122.976 232.307C124.606 233.145 126.232 233.98 127.854 234.801C146.552 244.257 166.484 252.198 187.352 253.324C208.219 254.451 230.274 247.924 244.311 232.237C249.112 226.866 252.729 220.745 255.33 214.157C255.764 214.124 256.188 214.005 256.577 213.807C256.976 213.612 257.332 213.338 257.626 213.002C257.919 212.665 258.144 212.273 258.287 211.848C258.429 211.423 258.487 210.973 258.457 210.525C258.427 210.077 258.309 209.64 258.11 209.238C257.902 208.898 257.645 208.575 257.346 208.295C259.63 200.578 260.682 192.37 260.744 184.078C260.815 184.276 260.903 184.486 261.008 184.707C261.859 186.502 262.894 186.86 264.726 185.982C266.543 185.119 266.949 184.125 266.083 182.244C265.217 180.364 264.197 179.952 262.426 180.776C261.575 181.172 261.021 181.587 260.74 182.088C260.706 179.188 260.555 176.282 260.295 173.387C260.451 173.467 260.614 173.534 260.781 173.588C261.199 173.724 261.64 173.774 262.077 173.737C262.515 173.7 262.941 173.576 263.331 173.371C263.725 173.169 264.076 172.89 264.363 172.549C264.65 172.209 264.868 171.814 265.004 171.388C265.14 170.962 265.192 170.513 265.156 170.066C265.12 169.62 264.997 169.185 264.795 168.787C263.76 167.179 262.012 166.394 260.264 167.35C260.046 167.464 259.841 167.602 259.654 167.761C259.33 165.412 258.938 163.078 258.484 160.769C259.222 160.994 260.064 160.963 260.901 160.698C261.305 160.519 261.67 160.261 261.976 159.939C262.282 159.617 262.522 159.236 262.682 158.82C262.842 158.403 262.92 157.959 262.91 157.512C262.9 157.065 262.804 156.624 262.625 156.215C262.247 155.436 261.588 154.835 260.784 154.534C259.981 154.234 259.094 154.258 258.307 154.601C257.923 154.768 257.577 155.005 257.284 155.297C256.635 152.612 255.919 149.947 255.147 147.3C255.438 147.555 255.769 147.757 256.128 147.898C256.539 148.059 256.976 148.137 257.416 148.127C257.856 148.117 258.29 148.019 258.693 147.839C260.724 146.906 260.947 144.909 260.425 143.355C260.249 142.944 259.994 142.572 259.674 142.261C259.355 141.95 258.978 141.707 258.564 141.546C258.151 141.385 257.71 141.308 257.268 141.322C256.825 141.335 256.39 141.437 255.987 141.623C255.584 141.803 255.22 142.062 254.916 142.384C254.612 142.707 254.374 143.087 254.215 143.503C254.172 143.613 254.136 143.726 254.105 143.84C250.871 133.422 246.858 123.248 242.843 113.07C242.541 112.302 242.238 111.535 241.936 110.767C242.008 110.625 242.072 110.477 242.126 110.325C242.373 109.672 242.364 108.919 242.355 108.168C242.352 107.848 242.348 107.528 242.364 107.217C242.144 107.021 241.932 106.796 241.72 106.571L241.72 106.57C241.251 106.072 240.779 105.571 240.21 105.368C240.063 105.313 239.915 105.266 239.765 105.226C239.01 103.286 238.263 101.342 237.528 99.3952C237.596 99.3589 237.664 99.3166 237.733 99.2675C237.926 99.1334 238.135 99.0253 238.342 98.9181C238.926 98.6154 239.497 98.3198 239.65 97.4648C239.694 97.2216 239.777 96.9824 239.859 96.7461L239.859 96.7458L239.859 96.7456L239.859 96.7454L239.859 96.7452L239.86 96.7451L239.86 96.7449L239.86 96.7447L239.86 96.7445L239.86 96.7443L239.86 96.7441L239.86 96.744L239.86 96.7438L239.86 96.7436L239.86 96.7434L239.86 96.7432C240.079 96.1126 240.291 95.5028 239.734 94.893L239.71 94.8382C239.044 93.3232 239.039 93.3108 237.94 92.9039C237.844 92.8675 237.748 92.8294 237.653 92.7913C236.91 92.4954 236.176 92.2031 235.334 92.7951C235.272 92.8386 235.208 92.8794 235.144 92.9183C234.361 90.7294 233.601 88.5329 232.871 86.3263C232.956 86.3667 233.043 86.4036 233.131 86.4369C233.758 86.6731 234.44 86.7154 235.091 86.5584C235.742 86.4015 236.332 86.0525 236.787 85.5554C237.242 85.0584 237.541 84.4357 237.647 83.7662C237.753 83.0967 237.66 82.4104 237.381 81.7943C236.986 80.9888 236.303 80.3661 235.472 80.0528C234.64 79.7396 233.722 79.7594 232.904 80.1082C232.295 80.39 231.783 80.8484 231.432 81.4254C231.404 81.471 231.377 81.5172 231.352 81.5639C231.177 80.9938 231.004 80.423 230.834 79.8513C229.358 74.8759 228.068 69.8204 226.778 64.765C223.396 51.5122 220.014 38.2595 213.294 26.4481C204.01 10.1311 185.995 -3.11681 167.818 0.643875C164.339 1.36857 161.085 2.66525 158.064 4.40701C158.075 4.39382 158.086 4.38052 158.097 4.36709C157.917 4.3081 157.757 4.24506 157.622 4.19189C157.384 4.098 157.224 4.03495 157.17 4.0796C156.974 4.29733 156.844 4.56678 156.794 4.8566C156.79 4.89082 156.873 4.98084 156.986 5.05385C147.976 10.6682 141.136 20.2546 136.717 30.2476C136.527 30.6779 136.339 31.111 136.154 31.5464C135.763 31.5267 135.37 31.5755 134.992 31.6932C134.404 32.1076 133.962 32.7006 133.729 33.3864C133.496 34.0722 133.485 34.8153 133.696 35.5083C133.86 35.7449 134.051 35.958 134.266 36.1437C134.189 36.3338 134.113 36.5241 134.036 36.7144C132.557 40.3985 131.067 44.1079 129.281 47.5654C129.106 47.1039 128.459 46.6348 127.86 46.2006L127.86 46.2004C127.683 46.0725 127.511 45.9475 127.356 45.8267C126.813 45.3846 126.225 45.4986 125.62 45.6158C125.141 45.7086 124.652 45.8034 124.167 45.6247C123.945 45.9038 123.706 46.1829 123.463 46.4676C123.082 46.912 122.69 47.3699 122.335 47.8625C121.777 48.5635 121.974 49.3591 122.164 50.1266L122.164 50.1268C122.235 50.4141 122.306 50.6975 122.335 50.9705C122.387 51.4213 122.911 51.8179 123.438 52.2169C123.683 52.4025 123.929 52.5886 124.129 52.7809C124.683 53.2987 125.297 53.2695 125.908 53.1484C124.086 55.6851 121.954 57.945 119.353 59.7736C118.969 60.0431 118.58 60.2993 118.188 60.5426C118.169 60.524 118.149 60.5057 118.13 60.4875C117.715 60.102 117.229 59.8038 116.7 59.6103C116.578 59.5861 116.452 59.5591 116.323 59.5314C115.291 59.3105 114.059 59.0467 113.112 59.8201C112.181 60.4599 111.429 61.3324 110.928 62.3531C110.799 62.7333 110.762 63.1544 110.777 63.5916C109.606 63.8661 108.416 64.0614 107.21 64.1847C107.185 64.1259 107.16 64.0671 107.133 64.0082H107.141C106.637 62.9415 105.745 62.1142 104.652 61.7004C103.558 61.2867 102.35 61.3186 101.279 61.7896C100.277 62.2305 99.4697 63.0241 99.003 64.0197C92.4218 63.1734 85.6935 60.7794 79.4607 57.8936C79.6535 57.1829 79.6226 56.5055 79.021 55.8732C78.8471 54.7451 78.1164 54.4789 77.3263 54.1911L77.3262 54.191C77.0715 54.0982 76.8106 54.0032 76.5602 53.8763C75.5329 53.3557 74.6973 53.6199 73.6777 54.0006C73.2977 54.1447 73.0266 54.3456 72.8205 54.5812C69.4112 52.8139 65.9095 51.0132 62.3508 49.3866C62.4051 49.3611 62.4601 49.3346 62.5159 49.3069C64.2561 48.4522 64.5781 47.3955 63.6735 45.4996C62.8225 43.7047 61.8642 43.3395 59.9477 44.2331C58.2016 45.0472 57.7918 45.9838 58.4864 47.7071C45.2303 42.271 31.3694 40.2173 18.6654 51.9492C10.4013 59.5794 8.13558 68.5345 5.19597 81.786ZM132.563 9.45942C132.681 9.51493 132.814 9.5773 132.96 9.65644C132.973 9.47621 132.995 9.31367 133.013 9.17528L133.013 9.1745C133.048 8.91358 133.071 8.73863 133.006 8.69296C132.737 8.56638 132.45 8.48252 132.155 8.44432C132.14 8.52143 132.104 8.59855 132.068 8.67482C131.996 8.8291 131.925 8.97992 132.033 9.12031C132.141 9.26117 132.321 9.34598 132.563 9.45942ZM120.192 10.6578L120.192 10.658C120.111 10.9057 120.058 11.0668 119.989 11.0717C119.69 11.0848 119.395 11.0092 119.138 10.8542C119.084 10.8542 119.138 10.2792 119.291 10.217C119.644 10.1438 120.007 10.128 120.365 10.1704C120.293 10.3517 120.238 10.518 120.193 10.6571L120.192 10.6578ZM135.991 21.0977C136.061 20.7999 136.135 20.4878 136.234 20.1927C135.417 19.937 134.577 19.7677 133.727 19.6876C133.251 19.7032 132.722 21.9798 133.098 22.1119C133.179 22.1406 133.263 22.1715 133.35 22.2034L133.352 22.2039C134.043 22.4571 134.903 22.7719 135.352 22.5237C135.699 22.3318 135.837 21.7486 135.991 21.0977ZM123.354 22.6418C122.833 21.6084 122.197 21.3986 121.124 21.9192C120.902 21.9798 120.698 22.0936 120.529 22.2508C120.359 22.408 120.23 22.6042 120.151 22.8227C120.072 23.0413 120.046 23.2758 120.075 23.5067C120.104 23.7375 120.188 23.9578 120.319 24.1492C120.809 25.237 121.438 25.5089 122.48 25.0583C123.745 24.5144 123.975 23.8772 123.354 22.6418ZM125.24 38.8412C124.571 39.1489 123.808 39.1772 123.118 38.9198C122.428 38.6625 121.866 38.1402 121.553 37.4659C121.374 37.113 121.272 36.7255 121.254 36.3294C121.236 35.9333 121.302 35.5378 121.447 35.1696C121.592 34.8014 121.814 34.4691 122.096 34.1951C122.379 33.921 122.717 33.7116 123.086 33.5809C123.422 33.4271 123.786 33.3454 124.154 33.3412C124.523 33.3369 124.888 33.4101 125.227 33.5561C125.567 33.7021 125.872 33.9177 126.125 34.1895C126.378 34.4612 126.573 34.7831 126.697 35.1349C126.974 35.8236 126.978 36.5946 126.706 37.2858C126.434 37.9769 125.909 38.5345 125.24 38.8412ZM112.614 41.1246C114.469 40.2466 114.868 39.2132 114.048 37.4106C113.181 35.4991 112.162 35.064 110.399 35.8643C108.398 36.789 108.014 37.7214 108.781 39.5085C109.732 41.6141 110.759 42.0026 112.614 41.1246ZM101.153 39.1209C101.981 40.9314 101.598 41.9803 99.7733 42.8506C97.9488 43.7208 96.8755 43.3867 95.9402 41.2966C95.1736 39.5561 95.6106 38.5149 97.4735 37.6369C99.275 36.8055 100.287 37.2251 101.153 39.1209ZM88.4504 41.2419C87.5994 39.4393 86.5568 39.0741 84.7323 39.9521C82.9154 40.8223 82.5014 41.7469 83.3677 43.6428C84.234 45.5387 85.2459 45.9505 87.0168 45.1269C89.01 44.2411 89.3856 43.2155 88.4504 41.2419ZM116.946 48.9882C117.842 50.6821 116.946 53.5104 115.19 54.4272C113.611 55.2042 110.928 54.4272 110 52.8033C109.072 51.1794 109.885 48.2734 111.572 47.3643C113.258 46.4552 116.026 47.2478 116.946 48.9882ZM104.404 51.4366C103.79 49.9447 101.084 48.5772 99.1217 49.4707C97.1898 50.442 96.5228 53.4334 97.2665 54.8476C97.7887 55.6898 98.5712 56.3332 99.4919 56.6776C100.413 57.0219 101.42 57.0478 102.357 56.7512C104.112 56.0209 105.17 53.2547 104.404 51.4366ZM86.5493 51.6923C88.3355 50.9153 91.0646 51.9876 91.7852 53.7591C92.5059 55.5307 91.4249 58.3357 89.6541 59.0427C87.8832 59.7498 85.3533 58.6853 84.6097 57.0381C83.7358 55.0645 85.062 52.2906 86.5493 51.6923ZM258.687 132.948C258.785 132.28 258.686 131.597 258.401 130.985C257.997 130.186 257.308 129.572 256.473 129.269C255.639 128.966 254.722 128.996 253.909 129.353C253.306 129.642 252.801 130.106 252.458 130.686C252.115 131.266 251.949 131.936 251.982 132.611C252.014 133.286 252.244 133.936 252.641 134.48C253.038 135.023 253.585 135.434 254.213 135.663C254.841 135.891 255.521 135.925 256.168 135.761C256.816 135.597 257.4 135.242 257.849 134.742C258.297 134.241 258.589 133.617 258.687 132.948ZM256.738 118.041C257.305 119.883 256.784 121.747 254.952 122.509C254.545 122.712 254.102 122.829 253.649 122.853C253.196 122.877 252.743 122.808 252.317 122.649C251.892 122.49 251.502 122.245 251.173 121.928C250.844 121.612 250.582 121.231 250.403 120.809C250.224 120.386 250.131 119.931 250.131 119.472C250.131 119.012 250.223 118.557 250.402 118.135C250.581 117.712 250.843 117.331 251.171 117.014C251.5 116.698 251.889 116.452 252.315 116.293C253.13 115.93 254.054 115.911 254.883 116.239C255.713 116.567 256.38 117.215 256.738 118.041ZM248.351 108.041C248.849 109.105 251.947 110.201 252.905 109.649C253.97 109.035 254.967 105.927 254.369 104.995C253.748 103.923 250.705 102.936 249.769 103.581C248.834 104.226 247.914 107.108 248.351 108.041ZM248.044 91.1643C249.831 90.3173 250.858 90.7136 251.724 92.5629C252.636 94.5287 252.253 95.4922 250.191 96.4479C248.474 97.2249 247.446 96.782 246.573 94.8939C245.76 93.0679 246.174 92.0423 248.044 91.1643ZM258.593 226.129C260.372 225.267 260.724 224.21 259.866 222.361C259.007 220.519 258.079 220.1 256.217 220.978C254.354 221.856 253.947 222.889 254.76 224.684C255.634 226.704 256.646 227.077 258.593 226.129ZM75.1114 47.0688C76.8746 46.2141 77.2119 45.1574 76.338 43.2848C75.4793 41.4667 74.4674 41.0704 72.6275 41.9484C70.7877 42.8264 70.3967 43.8676 71.2246 45.6702C72.1292 47.6671 73.1488 48.0323 75.1114 47.0688ZM268.17 196.572C268.394 195.867 268.341 195.101 268.022 194.435C267.698 193.766 267.127 193.253 266.433 193.007C265.739 192.761 264.977 192.803 264.312 193.122C263.954 193.28 263.634 193.513 263.373 193.807C263.112 194.1 262.915 194.447 262.797 194.824C262.678 195.2 262.641 195.598 262.687 195.991C262.733 196.384 262.861 196.762 263.062 197.1C263.226 197.434 263.456 197.73 263.738 197.969C264.019 198.209 264.347 198.386 264.699 198.491C265.052 198.596 265.423 198.626 265.787 198.58C266.152 198.533 266.503 198.41 266.819 198.219C267.462 197.867 267.946 197.277 268.17 196.572ZM235.418 69.5641C235.56 69.915 235.631 70.2909 235.629 70.67C235.626 71.0491 235.549 71.424 235.403 71.7728C235.256 72.1216 235.043 72.4375 234.775 72.7023C234.507 72.967 234.19 73.1752 233.843 73.315C233.495 73.4547 233.123 73.5232 232.749 73.5164C232.375 73.5096 232.006 73.4277 231.664 73.2754C231.321 73.1231 231.012 72.9035 230.754 72.6292C230.495 72.3549 230.293 72.0315 230.159 71.6775C229.927 70.9815 229.967 70.2214 230.271 69.5543C230.575 68.8872 231.121 68.3641 231.795 68.0928C232.468 67.8216 233.219 67.8231 233.892 68.0968C234.565 68.3706 235.109 68.8959 235.411 69.5641H235.418ZM248.389 84.0631C247.702 84.2645 246.97 84.2406 246.296 83.9951C245.623 83.7495 245.044 83.2947 244.641 82.6956C244.404 82.1853 244.323 81.6155 244.406 81.0581C244.489 80.5008 244.733 79.981 245.108 79.5643C245.483 79.1476 245.97 78.8528 246.51 78.717C247.05 78.5812 247.617 78.6107 248.141 78.8016C248.664 78.9924 249.12 79.3362 249.45 79.7895C249.781 80.2428 249.971 80.7851 249.998 81.3482C250.025 81.9112 249.886 82.4696 249.6 82.9528C249.313 83.436 248.892 83.8224 248.389 84.0631ZM267.033 119.921C267.892 119.424 268.712 116.868 268.275 116.091C267.785 115.221 265.347 114.335 264.488 114.832C263.63 115.329 262.771 117.8 263.254 118.67C263.737 119.541 266.175 120.419 267.033 119.921ZM269.195 132.765C268.39 133.153 265.83 132.221 265.446 131.405C265.063 130.589 265.983 127.994 266.788 127.606C267.593 127.217 270.154 128.149 270.537 128.965C270.92 129.781 270.023 132.376 269.195 132.765ZM274.738 154.04C274.293 153.2 271.74 152.315 270.974 152.726C270.146 153.177 269.241 155.702 269.678 156.541C270.115 157.381 272.614 158.297 273.442 157.855C274.27 157.412 275.183 154.879 274.738 154.04ZM272.714 141.669C273.166 142.446 272.369 145.01 271.526 145.554C270.682 146.098 268.229 145.212 267.693 144.358C267.156 143.503 268.03 141.016 268.881 140.473C269.732 139.929 272.2 140.814 272.714 141.669ZM263.147 102.229C261.246 103.122 261.177 103.387 261.943 105.166C262.84 107.147 263.124 107.272 264.826 106.479C266.75 105.593 266.926 105.22 266.213 103.612C265.27 101.514 265.048 101.335 263.147 102.229ZM268.567 210.644C266.804 211.46 266.551 211.351 265.669 209.424C264.787 207.497 264.956 207.271 267.026 206.316C268.613 205.593 268.981 205.772 269.855 207.722C270.637 209.47 270.522 209.735 268.567 210.644ZM278.291 181.828C278.464 181.264 278.418 180.655 278.165 180.124C277.895 179.603 277.438 179.208 276.888 179.02C276.339 178.833 275.739 178.867 275.214 179.116C274.688 179.366 274.278 179.81 274.068 180.358C273.858 180.906 273.865 181.515 274.086 182.058C274.209 182.351 274.391 182.615 274.621 182.832C274.851 183.049 275.123 183.215 275.42 183.319C275.717 183.423 276.032 183.463 276.345 183.436C276.658 183.409 276.962 183.315 277.237 183.162C277.742 182.868 278.119 182.392 278.291 181.828ZM261.031 89.9982C261.553 89.7398 262.153 89.6915 262.709 89.8631C263.265 90.0346 263.736 90.4133 264.028 90.9228C264.18 91.2013 264.273 91.509 264.301 91.8261C264.329 92.1431 264.291 92.4626 264.19 92.7641C264.089 93.0655 263.927 93.3421 263.715 93.5763C263.502 93.8105 263.243 93.9971 262.955 94.124C262.42 94.3494 261.82 94.3574 261.28 94.1464C260.739 93.9354 260.3 93.5216 260.052 92.9909C259.805 92.4602 259.768 91.8532 259.95 91.296C260.133 90.7387 260.52 90.274 261.031 89.9982ZM229.942 60.0422C230.498 60.2167 231.099 60.1708 231.624 59.9137H231.631C232.157 59.6468 232.559 59.1822 232.751 58.6192C232.944 58.0561 232.911 57.4392 232.661 56.8999C232.411 56.3606 231.963 55.9416 231.413 55.7324C230.862 55.5232 230.253 55.5403 229.715 55.7801C229.426 55.9056 229.167 56.0908 228.953 56.3238C228.74 56.5568 228.577 56.8324 228.474 57.133C228.372 57.4336 228.332 57.7526 228.358 58.0695C228.385 58.3865 228.476 58.6944 228.626 58.9736C228.915 59.4858 229.386 59.8677 229.942 60.0422ZM246.005 70.698C245.738 70.8477 245.443 70.9407 245.138 70.9712C244.834 71.0018 244.527 70.9693 244.236 70.8758C243.944 70.7822 243.675 70.6295 243.443 70.427C243.212 70.2245 243.023 69.9764 242.89 69.6978C242.756 69.4192 242.679 69.1159 242.665 68.8064C242.65 68.4968 242.698 68.1876 242.805 67.8974C242.912 67.6072 243.077 67.3421 243.288 67.1182C243.5 66.8944 243.754 66.7165 244.035 66.5954C244.567 66.3665 245.165 66.3533 245.706 66.5585C246.247 66.7637 246.69 67.1717 246.943 67.6982C247.196 68.2247 247.239 68.8295 247.065 69.3878C246.89 69.946 246.511 70.415 246.005 70.698ZM273.263 170.508C273.82 170.682 274.421 170.636 274.945 170.379C275.471 170.112 275.872 169.648 276.065 169.085C276.257 168.522 276.225 167.905 275.975 167.365C275.725 166.826 275.277 166.407 274.726 166.198C274.176 165.989 273.567 166.006 273.028 166.246C272.741 166.372 272.482 166.558 272.269 166.791C272.057 167.024 271.894 167.3 271.792 167.601C271.691 167.901 271.652 168.22 271.679 168.536C271.705 168.853 271.797 169.161 271.947 169.439C272.237 169.951 272.707 170.333 273.263 170.508ZM271.986 220.139C272.017 220.384 272.017 220.632 271.986 220.877C271.778 221.599 271.522 222.305 271.219 222.991C271.112 223.112 270.983 223.21 270.838 223.28C270.693 223.349 270.536 223.388 270.376 223.395C270.106 223.356 269.846 223.266 269.609 223.131C269.371 223.042 269.161 222.968 268.976 222.903C268.313 222.668 267.982 222.551 267.876 222.327C267.77 222.104 267.886 221.775 268.118 221.119C268.187 220.924 268.266 220.701 268.352 220.442L268.396 220.313C268.807 219.092 268.869 218.909 270.299 219.518C270.694 219.681 271.097 219.823 271.472 219.956L271.478 219.957L271.637 220.014C271.702 220.037 271.766 220.06 271.829 220.082C271.882 220.101 271.934 220.12 271.986 220.139ZM244.165 57.085C245.108 56.5411 245.277 55.8262 244.725 54.754C244.181 53.7516 243.59 53.5652 242.487 54.1168C241.383 54.6685 241.191 55.4533 241.866 56.6188C242.372 57.5279 243.222 57.6289 244.165 57.085ZM261.322 78.468C261.859 79.548 261.667 80.2162 260.67 80.7446C259.674 81.2729 258.915 81.1408 258.371 80.1851C257.719 78.9808 257.926 78.2659 259.091 77.7143C260.256 77.1626 260.824 77.3802 261.322 78.468ZM229.853 44.2261C230.397 45.2984 230.221 45.9977 229.262 46.5571C228.304 47.1165 227.476 46.9767 226.963 46.052C226.303 44.8865 226.503 44.1173 227.614 43.5579C228.726 42.9984 229.331 43.2082 229.853 44.2261ZM110.766 25.0108C110.268 23.9152 109.647 23.6666 108.589 24.125C107.455 24.63 107.179 25.1584 107.631 26.2773C108.083 27.3962 108.743 27.7303 109.731 27.3418C110.973 26.8834 111.265 26.1063 110.766 25.0108ZM98.1558 27.3333C98.6157 28.3978 98.3627 29.0271 97.2895 29.5322C96.2162 30.0372 95.4343 29.7497 94.9896 28.491C94.6063 27.4809 94.9436 26.8127 96.0476 26.3542C97.1515 25.8958 97.6651 26.1833 98.1558 27.3333ZM82.7238 30.2475C83.2374 31.312 83.8737 31.5295 84.9393 31.0245C86.0356 30.5117 86.2579 29.8901 85.7749 28.7867C85.292 27.6834 84.6633 27.4036 83.6284 27.8465C82.3635 28.3749 82.1182 29.0276 82.7238 30.2475ZM72.2978 33.2791C71.2322 33.7919 70.6035 33.5744 70.0822 32.5021C69.4843 31.2822 69.7296 30.6295 70.9869 30.0934C72.0218 29.6583 72.6504 29.9302 73.1334 31.0336C73.6163 32.1369 73.3634 32.7741 72.2978 33.2791ZM279.851 193.107C279.322 192.097 278.663 191.903 277.597 192.447C276.563 192.968 276.302 193.527 276.854 194.708C277.406 195.889 278.111 196.099 279.292 195.439C280.235 194.887 280.38 194.118 279.851 193.107ZM279.223 116.635C278.157 117.179 277.498 116.985 276.969 115.974C276.44 114.964 276.585 114.195 277.528 113.643C278.709 112.983 279.414 113.193 279.966 114.374C280.518 115.555 280.219 116.114 279.223 116.635ZM282.097 127.069C281.568 126.067 280.909 125.873 279.844 126.409C278.809 126.937 278.548 127.497 279.1 128.678C279.652 129.859 280.357 130.068 281.538 129.4C282.481 128.856 282.626 128.072 282.097 127.069ZM275.489 101.039C276.302 101.297 277.093 101.616 277.858 101.995C278.241 102.204 277.513 104.427 277.092 104.326C276.325 104.201 275.275 103.999 274.991 103.471C274.799 103.113 274.986 102.578 275.201 101.964C275.303 101.67 275.412 101.358 275.489 101.039ZM283.102 154.559C283.852 154.979 284.633 155.338 285.44 155.631C285.531 155.295 285.655 154.971 285.771 154.669C286.005 154.057 286.205 153.535 286.03 153.176C285.774 152.648 284.769 152.414 284.006 152.237L283.968 152.228C283.554 152.127 282.726 154.302 283.102 154.559ZM48.1265 35.4458C47.9885 35.7429 47.8767 36.0569 47.7709 36.3539C47.5475 36.9813 47.3509 37.5331 46.9919 37.6913C46.4629 37.9244 45.4587 37.3961 44.83 37.0153C44.4467 36.7978 45.2517 34.6144 45.6963 34.6843C46.524 34.8763 47.3363 35.1308 48.1265 35.4458ZM284.589 139.789C284.34 140.611 284.038 141.416 283.684 142.198C283.485 142.578 281.277 141.871 281.339 141.421C281.446 140.644 281.638 139.571 282.151 139.284C282.5 139.088 283.059 139.285 283.682 139.504L283.682 139.504C283.975 139.607 284.283 139.714 284.589 139.789ZM58.9038 32.4939C58.6013 32.4204 58.2835 32.3431 57.9852 32.2373C57.7303 33.0638 57.5633 33.9156 57.4869 34.7781C57.5022 35.2598 59.756 35.796 59.8787 35.4152C59.8919 35.3772 59.9055 35.3383 59.9195 35.2987L59.9695 35.1581C60.2194 34.4572 60.5299 33.586 60.285 33.1308C60.0985 32.7844 59.5341 32.6471 58.9038 32.4939ZM259.406 65.5306C259.119 66.3478 258.768 67.1403 258.355 67.9005C258.102 68.289 255.956 67.4576 256.056 67.0302L256.061 67.0045C256.229 66.2302 256.452 65.2014 256.983 64.9401C257.345 64.7621 257.873 64.9685 258.479 65.2053C258.773 65.32 259.085 65.4419 259.406 65.5306ZM281.321 205.627L281.32 205.627L281.316 205.617C281.093 204.708 280.572 204.848 279.89 205.213L279.806 205.258C279.37 205.494 279.148 205.613 279.083 205.79C279.016 205.973 279.115 206.217 279.317 206.713L279.384 206.876C279.744 207.754 280.166 207.676 280.848 207.303L280.94 207.254C281.38 207.018 281.612 206.894 281.677 206.71C281.75 206.504 281.613 206.223 281.321 205.628L281.321 205.627ZM286.122 165.033C286.735 164.598 287.18 164.598 287.54 165.469C287.566 165.532 287.59 165.591 287.613 165.648C287.812 166.133 287.91 166.373 287.844 166.554C287.779 166.732 287.555 166.852 287.111 167.09L287.034 167.131C286.352 167.504 285.931 167.582 285.57 166.696C285.541 166.621 285.513 166.551 285.487 166.485C285.299 166.004 285.204 165.763 285.273 165.586C285.343 165.408 285.578 165.295 286.051 165.067L286.122 165.033ZM274.669 91.0556C275.374 90.7604 275.834 90.4729 275.275 89.6959C274.762 88.5208 274.76 88.5214 273.79 88.933L273.695 88.9733C272.99 89.2685 272.637 89.5405 273.09 90.3874L273.128 90.4614L273.18 90.5605L273.182 90.5647C273.424 91.0309 273.545 91.262 273.724 91.325C273.9 91.3869 274.133 91.2864 274.596 91.087L274.669 91.0556ZM35.2089 37.0625C35.0409 37.6337 34.8094 38.1838 34.519 38.702C34.2276 39.075 32.9244 38.6476 32.9244 38.1736C32.9145 37.9141 32.9601 37.6554 33.058 37.4154C33.1559 37.1753 33.3038 36.9595 33.4917 36.7828C33.7178 36.6526 34.0749 36.7563 34.512 36.8833C34.727 36.9458 34.9613 37.0139 35.2089 37.0625ZM21.8162 40.9862C22.1554 40.4845 22.431 39.9415 22.6365 39.37C22.3811 39.3079 22.1427 39.2285 21.9267 39.1566C21.4944 39.0127 21.1518 38.8986 20.9422 39.0126C20.746 39.1811 20.5862 39.3889 20.4728 39.6228C20.3593 39.8568 20.2947 40.1119 20.283 40.3723C20.2063 40.8308 21.4789 41.3436 21.8162 40.9862ZM225.491 30.9151C225.728 31.0275 225.979 31.1223 226.208 31.2087C226.659 31.3791 227.024 31.5168 227.024 31.6921C226.96 32.2719 226.78 32.8323 226.495 33.3394C226.349 33.2716 226.182 33.2158 226.015 33.1602C225.646 33.0373 225.278 32.9147 225.146 32.6634C225.021 32.4253 225.134 32.0848 225.274 31.6612C225.349 31.4352 225.432 31.1855 225.491 30.9151ZM241.927 42.1515C241.404 41.9054 240.857 41.7178 240.294 41.5921C240.257 41.8313 240.2 42.0615 240.148 42.2748C240.038 42.7198 239.947 43.0912 240.087 43.317C240.272 43.4957 240.494 43.6313 240.736 43.7145C240.978 43.7976 241.235 43.8264 241.49 43.7988C241.927 43.7677 242.302 42.3924 241.927 42.1515ZM273.734 76.2759C273.571 76.849 273.339 77.3996 273.044 77.9154C272.76 78.2884 271.449 77.861 271.457 77.387C271.447 77.1282 271.492 76.8704 271.589 76.6306C271.685 76.3908 271.831 76.1745 272.016 75.9962C272.219 75.8681 272.574 75.9698 273.009 76.0941C273.233 76.1582 273.478 76.2283 273.734 76.2759ZM255.966 54.2187C256.013 53.9826 256.055 53.7671 256.055 53.6047C255.913 53.443 255.824 53.2335 255.741 53.04C255.57 52.6387 255.428 52.3061 254.906 52.6101C254.67 52.7536 254.566 53.1225 254.463 53.4904L254.463 53.4907C254.416 53.6606 254.368 53.8304 254.308 53.9777L255.895 54.607C255.916 54.475 255.942 54.344 255.966 54.2187ZM299.699 165.181C299.582 165.08 299.474 164.994 299.377 164.918C299.157 164.745 298.996 164.619 298.932 164.451C298.84 164.21 299.147 163.853 299.216 163.861C299.501 163.916 299.765 164.047 299.983 164.241C300.032 164.286 299.97 164.448 299.875 164.696C299.822 164.833 299.759 164.996 299.699 165.181ZM291.213 113.947C291.309 114.023 291.418 114.108 291.534 114.21C291.593 114.033 291.654 113.875 291.706 113.742C291.804 113.488 291.868 113.321 291.818 113.27C291.603 113.072 291.337 112.94 291.052 112.889C290.983 112.874 290.676 113.239 290.768 113.48C290.832 113.647 290.992 113.774 291.213 113.947ZM293.454 125.134L293.453 125.134C293.329 125.057 293.18 124.964 293.022 124.848C292.901 125.189 292.839 125.549 292.838 125.912C292.859 126.013 293.035 126.082 293.21 126.15L293.211 126.15C293.252 126.166 293.293 126.182 293.332 126.198C293.369 126.214 293.404 126.23 293.436 126.246C293.596 125.99 293.715 125.709 293.788 125.415C293.788 125.343 293.654 125.259 293.454 125.134ZM107.255 13.7517C107.134 13.6437 107.022 13.5543 106.923 13.475C106.708 13.3031 106.552 13.1784 106.489 13.0136C106.397 12.7727 106.703 12.4153 106.772 12.4308C107.058 12.4794 107.323 12.6087 107.539 12.8038C107.586 12.851 107.533 12.9874 107.447 13.2111C107.391 13.3552 107.321 13.5356 107.255 13.7517ZM282.137 219.863L282.138 219.863L282.14 219.864L282.14 219.864L282.142 219.865L282.142 219.865C282.259 219.92 282.39 219.982 282.534 220.06C282.542 219.972 282.552 219.889 282.561 219.81C282.57 219.741 282.578 219.675 282.586 219.615C282.624 219.334 282.649 219.147 282.58 219.104C282.313 218.971 282.025 218.885 281.73 218.848C281.714 218.925 281.678 219.002 281.642 219.078C281.57 219.232 281.499 219.383 281.607 219.524C281.715 219.665 281.896 219.749 282.137 219.863ZM288.506 178.072C288.665 178.188 288.814 178.281 288.938 178.359C289.139 178.483 289.273 178.567 289.273 178.639C289.203 178.935 289.084 179.216 288.92 179.471C288.856 179.437 288.777 179.406 288.698 179.375C288.522 179.307 288.346 179.238 288.33 179.136C288.328 178.774 288.388 178.414 288.506 178.072ZM95.5954 14.4431C95.521 14.6316 95.4647 14.8039 95.4183 14.9461C95.3403 15.1851 95.2899 15.3395 95.2274 15.3444C94.9289 15.3575 94.6331 15.2819 94.3765 15.1269C94.3151 15.1269 94.3765 14.5519 94.5221 14.4897C94.8751 14.4164 95.2375 14.4007 95.5954 14.4431ZM224.787 19.1641C224.668 19.0896 224.527 19.0017 224.379 18.8959C224.262 19.2386 224.2 19.5979 224.195 19.9603C224.216 20.0616 224.392 20.13 224.568 20.198C224.648 20.2292 224.728 20.2603 224.793 20.2945C224.956 20.0397 225.076 19.7585 225.146 19.4631C225.146 19.3883 225 19.2975 224.787 19.1641ZM297.315 152.111L297.257 152.084C297.018 151.971 296.837 151.887 296.724 151.747C296.612 151.607 296.686 151.458 296.762 151.305C296.801 151.227 296.839 151.149 296.855 151.071C297.15 151.108 297.438 151.195 297.706 151.327C297.771 151.368 297.748 151.54 297.713 151.799C297.695 151.938 297.673 152.102 297.66 152.283C297.535 152.215 297.42 152.16 297.315 152.111ZM293.285 204.749L293.285 204.748C293.341 204.627 293.403 204.491 293.482 204.341C293.416 204.332 293.353 204.322 293.292 204.313C293.235 204.304 293.18 204.295 293.128 204.286C292.804 204.232 292.583 204.195 292.531 204.294C292.406 204.567 292.323 204.858 292.286 205.157C292.36 205.174 292.434 205.212 292.508 205.249C292.662 205.328 292.813 205.405 292.953 205.289C293.091 205.175 293.174 204.992 293.285 204.749ZM81.9418 16.3557C82.0956 16.4683 82.241 16.5595 82.3629 16.6359C82.5692 16.7652 82.7084 16.8526 82.7084 16.9307C82.6378 17.2222 82.5213 17.5003 82.3635 17.7543C82.2966 17.7205 82.2163 17.6896 82.1366 17.6589C81.9604 17.5911 81.7866 17.5243 81.7655 17.428C81.7667 17.0633 81.8262 16.7011 81.9418 16.3557ZM212.357 21.523L212.357 21.5229C212.432 21.4248 212.517 21.3145 212.619 21.1951C212.426 21.1337 212.256 21.0678 212.116 21.0133C211.884 20.9231 211.732 20.864 211.684 20.9076C211.494 21.1281 211.367 21.3966 211.316 21.6846C211.3 21.7546 211.653 22.0576 211.891 21.9721C212.057 21.9124 212.182 21.7504 212.357 21.523ZM70.1819 18.639C70.0814 18.7574 69.9973 18.8672 69.9221 18.9652C69.7509 19.1887 69.6264 19.3511 69.4613 19.416C69.2236 19.5092 68.8633 19.1984 68.8786 19.1285C68.9311 18.8394 69.061 18.5706 69.2543 18.3515C69.2931 18.3208 69.4196 18.3691 69.6145 18.4435C69.7656 18.5012 69.9576 18.5745 70.1819 18.639ZM291.142 191.158C291.02 191.081 290.875 190.989 290.722 190.877C290.602 191.221 290.539 191.584 290.538 191.949C290.559 192.049 290.73 192.113 290.903 192.178C290.986 192.209 291.069 192.24 291.136 192.275C291.297 192.022 291.417 191.744 291.489 191.452C291.489 191.378 291.349 191.289 291.142 191.158ZM295.72 138.298C295.598 138.638 295.422 138.955 295.199 139.238C295.121 139.301 294.949 139.243 294.775 139.185C294.691 139.157 294.607 139.129 294.532 139.114C294.57 138.815 294.652 138.524 294.777 138.251C294.828 138.16 295.037 138.194 295.344 138.243L295.344 138.243L295.345 138.243L295.348 138.243L295.348 138.243C295.393 138.251 295.44 138.258 295.49 138.266C295.563 138.277 295.64 138.288 295.72 138.298ZM56.7508 21.7297C56.8722 21.7867 57.0085 21.8507 57.1573 21.9327C57.1706 21.7523 57.1921 21.5897 57.2105 21.4512L57.2105 21.451L57.2105 21.4509L57.2106 21.4508C57.2452 21.1898 57.2684 21.0149 57.2033 20.9692C56.9339 20.8427 56.6469 20.7588 56.3523 20.7206C56.3371 20.7977 56.3009 20.8748 56.2651 20.9511C56.1927 21.1054 56.122 21.2562 56.2297 21.3966C56.3359 21.535 56.5154 21.6192 56.7508 21.7297ZM289.605 100.58L289.604 100.58C289.524 100.827 289.471 100.988 289.403 100.993C289.105 101.002 288.81 100.927 288.552 100.776C288.499 100.776 288.552 100.201 288.706 100.139C289.058 100.058 289.421 100.039 289.779 100.084C289.706 100.268 289.651 100.438 289.605 100.58ZM145.985 6.38589C145.884 6.50434 145.8 6.61412 145.725 6.71215C145.554 6.93565 145.43 7.09808 145.264 7.16289C145.027 7.25613 144.666 6.94533 144.682 6.88317C144.734 6.59401 144.864 6.32508 145.057 6.10617C145.105 6.04734 145.283 6.11737 145.557 6.22503C145.681 6.27376 145.825 6.33021 145.985 6.38589Z" fill="#C1C2CD"/>
</svg>
