<svg width="105" height="81" viewBox="0 0 105 81" fill="none" xmlns="http://www.w3.org/2000/svg">
<path d="M71.4789 11.8694L40.302 29.8694L51.802 49.788L82.9789 31.788L71.4789 11.8694Z" fill="white"/>
<path d="M78.4477 6.0768C76.6714 4.23968 73.9903 3.52129 71.6229 4.17247C67.1563 5.31988 51.9483 14.1003 51.9483 14.1003C51.9483 14.1003 36.6507 22.9323 33.4238 26.2267C31.6761 27.9514 30.9577 30.6325 31.6606 33.0894C32.7563 37.4665 37.4048 45.5178 37.4048 45.5178C37.4048 45.5178 42.0015 53.4797 45.296 56.7066C47.0723 58.5437 49.7017 59.1727 52.0692 58.5215C56.4841 57.2846 71.7816 48.4526 71.7816 48.4526C71.7816 48.4526 86.9897 39.6722 90.2683 36.4672C92.0159 34.7426 92.786 32.151 92.0831 29.694C90.9357 25.2275 86.3389 17.2656 86.3389 17.2656C86.3389 17.2656 81.6905 9.2143 78.4477 6.0768ZM61.0905 41.5044L52.7233 27.0121L69.6101 26.924L61.0905 41.5044Z" fill="url(#paint0_linear)"/>
<path d="M32.2113 59.9139L11.0751 54.2505L7.45679 67.7542L28.593 73.4177L32.2113 59.9139Z" fill="white"/>
<path d="M37.6959 60.4195C37.722 58.8664 36.8784 57.4053 35.581 56.6677C33.1682 55.2411 22.8579 52.4785 22.8579 52.4785C22.8579 52.4785 12.4871 49.6996 9.68418 49.7286C8.19176 49.7188 6.73067 50.5623 5.97677 51.9204C4.56646 54.2726 3.10389 59.731 3.10389 59.731C3.10389 59.731 1.65758 65.1287 1.68658 67.9316C1.66046 69.4846 2.52026 70.8851 3.81767 71.6227C6.2468 72.9886 16.6177 75.7675 16.6177 75.7675C16.6177 75.7675 26.9279 78.5301 29.7145 78.5618C31.207 78.5716 32.6518 77.7887 33.4057 76.4307C34.8323 74.0178 36.2786 68.6201 36.2786 68.6201C36.2786 68.6201 37.7411 63.1617 37.6959 60.4195ZM15.0089 68.1861L17.6415 58.3611L24.9373 65.5812L15.0089 68.1861Z" fill="url(#paint1_linear)"/>
<path d="M97.6321 51.8916L83.8349 55.5885L86.1968 64.4034L99.994 60.7064L97.6321 51.8916Z" fill="white"/>
<path d="M100.898 50.3872C100.405 49.5007 99.4517 48.95 98.4775 48.9565C96.6479 48.9375 89.9176 50.7409 89.9176 50.7409C89.9176 50.7409 83.1477 52.5549 81.5727 53.4861C80.7257 53.9676 80.1751 54.9214 80.1921 55.9352C80.1626 57.7253 81.1173 61.2884 81.1173 61.2884C81.1173 61.2884 82.0615 64.8119 82.9927 66.3869C83.4848 67.2734 84.428 67.7845 85.4022 67.7781C87.2212 67.7574 93.9911 65.9434 93.9911 65.9434C93.9911 65.9434 100.721 64.14 102.307 63.2484C103.154 62.7669 103.715 61.8527 103.698 60.8389C103.717 59.0092 102.773 55.4857 102.773 55.4857C102.773 55.4857 101.818 51.9227 100.898 50.3872ZM90.6072 62.1826L88.8887 55.769L95.3697 57.4695L90.6072 62.1826Z" fill="url(#paint2_linear)"/>
<defs>
<linearGradient id="paint0_linear" x1="26.184" y1="28.9753" x2="95.0921" y2="34.9942" gradientUnits="userSpaceOnUse">
<stop stop-color="#FF0000"/>
<stop offset="1" stop-color="#D90000"/>
</linearGradient>
<linearGradient id="paint1_linear" x1="5.3912" y1="47.7983" x2="32.4209" y2="80.0019" gradientUnits="userSpaceOnUse">
<stop stop-color="#FF0202"/>
<stop offset="1" stop-color="#D70F0F"/>
</linearGradient>
<linearGradient id="paint2_linear" x1="78.5157" y1="53.796" x2="104.307" y2="63.1792" gradientUnits="userSpaceOnUse">
<stop stop-color="#FF0000"/>
<stop offset="1" stop-color="#D90000"/>
</linearGradient>
</defs>
</svg>
