<svg xmlns="http://www.w3.org/2000/svg" viewBox="0 0 100 100" width="100%" height="100%" preserveAspectRatio="none"><path d="M37.2 37.2c-5.2 5.2-13.5 5.2-18.7 0L3.9 22.6C-1.3 17.4-1.3 9 3.9 3.9c5.2-5.2 13.5-5.2 18.7 0l14.7 14.7c5.1 5.1 5.1 13.5-.1 18.6zM96.1 96.1c-5.2 5.2-13.5 5.2-18.7 0L62.8 81.5c-5.2-5.2-5.2-13.5 0-18.7 5.2-5.2 13.5-5.2 18.7 0l14.7 14.7c5.1 5.1 5.1 13.5-.1 18.6zM62.8 37.2c-5.2-5.2-5.2-13.5 0-18.7L77.4 3.9c5.2-5.2 13.5-5.2 18.7 0 5.2 5.2 5.2 13.5 0 18.7L81.5 37.2c-5.2 5.2-13.6 5.2-18.7 0zM3.9 96.1c-5.2-5.2-5.2-13.5 0-18.7l14.7-14.7c5.2-5.2 13.5-5.2 18.7 0 5.2 5.2 5.2 13.5 0 18.7L22.6 96.1c-5.2 5.2-13.6 5.2-18.7 0z"/></svg>