<?xml version="1.0" encoding="utf-8"?>
<svg version="1.1" id="Layer_1" xmlns="http://www.w3.org/2000/svg" xmlns:xlink="http://www.w3.org/1999/xlink" 
    viewBox="0 0 231 27" fill="none">
	<path xmlns="http://www.w3.org/2000/svg" d="M2 25L26.1889 4.39465C27.7764 3.04231 30.1366 3.13656 31.6112 4.61119L49.3394 22.3394C50.8344 23.8344 53.2346 23.9078 54.8182 22.507L75.2413 4.44038C76.8003 3.06126 79.1564 3.10825 80.6592 4.54842L99.3408 22.4516C100.844 23.8918 103.2 23.9387 104.759 22.5596L125.241 4.44038C126.8 3.06126 129.156 3.10825 130.659 4.54842L149.341 22.4516C150.844 23.8918 153.2 23.9387 154.759 22.5596L175.241 4.44038C176.8 3.06126 179.156 3.10825 180.659 4.54842L199.39 22.4989C200.872 23.9193 203.189 23.9871 204.752 22.656L229 2"/>
</svg>
