<?xml version="1.0" encoding="utf-8"?>
<svg version="1.1" id="Layer_1" xmlns="http://www.w3.org/2000/svg" xmlns:xlink="http://www.w3.org/1999/xlink"
	 viewBox="0 0 287 29" fill="none">
	<path xmlns="http://www.w3.org/2000/svg" d="M2 26.6047L20.8766 8.60606C27.0909 2.68078 36.8743 2.71705 43.0445 8.68823L52.5266 17.8644C58.4621 23.6085 67.7946 23.8904 74.066 18.5149L86.934 7.4851C93.2054 2.10964 102.538 2.39148 108.473 8.13558L118.375 17.7173C124.373 23.5227 133.828 23.7404 140.087 18.2171L152.088 7.62843C158.274 2.1696 167.598 2.31026 173.617 7.95324L184.535 18.1893C190.49 23.7722 199.693 23.9771 205.891 18.6648L219.276 7.1921C225.402 1.94075 234.481 2.07326 240.451 7.50118L250.776 16.887C257.463 22.9661 267.854 22.3045 273.716 15.4263L285 2.18605"/>
</svg>
