<svg width="200" height="200" viewBox="0 0 200 200" fill="none" xmlns="http://www.w3.org/2000/svg">
<path d="M197.425 53.551C193.477 69.4695 185.779 79.4186 194.464 91.3574C203.149 103.197 185.551 145.082 181.141 158.016C173.338 180.899 161.895 196.817 144.624 199.304C130.709 202.787 101.693 192.838 80.4745 177.417C64.6837 165.94 48.3995 149.025 39.9119 140.008C12.3772 110.758 0.0406491 72.4542 0.0406491 56.5357C-0.946295 33.6529 16.3244 21.2167 20.7657 19.2269C43.4651 8.78038 72.0858 23.7039 99.2262 20.7192C140.183 14.2523 167.817 -6.1432 186.569 1.816C204.333 11.2676 200.386 36.6377 197.425 53.551Z" fill="#CDD4DF"/>
</svg>
