<svg width="119" height="121" viewBox="0 0 119 121" fill="none" xmlns="http://www.w3.org/2000/svg">
<g clip-path="url(#clip0)">
<g opacity="0.4">
<path d="M33.0923 101.294L28.719 96.1695C27.9537 96.4038 27.2128 96.5807 27.2128 96.5807C26.4467 96.8153 26.1072 95.6373 26.8738 95.4017C26.8738 95.4017 29.2336 94.7241 30.5989 94.2151C32.0523 93.6733 34.2359 92.6571 34.2359 92.6571C34.9684 92.3348 35.4672 93.4024 34.7516 93.7703C34.7516 93.7703 34.0302 94.1386 33.211 94.4949L43.7957 107.56L43.457 102.413C43.4871 100.344 43.2841 98.7157 42.8407 97.5255C42.2006 95.8072 41.1404 94.8487 40.2677 94.12C39.1359 93.2383 38.1154 92.5163 37.6884 91.3701C37.2131 90.0941 37.7379 88.5438 39.1039 88.0346C39.1643 88.0121 39.2245 87.9981 39.2868 87.9783C35.9704 86.6352 32.1635 86.4807 28.5455 87.8294C23.6911 89.6391 20.3493 93.7198 19.2686 98.4194C19.5991 98.308 19.9086 98.1995 20.1703 98.1019C21.6222 97.5607 23.8065 96.5442 23.8065 96.5442C24.5391 96.2219 25.0386 97.2893 24.3222 97.6574C24.3222 97.6574 23.6023 98.0251 22.7808 98.3823L33.4476 111.547L33.0923 101.294Z" fill="white"/>
<path d="M19.8289 106.902C21.8774 112.401 26.8429 115.965 32.3174 116.488L18.9241 100.798C18.797 102.814 19.0783 104.887 19.8289 106.902Z" fill="white"/>
<path d="M43.2193 113.112C43.16 113.067 43.1021 113.016 43.0489 112.956L34.4187 102.846L34.763 116.517C36.1452 116.42 37.5352 116.128 38.8983 115.62C40.5162 115.016 41.9645 114.157 43.2193 113.112Z" fill="white"/>
<path d="M43.4321 90.5121C43.656 90.9332 43.8677 91.3944 44.0583 91.906C44.5836 93.3162 44.91 94.9993 44.8557 97.277L45.1825 111.131C48.417 107.181 49.5266 101.67 47.617 96.544C46.7169 94.1278 45.2531 92.0882 43.4321 90.5121Z" fill="white"/>
</g>
<path d="M111.075 86.3212C111.07 86.3217 111.065 86.3182 111.063 86.313V86.313C111.062 86.307 111.056 86.3035 111.05 86.3051L87.3518 92.6549C86.6055 92.8549 86.163 93.6258 86.3643 94.3774L92.6526 117.846C92.8538 118.596 93.622 119.044 94.369 118.843C94.387 118.839 94.4047 118.833 94.4223 118.828C94.5359 118.792 94.6469 118.747 94.7621 118.716L117.448 112.637C117.564 112.606 117.684 112.589 117.801 112.563C117.819 112.56 117.836 112.555 117.854 112.551C118.6 112.351 119.043 111.58 118.841 110.828L112.553 87.3602C112.372 86.6893 111.74 86.2631 111.075 86.3212Z" fill="#D30C5C"/>
<path d="M106.877 95.0217L99.7468 96.9322L100.393 99.3445L107.523 97.434L106.877 95.0217Z" fill="white"/>
<path d="M108.14 99.7402L101.01 101.651L101.657 104.063L108.787 102.153L108.14 99.7402Z" fill="white"/>
<path d="M109.404 104.456L102.274 106.367L102.921 108.779L110.051 106.869L109.404 104.456Z" fill="white"/>
<path d="M97.5285 97.5559L95.1162 98.2022L98.2838 110.024L100.696 109.377L97.5285 97.5559Z" fill="white"/>
<path d="M33.1483 94.2973C32.8927 94.1497 32.8207 93.8809 32.7978 93.5268L34.3837 85.4665C31.5032 82.7809 29.1374 79.5971 27.3585 76.184L19.1963 75.5619C18.8914 75.4995 18.6358 75.3519 18.5638 75.0831L16.0918 65.5889C16.0198 65.3201 16.2166 64.9793 16.4002 64.858L23.243 60.2873C23.1623 56.4913 23.6192 52.5511 24.771 48.785L19.4167 42.5123C19.2102 42.2795 19.2726 41.9747 19.335 41.6698L24.2548 33.1484C24.4024 32.8927 24.6713 32.8207 25.0253 32.7979L33.0856 34.3838C35.7713 31.5032 38.955 29.1374 42.3681 27.3585L42.9903 19.1963C43.0526 18.8915 43.2002 18.6358 43.4691 18.5638L52.9632 16.0919C53.232 16.0199 53.5729 16.2167 53.6941 16.4003L58.2648 23.2431C62.0609 23.1624 66.001 23.6193 69.7671 24.7711L76.0398 19.4167C76.2726 19.2103 76.5775 19.2726 76.8823 19.335L85.4037 24.2549C85.6594 24.4025 85.7314 24.6713 85.7542 25.0253L84.1683 33.0856C87.0489 35.7713 89.4147 38.9551 91.1936 42.3681L99.3558 42.9903C99.6606 43.0527 99.9163 43.2003 99.9883 43.4691L102.46 52.9632C102.532 53.2321 102.335 53.5729 102.152 53.6941L95.309 58.2649C95.3898 62.0609 94.9329 66.001 93.781 69.7672L99.1354 76.0399C99.3419 76.2727 99.2795 76.5775 99.2171 76.8823L94.2972 85.4038C94.1497 85.6594 93.8808 85.7315 93.5268 85.7543L85.4665 84.1684C82.7808 87.049 79.597 89.4147 76.184 91.1936L75.5618 99.3559C75.4994 99.6607 75.3518 99.9163 75.083 99.9884L65.5889 102.46C65.3201 102.532 64.9792 102.336 64.858 102.152L60.2873 95.3091C56.4912 95.3898 52.5511 94.9329 48.785 93.7811L42.5123 99.1355C42.2795 99.3419 41.9746 99.2795 41.6698 99.2171L33.1483 94.2973ZM73.4882 74.4123C81.7613 66.577 82.1491 53.5074 74.3138 45.2343C66.4786 36.9612 53.409 36.5735 45.0867 44.4939C36.8136 52.3292 36.4258 65.3988 44.3463 73.7211C52.0963 81.945 65.2151 82.2475 73.4882 74.4123Z" fill="url(#paint0_linear)"/>
<path d="M53.3118 84.2309C67.115 87.4819 80.9854 79.0313 84.2434 65.2215C87.5837 51.4593 79.0141 37.6239 65.2585 34.2905C51.4553 31.0395 37.5848 39.4901 34.3268 53.2999C31.0688 67.1096 39.5086 80.9798 53.3118 84.2309ZM39.9044 54.6547C42.4644 43.9532 53.2044 37.3161 63.9008 39.8708C74.5972 42.4254 81.2259 53.1652 78.6184 63.949C76.0584 74.6505 65.3184 81.2876 54.5397 78.6854C43.9255 76.1783 37.3444 65.3562 39.9044 54.6547Z" fill="url(#paint1_linear)"/>
</g>
<defs>
<linearGradient id="paint0_linear" x1="-4.33198e-05" y1="75.1591" x2="110.131" y2="24.9299" gradientUnits="userSpaceOnUse">
<stop offset="0.00114429" stop-color="#9EFFFF"/>
<stop offset="1" stop-color="#3D59C9"/>
</linearGradient>
<linearGradient id="paint1_linear" x1="55.2475" y1="31.5347" x2="43.7463" y2="89.0552" gradientUnits="userSpaceOnUse">
<stop offset="0.00114429" stop-color="#4EFEC3"/>
<stop offset="1" stop-color="#3D59C9"/>
</linearGradient>
<clipPath id="clip0">
<rect width="119" height="121" fill="white"/>
</clipPath>
</defs>
</svg>
