<svg width="200" height="200" viewBox="0 0 200 200" fill="none" xmlns="http://www.w3.org/2000/svg">
<path d="M153.865 17.501C163.37 25.4437 172.74 31.8972 187.38 61.6827C194.213 75.5825 205.507 120.74 196.885 154.017C192.383 171.392 179.377 197.206 157.367 195.221C135.357 193.235 137.558 129.792 121.351 133.664C105.144 137.437 111.346 186.285 95.3385 186.285C85.2496 186.285 80.8325 157.492 71.3277 159.975C61.0126 162.668 60.8235 190.504 43.3153 199.192C29.3091 206.142 2.92668 167.147 0.296176 124.729C-1.70485 92.4608 6.79892 66.6468 14.8029 51.7542C35.2415 13.7248 65.3254 3.68729 82.3331 1.11898C99.3407 -1.44932 131.792 -0.945339 153.865 17.501Z" fill="#CDD4DF"/>
</svg>
