<svg width="200" height="200" viewBox="0 0 200 200" fill="none" xmlns="http://www.w3.org/2000/svg">
<path d="M183.095 38.272C197.017 46.914 200 63.3847 200 89.0005C200 111.602 199.378 144.751 188.564 158.312C174.145 176.394 142.822 164.643 123.431 172.376C106.527 179.116 83.1581 200 52.3319 200C26.4249 200 15.9536 186.941 9.57322 176.394C-1.97283 157.308 -2.3599 138.724 4.60128 120.141C11.3403 102.151 18.7545 84.9819 22.9973 68.9095C28.9637 46.3078 32.9413 4.61999 66.2535 0.0997043C99.0686 -2.41168 95.091 43.2942 119.454 49.8236C134.867 55.3485 163.207 25.926 183.095 38.272Z" fill="#CDD4DF"/>
</svg>
