<svg xmlns="http://www.w3.org/2000/svg" width="51.776" height="27" viewBox="0 0 51.776 27"><g transform="translate(-11.346 -4.182)"><path d="M16.406,24.64h.037L18.1,18.7c.187-.664.579-1.334,1.306-1.167.96.22.96.6.96.918a2.473,2.473,0,0,1-.206.826L17.45,28.142c-.653,1.8-1.4,2.73-3.115,2.73-1.213,0-1.716-.574-1.716-1.2,0-.7.81-1.052,1.537-1.052h.28c.355,0,.792-.188,1-1l-3.751-7.652a3.939,3.939,0,0,1-.336-1.221c0-.718.1-.888.893-1.187.552-.209,1.232.4,1.4.988Z" fill="#231f20"/><path d="M38.017,18.762c0-.83.362-1.272,1.136-1.272.74,0,1.136.442,1.136,1.272v.424h.034a2.624,2.624,0,0,1,2.65-1.7c2.1,0,3.941,1.641,3.941,5.123,0,2.58-1.222,4.994-3.872,4.994a2.642,2.642,0,0,1-2.477-1.364H40.53v3.593a1.259,1.259,0,1,1-2.513,0Zm5.506.582c-1.518,0-2.089,1.558-2.089,3.26,0,1.537.5,3.341,2.089,3.32,1.659,0,2.07-1.926,2.07-3.32C45.593,20.841,44.914,19.385,43.523,19.344Z" fill="#231f20"/><path d="M32.622,15.562a1.251,1.251,0,1,1,2.491,0V26.8a1.251,1.251,0,1,1-2.491,0Z" fill="#231f20"/><path d="M23.956,23.437c0,1.459.8,2.521,2.164,2.521,1.763,0,1.763-1.365,2.709-1.365a1.061,1.061,0,0,1,.962,1.08c0,1.669-2.26,2.446-3.671,2.446-3.271,0-4.505-2.616-4.505-5.023,0-3.224,1.651-5.384,4.425-5.384a4.3,4.3,0,0,1,4.232,4.53c0,.948-.24,1.195-1.026,1.195Zm3.854-1.493c-.137-1.414-1-2.448-2.115-2.448-1.256,0-2.013.949-2.288,2.448Z" fill="#231f20"/><path d="M57.013,16.749c-.333.335-.052.945-.052.945l2.5,4.177s.411.551.767.551a1.323,1.323,0,0,0,.71-.294L62.918,19.3a1.715,1.715,0,0,0,.2-.669c.007-.444-.663-.566-.663-.566l-4.682-1.5A.847.847,0,0,0,57.013,16.749Z" fill="#af0606"/><path d="M56.775,14.643c.24.406.9.288.9.288l4.672-1.365s.636-.259.727-.6a1.329,1.329,0,0,0-.1-.762l-2.232-2.63a.807.807,0,0,0-.595-.365c-.443-.038-.715.5-.715.5l-2.64,4.154A.85.85,0,0,0,56.775,14.643Z" fill="#af0606"/><path d="M54.568,13.024c.55-.136.637-.935.637-.935l-.037-6.652s-.083-.82-.452-1.043a.877.877,0,0,0-.915-.143L49.922,5.693a1.2,1.2,0,0,0-.578.442c-.282.449.287,1.107.287,1.107l4.032,5.5A1.031,1.031,0,0,0,54.568,13.024Z" fill="#af0606"/><path d="M53.61,15.716c.014-.514-.616-.822-.616-.822l-4.169-2.106s-.618-.255-.918-.077a.9.9,0,0,0-.453.6l-.272,3.343a1.991,1.991,0,0,0,.109.843c.213.374.913.114.913.114l4.867-1.076C53.26,16.406,53.592,16.394,53.61,15.716Z" fill="#af0606"/><path d="M54.82,17.519c-.418-.214-.917.23-.917.23l-3.26,3.588s-.406.549-.3.886a.871.871,0,0,0,.487.583L54.1,23.839a1.72,1.72,0,0,0,.7,0c.427-.124.348-.792.348-.792l.074-4.858A.829.829,0,0,0,54.82,17.519Z" fill="#af0606"/></g></svg>