<svg xmlns="http://www.w3.org/2000/svg" width="32" height="32" viewBox="0 0 32 32"><g transform="translate(-331 -1031)"><g transform="translate(-214 791)"><circle cx="16" cy="16" r="16" transform="translate(545 240)" fill="#af0606"/><g transform="translate(551.456 243.228)"><path d="M812.16,631.405a1.151,1.151,0,0,1-.226,2.153l-5.423,1.354a1.36,1.36,0,0,1-.279.034,1.176,1.176,0,0,1-1.143-1.023c-.036-.311-.066-.82-.066-1.133a11.952,11.952,0,0,1,.52-3.17,1.228,1.228,0,0,1,1.091-.783,1.364,1.364,0,0,1,.5.116Zm1.612-14.567a.849.849,0,0,1,.09,0,1.146,1.146,0,0,1,1.146,1.143v10.518a1.153,1.153,0,0,1-2.15.576l-5.252-9.1a1.367,1.367,0,0,1-.153-.575,1.258,1.258,0,0,1,.654-1.039A19.263,19.263,0,0,1,813.772,616.838Zm-4.918,23.233a1.316,1.316,0,0,1,.3-.768l3.743-4.157a1.152,1.152,0,0,1,2.006.812l-.2,5.591a1.157,1.157,0,0,1-1.149,1.109,1.287,1.287,0,0,1-.194-.016,12,12,0,0,1-4.006-1.619A1.288,1.288,0,0,1,808.854,640.071Zm9.169-6.3,5.316,1.729a1.232,1.232,0,0,1,.8,1.1,1.346,1.346,0,0,1-.11.489,11.936,11.936,0,0,1-2.658,3.41,1.351,1.351,0,0,1-.736.263,1.291,1.291,0,0,1-.98-.539l-2.965-4.742A1.157,1.157,0,0,1,818.023,633.766Zm6.147-4.96a1.41,1.41,0,0,1,.094.463,1.227,1.227,0,0,1-.831,1.112l-5.378,1.538a1.151,1.151,0,0,1-1.272-1.751l3.126-4.635a1.29,1.29,0,0,1,.955-.507,1.337,1.337,0,0,1,.76.286,11.834,11.834,0,0,1,2.542,3.494Z" transform="translate(-805.023 -616.833)" fill="#fff"/></g></g></g></svg>